<?xml version="1.0" encoding="UTF-8"?>
<svg id="Layer_2" data-name="Layer 2" xmlns="http://www.w3.org/2000/svg" viewBox="0 0 350 158">
  <defs>
    <style>
      .cls-1 {
        fill: #fff;
      }
    </style>
  </defs>
  <g id="Layer_1-2" data-name="Layer 1">
    <g>
      <path class="cls-1" d="M4,158V33h66v10h18v-5h12.5v-5h7v5h7.5v-5h70v5s6.5,0,6.5,0v5s18,0,18,0v-5s6,0,6,0v-5s7,0,7,0v5h7.5v-5h7v5h12.5v5h31.5v-5h12.5v-5h7v5h7.5v-5h7v5s6,0,6,0v5s18,0,18,0v-5s6.5,0,6.5,0v-5.01s4.5,0,4.5,0v125h-41c-.21-.77.69-1.91-.73-2-4.35-.29-10.69-.29-15.03,0-1.42.1-.52,1.24-.73,2h-99l-.29-4.51h-16.21s0,4.51,0,4.51h-98c-.21-.77.69-1.91-.73-2-4.35-.29-10.69-.29-15.03,0-1.42.1-.52,1.24-.73,2H4ZM159.5,54.5h-16.5v4.5h16.5v-4.5ZM180.5,54.5h-17v4.5h17v-4.5ZM170,62.5h-17v4.5h17v-4.5ZM63,64.5h-16.5v4.5h15.75c1.31-1.06.61-2.99.75-4.5ZM83,64.5h-16.5c.14,1.51-.56,3.44.75,4.5h15.75v-4.5ZM293,64.5h-16.5v4.5h15.75c1.31-1.06.61-2.99.75-4.5ZM313,64.5h-16.5c.14,1.51-.56,3.44.75,4.5h15.75v-4.5ZM159.5,71h-16.5v4.5h16.5v-4.5ZM180.5,71h-17v4.5h17v-4.5ZM201,71h-17v4.5h17v-4.5ZM52.5,72.5h-16.5v4.5h16.5v-4.5ZM73,72.5h-16.5v4.5h16.5v-4.5ZM93.5,72.5h-16.5v4.5h16.5v-4.5ZM282.5,72.5h-16.5v4.5h16.5v-4.5ZM303,72.5h-16.5v4.5h16.5v-4.5ZM323.5,72.5h-16.5v4.5h16.5v-4.5ZM170,79h-17v4.5h17v-4.5ZM191,79h-17v4.5h17v-4.5ZM211.5,79h-17v4.5h17v-4.5ZM63,80.5h-16.5v4.5h16.5v-4.5ZM83,80.5h-16.5v4.5h16.5v-4.5ZM293,80.5h-16.5v4.5h16.5v-4.5ZM313,80.5h-16.5v4.5h16.5v-4.5ZM159.5,87.5h-16.5v4.5h16.5v-4.5ZM180.5,87.5h-17v4.5h17v-4.5ZM201,87.5h-17v4.5h17v-4.5ZM221.5,87.5h-16.5v4.5h16.5v-4.5ZM73,88.5h-16.5v4.5h16.5v-4.5ZM303,88.5h-16.5v4.5h16.5v-4.5ZM52.5,89h-16.5v4h16.5v-4ZM93.5,89h-16.5v4h16.5v-4ZM282.5,89h-16.5v4h16.5v-4ZM323.5,89h-16.5v4h16.5v-4ZM170,95.5h-17v4.5h17v-4.5ZM191,95.5h-17v4.5h17v-4.5ZM211.5,95.5h-17v4.5h17v-4.5ZM63,97h-16.5v4h16.5v-4ZM83,97h-16.5v4h16.5v-4ZM293,97h-16.5v4h16.5v-4ZM313,97h-16.5v4h16.5v-4ZM159.5,104h-16.5v4.5h16.5v-4.5ZM180.5,104h-17v4.5h17v-4.5ZM201,104h-17v4.5h17v-4.5ZM221.5,104h-16.5v4.5h16.5v-4.5ZM52.5,105h-16.5v4.5h16.5v-4.5ZM73,105h-16.5v4.5h16.5v-4.5ZM93.5,105h-16.5v4.5h16.5v-4.5ZM282.5,105h-16.5v4.5h16.5v-4.5ZM303,105h-16.5v4.5h16.5v-4.5ZM323.5,105h-16.5v4.5h16.5v-4.5ZM170,112h-17v4.5h17v-4.5ZM191,112h-17v4.5h17v-4.5ZM211.5,112h-17v4.5h17v-4.5ZM63,113h-16.5v4.5h16.5v-4.5ZM83,113h-16.5v4.5h16.5v-4.5ZM293,113h-16.5v4.5h16.5v-4.5ZM313,113h-16.5v4.5h16.5v-4.5ZM180.5,120.5h-17v4.5h17v-4.5ZM201,120.5h-17v4.5h17v-4.5ZM73,121h-16.5v4.5h16.5v-4.5ZM93.5,121h-16.5v4.5h16.5v-4.5ZM303,121h-16.5v4.5h16.5v-4.5ZM323.5,121h-16.5v4.5h16.5v-4.5ZM191,129h-17v4.5h17v-4.5ZM93.5,137.5h-16.5v4.5h16.5v-4.5ZM323.5,137.5h-16.5v4.5h16.5v-4.5ZM69,148h-16.5v4.5h16.5v-4.5ZM299,148h-16.5v4.5h16.5v-4.5Z"/>
      <path d="M0,158V29h66.5V13h-3.99c-.92-4.36-.33-5.52,4.28-4.03l.22,3.54h4.01s.52,16.47.52,16.47l3.98.03V5.75c0-.16-.69-.71-.5-1.25h4.5s0-4.51,0-4.51h4.51s0,4.01,0,4.01l4.03.22.47,4.28h-4.5s-.56-3.95-.56-3.95l-3.45-.05v24.5h133l1.5-16h-2.5s0,2.5,0,2.5h-3.01s0-3.5,0-3.5l2.99.5.29-2.51h2.72s0,3.01,0,3.01h2.5s-1.5,16-1.5,16c.97-.01,2.55.33,2.93-.82l.57-9.68h3.01s0-2.5,0-2.5l2.93.57-.42,2.71-2.51-.28-1,10h109l-.5-15.5h-2.51s0,2.51,0,2.51h-3.01s0-3.01,0-3.01h3s-.5-2.49-.5-2.49l2.94.05.62,2.38,2.44.06.49,16h2.5v-11h2.5s0-2.5,0-2.5h3.01s-.22,2.54-.22,2.54l-2.28.47v10.5h11v4h-4.5s0,5,0,5h-6.51s0,5,0,5h-18v-5s-6,0-6,0v-5s-7,0-7,0v5h-7.5v-5h-7v5h-12.5v5h-31.5v-5h-12.5v-5h-7v5h-7.5v-5h-7v5s-6,0-6,0v5s-18,0-18,0v-5s-6.5,0-6.5,0v-5s-70,0-70,0v5h-7.5v-5h-7v5h-12.5v5h-18v-10H4v125H0Z"/>
      <polygon points="177 158 177 153.5 193.21 153.49 193.5 158 177 158"/>
      <path d="M62.5,158c.21-.77-.69-1.91.73-2,4.35-.29,10.69-.29,15.03,0,1.42.1.52,1.24.73,2h-16.5Z"/>
      <path d="M292.5,158c.21-.77-.69-1.91.73-2,4.35-.29,10.69-.29,15.03,0,1.42.1.52,1.24.73,2h-16.5Z"/>
      <rect x="194.5" y="112" width="17" height="4.5"/>
      <rect x="174" y="112" width="17" height="4.5"/>
      <rect x="153" y="112" width="17" height="4.5"/>
      <rect x="184" y="104" width="17" height="4.5"/>
      <rect x="163.5" y="104" width="17" height="4.5"/>
      <rect x="163.5" y="120.5" width="17" height="4.5"/>
      <rect x="184" y="120.5" width="17" height="4.5"/>
      <rect x="194.5" y="95.5" width="17" height="4.5"/>
      <rect x="174" y="129" width="17" height="4.5"/>
      <rect x="174" y="95.5" width="17" height="4.5"/>
      <rect x="153" y="95.5" width="17" height="4.5"/>
      <rect x="163.5" y="54.5" width="17" height="4.5"/>
      <rect x="153" y="62.5" width="17" height="4.5"/>
      <rect x="184" y="87.5" width="17" height="4.5"/>
      <rect x="163.5" y="87.5" width="17" height="4.5"/>
      <rect x="163.5" y="71" width="17" height="4.5"/>
      <rect x="184" y="71" width="17" height="4.5"/>
      <rect x="194.5" y="79" width="17" height="4.5"/>
      <rect x="174" y="79" width="17" height="4.5"/>
      <rect x="153" y="79" width="17" height="4.5"/>
      <rect x="307" y="72.5" width="16.5" height="4.5"/>
      <rect x="286.5" y="72.5" width="16.5" height="4.5"/>
      <rect x="266" y="72.5" width="16.5" height="4.5"/>
      <rect x="77" y="72.5" width="16.5" height="4.5"/>
      <rect x="56.5" y="72.5" width="16.5" height="4.5"/>
      <rect x="36" y="72.5" width="16.5" height="4.5"/>
      <rect x="46.5" y="80.5" width="16.5" height="4.5"/>
      <rect x="66.5" y="80.5" width="16.5" height="4.5"/>
      <rect x="276.5" y="80.5" width="16.5" height="4.5"/>
      <rect x="296.5" y="80.5" width="16.5" height="4.5"/>
      <rect x="143" y="71" width="16.5" height="4.5"/>
      <rect x="143" y="87.5" width="16.5" height="4.5"/>
      <rect x="205" y="87.5" width="16.5" height="4.5"/>
      <rect x="56.5" y="88.5" width="16.5" height="4.5"/>
      <rect x="286.5" y="88.5" width="16.5" height="4.5"/>
      <rect x="282.5" y="148" width="16.5" height="4.5"/>
      <rect x="52.5" y="148" width="16.5" height="4.5"/>
      <rect x="307" y="137.5" width="16.5" height="4.5"/>
      <rect x="77" y="137.5" width="16.5" height="4.5"/>
      <rect x="307" y="121" width="16.5" height="4.5"/>
      <rect x="286.5" y="121" width="16.5" height="4.5"/>
      <rect x="77" y="121" width="16.5" height="4.5"/>
      <rect x="56.5" y="121" width="16.5" height="4.5"/>
      <rect x="143" y="54.5" width="16.5" height="4.5"/>
      <rect x="296.5" y="113" width="16.5" height="4.5"/>
      <rect x="276.5" y="113" width="16.5" height="4.5"/>
      <rect x="66.5" y="113" width="16.5" height="4.5"/>
      <rect x="46.5" y="113" width="16.5" height="4.5"/>
      <rect x="307" y="105" width="16.5" height="4.5"/>
      <rect x="286.5" y="105" width="16.5" height="4.5"/>
      <rect x="266" y="105" width="16.5" height="4.5"/>
      <rect x="77" y="105" width="16.5" height="4.5"/>
      <rect x="143" y="104" width="16.5" height="4.5"/>
      <rect x="56.5" y="105" width="16.5" height="4.5"/>
      <rect x="36" y="105" width="16.5" height="4.5"/>
      <rect x="205" y="104" width="16.5" height="4.5"/>
      <path d="M83,64.5v4.5h-15.75c-1.31-1.06-.61-2.99-.75-4.5h16.5Z"/>
      <path d="M63,64.5c-.14,1.51.56,3.44-.75,4.5h-15.75v-4.5h16.5Z"/>
      <path d="M313,64.5v4.5h-15.75c-1.31-1.06-.61-2.99-.75-4.5h16.5Z"/>
      <path d="M293,64.5c-.14,1.51.56,3.44-.75,4.5h-15.75v-4.5h16.5Z"/>
      <rect x="266" y="89" width="16.5" height="4"/>
      <rect x="296.5" y="97" width="16.5" height="4"/>
      <rect x="276.5" y="97" width="16.5" height="4"/>
      <rect x="66.5" y="97" width="16.5" height="4"/>
      <rect x="46.5" y="97" width="16.5" height="4"/>
      <rect x="36" y="89" width="16.5" height="4"/>
      <rect x="77" y="89" width="16.5" height="4"/>
      <rect x="307" y="89" width="16.5" height="4"/>
    </g>
  </g>
</svg>