<?xml version="1.0" encoding="UTF-8"?>
<svg id="Layer_2" data-name="Layer 2" xmlns="http://www.w3.org/2000/svg" viewBox="0 0 354.14 158.02">
  <defs>
    <style>
      .cls-1 {
        fill: #fff;
      }
    </style>
  </defs>
  <g id="Layer_2-2" data-name="Layer 2">
    <g id="Layer_1-2" data-name="Layer 1-2">
      <g>
        <path class="cls-1" d="M350.09,158.01V33.01h-66.78v10h-18.21v-5h-12.65v-5h-7.08v5h-7.59v-5h-70.83v5h-6.58v5h-18.21v-5h-6.07v-5h-7.08v5h-7.59v-5h-7.08v5h-12.65v5h-31.87v-5h-12.65v-5h-7.08v5h-7.59v-5h-7.08v5h-6.07v5H11.13v-5h-6.58v-5.01H0v125h41.48c.21-.77-.7-1.91.74-2,4.4-.29,10.82-.29,15.21,0,1.44.1.53,1.24.74,2h100.17l.29-4.51h16.4v4.51h99.16c.21-.77-.7-1.91.74-2,4.4-.29,10.82-.29,15.21,0,1.44.1.53,1.24.74,2h59.21ZM192.75,54.51h16.7v4.5h-16.7v-4.5ZM171.5,54.51h17.2v4.5h-17.2v-4.5ZM182.13,62.51h17.2v4.5h-17.2v-4.5ZM290.39,64.51h16.7v4.5h-15.94c-1.33-1.06-.62-2.99-.76-4.5ZM270.16,64.51h16.7c-.14,1.51.57,3.44-.76,4.5h-15.94v-4.5ZM57.67,64.51h16.7v4.5h-15.94c-1.33-1.06-.62-2.99-.76-4.5ZM37.44,64.51h16.7c-.14,1.51.57,3.44-.76,4.5h-15.94v-4.5ZM192.75,71.01h16.7v4.5h-16.7v-4.5ZM171.5,71.01h17.2v4.5h-17.2v-4.5ZM150.76,71.01h17.2v4.5h-17.2v-4.5ZM301.02,72.51h16.7v4.5h-16.7v-4.5ZM280.27,72.51h16.7v4.5h-16.7v-4.5ZM259.53,72.51h16.7v4.5h-16.7v-4.5ZM68.3,72.51h16.7v4.5h-16.7v-4.5ZM47.56,72.51h16.7v4.5h-16.7v-4.5ZM26.81,72.51h16.7v4.5h-16.7v-4.5ZM182.13,79.01h17.2v4.5h-17.2v-4.5ZM160.88,79.01h17.2v4.5h-17.2v-4.5ZM140.14,79.01h17.2v4.5h-17.2v-4.5ZM290.39,80.51h16.7v4.5h-16.7v-4.5ZM270.16,80.51h16.7v4.5h-16.7v-4.5ZM57.67,80.51h16.7v4.5h-16.7v-4.5ZM37.44,80.51h16.7v4.5h-16.7v-4.5ZM192.75,87.51h16.7v4.5h-16.7v-4.5ZM171.5,87.51h17.2v4.5h-17.2v-4.5ZM150.76,87.51h17.2v4.5h-17.2v-4.5ZM130.02,87.51h16.7v4.5h-16.7v-4.5ZM280.27,88.51h16.7v4.5h-16.7v-4.5ZM47.56,88.51h16.7v4.5h-16.7v-4.5ZM301.02,89.01h16.7v4h-16.7v-4ZM259.53,89.01h16.7v4h-16.7v-4ZM68.3,89.01h16.7v4h-16.7v-4ZM26.81,89.01h16.7v4h-16.7v-4ZM182.13,95.51h17.2v4.5h-17.2v-4.5ZM160.88,95.51h17.2v4.5h-17.2v-4.5ZM140.14,95.51h17.2v4.5h-17.2v-4.5ZM290.39,97.01h16.7v4h-16.7v-4ZM270.16,97.01h16.7v4h-16.7v-4ZM57.67,97.01h16.7v4h-16.7v-4ZM37.44,97.01h16.7v4h-16.7v-4ZM192.75,104.01h16.7v4.5h-16.7v-4.5ZM171.5,104.01h17.2v4.5h-17.2v-4.5ZM150.76,104.01h17.2v4.5h-17.2v-4.5ZM130.02,104.01h16.7v4.5h-16.7v-4.5ZM301.02,105.01h16.7v4.5h-16.7v-4.5ZM280.27,105.01h16.7v4.5h-16.7v-4.5ZM259.53,105.01h16.7v4.5h-16.7v-4.5ZM68.3,105.01h16.7v4.5h-16.7v-4.5ZM47.56,105.01h16.7v4.5h-16.7v-4.5ZM26.81,105.01h16.7v4.5h-16.7v-4.5ZM182.13,112.01h17.2v4.5h-17.2v-4.5ZM160.88,112.01h17.2v4.5h-17.2v-4.5ZM140.14,112.01h17.2v4.5h-17.2v-4.5ZM290.39,113.01h16.7v4.5h-16.7v-4.5ZM270.16,113.01h16.7v4.5h-16.7v-4.5ZM57.67,113.01h16.7v4.5h-16.7v-4.5ZM37.44,113.01h16.7v4.5h-16.7v-4.5ZM171.5,120.51h17.2v4.5h-17.2v-4.5ZM150.76,120.51h17.2v4.5h-17.2v-4.5ZM280.27,121.01h16.7v4.5h-16.7v-4.5ZM259.53,121.01h16.7v4.5h-16.7v-4.5ZM47.56,121.01h16.7v4.5h-16.7v-4.5ZM26.81,121.01h16.7v4.5h-16.7v-4.5ZM160.88,129.01h17.2v4.5h-17.2v-4.5ZM259.53,137.51h16.7v4.5h-16.7v-4.5ZM26.81,137.51h16.7v4.5h-16.7v-4.5ZM284.32,148.01h16.7v4.5h-16.7v-4.5ZM51.6,148.01h16.7v4.5h-16.7v-4.5Z"/>
        <path d="M354.14,158.01V29.01h-67.29V13.01h4.04c.93-4.36.33-5.52-4.33-4.03l-.22,3.54h-4.06l-.53,16.47-4.03.03V5.76c0-.16.7-.71.51-1.25h-4.55V0h-4.56v4.01l-4.08.22-.48,4.28h4.55l.57-3.95,3.49-.05v24.5h-134.57l-1.52-16h2.53v2.5h3.05v-3.5l-3.03.5-.29-2.51h-2.75v3.01h-2.53l1.52,16c-.98-.01-2.58.33-2.96-.82l-.58-9.68h-3.05v-2.5l-2.96.57.42,2.71,2.54-.28,1.01,10H19.71l.51-15.5h2.54v2.51h3.05v-3.01h-3.04l.51-2.49-2.97.05-.63,2.38-2.47.06-.5,16h-2.53v-11h-2.53v-2.5h-3.05l.22,2.54,2.31.47v10.5H0v4h4.55v5h6.59v5h18.21v-5h6.07v-5h7.08v5h7.59v-5h7.08v5h12.65v5h31.87v-5h12.65v-5h7.08v5h7.59v-5h7.08v5h6.07v5h18.21v-5h6.58v-5h70.83v5h7.59v-5h7.08v5h12.65v5h18.21v-10h66.77v125h4.05Z"/>
        <polygon points="175.04 158.01 175.04 153.51 158.64 153.5 158.35 158.01 175.04 158.01"/>
        <path d="M290.9,158.01c-.21-.77.7-1.91-.74-2-4.4-.29-10.82-.29-15.21,0-1.44.1-.53,1.24-.74,2h16.7-.01Z"/>
        <path d="M58.18,158.01c-.21-.77.7-1.91-.74-2-4.4-.29-10.82-.29-15.21,0-1.44.1-.53,1.24-.74,2h16.7-.01Z"/>
        <rect x="140.14" y="112.01" width="17.2" height="4.5"/>
        <rect x="160.88" y="112.01" width="17.2" height="4.5"/>
        <rect x="182.13" y="112.01" width="17.2" height="4.5"/>
        <rect x="150.76" y="104.01" width="17.2" height="4.5"/>
        <rect x="171.5" y="104.01" width="17.2" height="4.5"/>
        <rect x="171.5" y="120.51" width="17.2" height="4.5"/>
        <rect x="150.76" y="120.51" width="17.2" height="4.5"/>
        <rect x="140.14" y="95.51" width="17.2" height="4.5"/>
        <rect x="160.88" y="129.01" width="17.2" height="4.5"/>
        <rect x="160.88" y="95.51" width="17.2" height="4.5"/>
        <rect x="182.13" y="95.51" width="17.2" height="4.5"/>
        <rect x="171.5" y="54.51" width="17.2" height="4.5"/>
        <rect x="182.13" y="62.51" width="17.2" height="4.5"/>
        <rect x="150.76" y="87.51" width="17.2" height="4.5"/>
        <rect x="171.5" y="87.51" width="17.2" height="4.5"/>
        <rect x="171.5" y="71.01" width="17.2" height="4.5"/>
        <rect x="150.76" y="71.01" width="17.2" height="4.5"/>
        <rect x="140.14" y="79.01" width="17.2" height="4.5"/>
        <rect x="160.88" y="79.01" width="17.2" height="4.5"/>
        <rect x="182.13" y="79.01" width="17.2" height="4.5"/>
        <rect x="26.81" y="72.51" width="16.7" height="4.5"/>
        <rect x="47.56" y="72.51" width="16.7" height="4.5"/>
        <rect x="68.3" y="72.51" width="16.7" height="4.5"/>
        <rect x="259.53" y="72.51" width="16.7" height="4.5"/>
        <rect x="280.27" y="72.51" width="16.7" height="4.5"/>
        <rect x="301.02" y="72.51" width="16.7" height="4.5"/>
        <rect x="290.39" y="80.51" width="16.7" height="4.5"/>
        <rect x="270.16" y="80.51" width="16.7" height="4.5"/>
        <rect x="57.67" y="80.51" width="16.7" height="4.5"/>
        <rect x="37.44" y="80.51" width="16.7" height="4.5"/>
        <rect x="192.75" y="71.01" width="16.7" height="4.5"/>
        <rect x="192.75" y="87.51" width="16.7" height="4.5"/>
        <rect x="130.02" y="87.51" width="16.7" height="4.5"/>
        <rect x="280.27" y="88.51" width="16.7" height="4.5"/>
        <rect x="47.56" y="88.51" width="16.7" height="4.5"/>
        <rect x="51.6" y="148.01" width="16.7" height="4.5"/>
        <rect x="284.32" y="148.01" width="16.7" height="4.5"/>
        <rect x="26.81" y="137.51" width="16.7" height="4.5"/>
        <rect x="259.53" y="137.51" width="16.7" height="4.5"/>
        <rect x="26.81" y="121.01" width="16.7" height="4.5"/>
        <rect x="47.56" y="121.01" width="16.7" height="4.5"/>
        <rect x="259.53" y="121.01" width="16.7" height="4.5"/>
        <rect x="280.27" y="121.01" width="16.7" height="4.5"/>
        <rect x="192.75" y="54.51" width="16.7" height="4.5"/>
        <rect x="37.44" y="113.01" width="16.7" height="4.5"/>
        <rect x="57.67" y="113.01" width="16.7" height="4.5"/>
        <rect x="270.16" y="113.01" width="16.7" height="4.5"/>
        <rect x="290.39" y="113.01" width="16.7" height="4.5"/>
        <rect x="26.81" y="105.01" width="16.7" height="4.5"/>
        <rect x="47.56" y="105.01" width="16.7" height="4.5"/>
        <rect x="68.3" y="105.01" width="16.7" height="4.5"/>
        <rect x="259.53" y="105.01" width="16.7" height="4.5"/>
        <rect x="192.75" y="104.01" width="16.7" height="4.5"/>
        <rect x="280.27" y="105.01" width="16.7" height="4.5"/>
        <rect x="301.02" y="105.01" width="16.7" height="4.5"/>
        <rect x="130.02" y="104.01" width="16.7" height="4.5"/>
        <path d="M270.16,64.51v4.5h15.94c1.33-1.06.62-2.99.76-4.5h-16.7Z"/>
        <path d="M290.39,64.51c.14,1.51-.57,3.44.76,4.5h15.94v-4.5h-16.7Z"/>
        <path d="M37.44,64.51v4.5h15.94c1.33-1.06.62-2.99.76-4.5h-16.7Z"/>
        <path d="M57.67,64.51c.14,1.51-.57,3.44.76,4.5h15.94v-4.5h-16.7Z"/>
        <rect x="68.3" y="89.01" width="16.7" height="4"/>
        <rect x="37.44" y="97.01" width="16.7" height="4"/>
        <rect x="57.67" y="97.01" width="16.7" height="4"/>
        <rect x="270.16" y="97.01" width="16.7" height="4"/>
        <rect x="290.39" y="97.01" width="16.7" height="4"/>
        <rect x="301.02" y="89.01" width="16.7" height="4"/>
        <rect x="259.53" y="89.01" width="16.7" height="4"/>
        <rect x="26.81" y="89.01" width="16.7" height="4"/>
      </g>
    </g>
  </g>
</svg>