<?xml version="1.0" encoding="UTF-8"?>
<svg id="Layer_2" data-name="Layer 2" xmlns="http://www.w3.org/2000/svg" viewBox="0 0 246.01 287">
  <defs>
    <style>
      .cls-1 {
        fill: #fff;
      }
    </style>
  </defs>
  <g id="Layer_2-2" data-name="Layer 2">
    <path d="M22,244c2.17.06,4.43,1.31,6.45,1.03,2.51-.34,3.81-4.17,3.56-.04h.99s0-19.99,0-19.99l-6.51,1.03-2.49-1.53v-26c-2.38-2.74-6.71-1.13-10-1.5v-23l10.86.14c1.04,2.45,1.65,5.72,1.13,8.34-.46,2.3-2.78,2.97-3,5.03-.13,1.16,1.17,6.13,1.78,7.23,2.23,4.02,7.23,1.75,11.24,2.26.39,6.13-.67,15.6,1.14,21.36.79,2.52,4.71,1.52,6.86,1.64.15,12.16-.21,24.37-.05,36.54.05,4.15,1.98,5.9-.04,10.69-.29.7-1.72.75-1.88,1.48-.54,2.42.28,5.71-.04,8.3,10.49-.12,23.23,2.43,33.57,1.07,1.85-.24,1.28-1.85,2.12-2.05,8.27-1.96,18.74-.49,27.26-1.08l1.05-6.94-23.56-1.94-.44-11.07h10.01s0-22.99,0-22.99c-4.88.08-9.91,1.4-14.57-.93l-.44-11.07,15.57,1.94.43,10.07,10.03-.58,1.98,26.58,11.95-3.04.04-57.96,10.9.11.1,77.9c11.68.54,23.27,1.84,34.91-.11l1.1-20.9c-2.72-.5-10.87,1.42-11.87-1.63.7-12.08-1.4-26.1-.21-37.93.17-1.69,1.58-6.71,2.72-7.51,2.1-1.47,9.35-2.03,9.35,1.58v21.5c2.42.76,10.1,2.16,11.56.07l.43-33.07,10.36.15,1.5,1.5c-.2,8.81,2.72,20.26,1.09,28.82-.83,4.39-6.29,8.06-.75,14.32,11.13-.66,11.53,1.76,10.78,12.22,11.8,1.67,22.21,2.23,34.01,0v-22c-13.65-1.55-24.26,9.8-21.99-12h-10.01c-1.88-10.31-2.33-20.69-2.14-31.36l-1.5-1.5-7.36-.15c1.37-3.2-1.87-4.22-1.98-4.69-.51-2.12.27-5.03-.02-7.31l-24-1-1.02-9.98-11.99-1.02v-10c-3.51,1.33-6.27-1.62-8.56-1.94-3.37-.48-10.45-.96-13.99-1.07-3.85-.11-6.93,1.54-10.53.59l-.93-8.58-10.77-1.23-1.24-12.77c-3.83,1.65-8.44-.18-11.99-2v26l-12-1v46l-12.89.11c-2.71,7.67.23,15.06-.22,22.78-1.34,1.58-18.95,1.82-21.9-.38-1.61-1.37-1.55-10.03-.05-11.07l11.07-.43v-21.01c9.89.97,11.29-1.18,12.03-10.46.67-8.37-.21-17.21-.61-25.57l11.58-.97v-47c-3.95.44-8.78-.57-12.57-.08-1.85.24-1.31,1.87-2.12,2.06-2.62.61-6.48-.37-9.32.03l-.99-21.01c-2.04-.08-11.51.66-12.05-1.66.1-6.29,0-12.58,0-18.88,0-2.38,1.1-4.58,1.12-6.96.11-10.28-7.05-23.56,9.91-22.51v-13s9.07-.43,9.07-.43l1.05-9.45c6.51-1.88,13.16.6,19.9-.57V0s104.49,0,104.49,0c2.8,1.25.87,8.38,1.5,9,2,.23,4.43-.43,6.32.02.76.18.62,1.79,1.37,1.96,2.5.57,5.72-.75,8.32.51,3.33,1.62,1.63,8.38,1.99,11.51l9.57.93c1.95,2.79-2.88,14.33,6.82,10.92,1.3-.46,1.84-4.51,4.56-2.81,3.1,1.94-.97,31.7.05,36.96l17.01-1.01-1.01,46h-12c.58-9.1,1.91-19.43,1.06-28.54-.12-1.32.01-2.65-1.51-3.2l-8.44.85c-2.2,5.67.66,10.96-.1,16.9h-12.01s.01,5,.01,5l-12.91-.11-3.31-10.68-8.78-.23c-1.92-9.39-.45-13.6,9.99-12.98v-11.5s-8.96,1.44-8.96,1.44c-2.85-12.14,1.13-23.56-.06-35.95l5.91-.09.1-13.91-6.57-.93-1.37-8.63-72.07-.44v12.01c-.62.63-7.74-1.31-8.99,1.5v24.5h9.99s.95-14.56.95-14.56l25.06.55-7.99-1c.29-1.76,5.19-1.11,6.54-1.04,1.93.1,9.17.8,10.02,1.98l1.37,13.63,9.07.43.04,30.34c-.48,2.08-6.69,1.12-8.11,2.1-2.12,1.47.4,10.55-6.69,12.31-6.67,1.66-20.86.28-28.31.81l-1.88-10.19-9.04-1.39c.77-10.33.16-13.27-11-11.97-1.52,10.63-2.56,21.2-2.02,31.99l12.07.43.93,11.57,8.96.05,1.05,10.95h17v-22c10.87-1.44,11.7,2.02,11,12,5.54,1.13,11.36-2.1,16.51-2.08,5.76.02,11.09.17,16.95.03,18.81-.45,37.84-.18,56.54,1.05l-1,10.99h-20c-2.07,11.91-2.28,23.92-1.99,36l-10.89,1.1,1.03,9.75,9.69,2.3,1.16,22.84,11.54-.05.51,21.99,9.96.05v8.01s11-.01,11-.01l1,27.01h-12.01s0,11.99,0,11.99h-43.5c-3.07-1.56-.65-11.16-1.49-12.01h-8s.99,3,.99,3l-3,.52c.83,3.84,1.52,8.08,1.03,12.01-.44,3.52-2.53,4.61-2.98,7.01-.54,2.87.27,6.46-.04,9.46H33v-32h-11.01c-.04-3.65.07-7.34,0-11-3.65-.1-7.35.07-11.01,0l-.1-10.9-9.9-1.1-1-35.01,11.32-.03c.66.2,1.69,2.26,1.69,2.54v32.5h9.01c.05,3.98-.08,8.01,0,12ZM135,48.5v15.5l8.86-.14,1.15-15.86c-1.74.76-9.39-1.96-10,.5Z"/>
    <polygon points="66.87 246.14 67.01 256 54.01 254.99 54.01 244 66.87 246.14"/>
    <path d="M92,176l1.24-10.76c1.3-1.5,9.12-2.03,10.32-.31l-.03,9.1c-3.38,2.37-7.64,2.03-11.54,1.97Z"/>
    <path class="cls-1" d="M135,48.5c.61-2.46,8.27.26,10-.5l-1.15,15.86-8.86.14v-15.5Z"/>
  </g>
</svg>