<?xml version="1.0" encoding="UTF-8"?>
<svg id="Layer_2" data-name="Layer 2" xmlns="http://www.w3.org/2000/svg" viewBox="0 0 378 719">
  <defs>
    <style>
      .cls-1 {
        fill: #74ddf1;
      }

      .cls-2 {
        fill: #62dbf0;
      }

      .cls-3 {
        fill: #79def1;
      }

      .cls-4 {
        fill: #82e0f2;
      }

      .cls-5 {
        fill: #7bdff2;
      }

      .cls-6 {
        fill: #67dbf0;
      }

      .cls-7 {
        fill: #0fc6e7;
      }

      .cls-8 {
        fill: #26cce9;
      }

      .cls-9 {
        fill: #31cfea;
      }

      .cls-10 {
        fill: #6edcf0;
      }

      .cls-11 {
        fill: #1bc9e8;
      }

      .cls-12 {
        fill: #7ddff1;
      }

      .cls-13 {
        fill: #07c3e6;
      }

      .cls-14 {
        fill: #6bdcf0;
      }

      .cls-15 {
        fill: #78def2;
      }

      .cls-16 {
        fill: #37d2ec;
      }

      .cls-17 {
        fill: #14c8e8;
      }

      .cls-18 {
        fill: #56d7ee;
      }

      .cls-19 {
        fill: #77def1;
      }

      .cls-20 {
        fill: #4bd5ed;
      }

      .cls-21 {
        fill: #0bc5e7;
      }

      .cls-22 {
        fill: #7bdef1;
      }

      .cls-23 {
        fill: #44d3ec;
      }

      .cls-24 {
        fill: #80e0f2;
      }

      .cls-25 {
        fill: #7ee0f3;
      }

      .cls-26 {
        fill: #72ddf0;
      }

      .cls-27 {
        fill: #75ddf1;
      }

      .cls-28 {
        fill: #3dd1eb;
      }

      .cls-29 {
        fill: #1fcae9;
      }

      .cls-30 {
        fill: #fdfdfd;
      }
    </style>
  </defs>
  <g id="Layer_2-2" data-name="Layer 2">
    <g>
      <path class="cls-30" d="M378,0v719H0V0h378ZM136,85h-19v15h19v-15ZM169,85h-20v15h20v-15ZM181,85l-1,15.01c1,.04,2-.04,3,0,4.98.14,10.02-.1,15,0v-15h-17ZM230,85h-18v15h18v-15ZM108,101h-18v21h18v-21ZM238,104c-1.43,3.59-1.12,6.14-1,10,.09,2.66.49,5.39,1,8h16v-20l-15.37-.04c-1.23.24-.43,1.53-.63,2.04ZM107,139c-.09-2.32.07-4.68,0-7.01h-15.01v19.01h16c.92-1.88-.99-3.79-1-4-.15-2.73.1-5.31,0-8ZM253,132h-15v19h16c.27-.73-1-1.2-1-1.5v-17.5ZM95,162l-1.01,19.01,13.49,1.01.52-20.02c-1.99-.02-4.01.03-6.01,0-2.33-.03-4.67.02-7,0ZM237,176c.15,2.13.85,2.45,1,3,.09.33-.11.74,0,1,.18.43-.14,1.38,0,2l15.54.06-.53-19.06-16.01-1.01c.24,4.63-.32,9.39,0,14.01ZM108,194l-15-1v22l15-1v-20ZM254,193h-17l-1,23h18v-23ZM132,223h-18v15h18v-15ZM160,224c-6.06-2.29-13.59-.4-20-1v15h19l.99-.5v-13.5ZM186,223h-16v16h16v-16ZM197,224l-.99-1v16s14.49,0,14.49,0c3.14-3.89.8-10.56,1.51-15.45.1-.9-1.41-.66-2.01-.55-4.33.75-8.43,1.52-13,1ZM235,239c1.33-.08,2.68.07,4,0v-16.01h-18v16.01c.99.04,2-.03,3,0,3.53.1,7.51.21,11,0ZM168,258c-4.06.7-16.61-1.41-19,1-2.26,2.28-.43,9.54-1,13h47v-14c-1.27-.45-1.89.98-2,1-3.67.52-8.1-.76-12-1l-1-9,.98-.49c-.17-.6-.55-.43-.98-.51-3.51-.6-8.3.43-12.01,0v10.01ZM66,272c1.99.05,4.01-.07,6,0s4.03.1,6,0c.66-.03,1.34.05,2,0v-15.01c-3.53.76-6.85-.7-10-1-1.64-.15-3.36.09-5.01,0l1.01,16.01ZM94,257l-1.01,15.01h15c.66-1.51-.95-2.66-.99-3.01-.46-3.88,0-8.21,1-11.99h-14ZM120,258v14h16v-14c-.11-1.38-1.47-.92-2.45-1.04-2.2-.27-13.07-.42-13.55,1.04ZM211,257l-1.01,17.01h5.43c.85-.11,1.29-15.36-.43-17.01h-4ZM251,258l-14,1c-.04,1.33.06,2.67,0,4-.14,2.98.09,6.02,0,9.01.66.05,1.33-.04,2,0,5.24.26,9.87-.51,14.99-1.01v-13.99c-1.72-.73-2.53.84-2.99.99ZM267,257c-.66.03-1.34-.05-2,0v15.01s18,0,18,0c.06-1.66-.08-3.34,0-5.01.15-3.31-.11-6.69,0-10.01-3.65.07-7.35-.09-11.01,0-1.66.04-3.34-.09-5,0ZM48,275v15l13,1v-17l-13,1ZM305,275l-14-1v14.5c0,.36,1.02,1.62,1.17,2.34l11.21.2c1.23-.24.43-1.54.63-2.04,1.84-4.61.75-9.05,1-14ZM84,296c-.03-1,.04-2.01,0-3h-14.01v14l14-1c-.07-3.32.1-6.68,0-10ZM93,294v13.01s14-1.01,14-1.01v-13.01c-.99-.04-2,.03-3,0-3.32-.1-6.68.07-10,0l-1,1ZM253,293h-15v14h15v-14ZM263,294v13h15v-13c-.53-1.61-14.48-1.61-15,0ZM50,304c-.11-.01-.74-1.44-1.99-1v19s12.42.01,12.42.01l.57-19.01c-1.25-.44-1.88.98-1.99,1-2.11.28-6.89.28-9,0ZM292,303v18h13.01s.55-17.07.55-17.07l-13.56-.93ZM107,319h-13v16.5c2.72,2.39,10.17,2.43,13,0v-16.5ZM240,319c-3.03-.56-1.92,1.53-2,3.45-.18,4.5.13,9.06,0,13.55l14.01-1.01v-16.01s-12,0-12,0ZM305,335l-14-1v18h14v-17ZM62,336c-4.64-1.93-9.05.77-14,0v15h14v-15ZM249,350c-3.65-.11-7.35.08-11,0v17h13c1.4.24.95-1.65,1.01-2.49.36-4.76-.29-9.75-.01-14.52-1-.04-2,.04-3,0ZM94,367h14.01s0-15,0-15l-15.01-1.01c.59,5.06-1.27,11.35,1.01,16.01ZM62,365h-14v16h14v-16ZM292,368c-.13,4.32.08,8.69,0,13.01.66.05,1.33-.04,2,0,2.25.11,9.74.44,11.04-.45,2.49-1.71-.02-4.05-.04-4.55-.15-3.65.11-7.36,0-11.01h-13.01c-.04,1,.04,2,0,3.01ZM115,376v-8h-15v9.01s12.01-.01,12.01-.01c.07,2.32-.1,4.68,0,7.01.1,2.65-.08,5.35,0,8.01h17.01v-16.01c-4.3-.19-8.71.27-13,0-.33-.02-.68.05-1,0ZM139,378c-.18,3.79-.18,8.21,0,12,.03.66-.05,1.34,0,2l16.06-.49.95-1.51v-12c-1.05-3.43-13.66-1.53-17.01-2-.05.66.04,1.33,0,2ZM166,384c0,2.66,0,5.35,0,8.01h21.01s0-16.01,0-16.01c-.66-.05-1.33.04-2,0-6.29-.31-12.7.23-19.01,0,0,2.66,0,5.34,0,8.01ZM196,377v15h15l-1-16-14,1ZM221,390c.03.66-.05,1.34,0,2h17.01s0-16,0-16c-.66-.05-1.33.04-2,0-4.97-.24-10.03.18-15.01,0,.17,4.64-.22,9.37,0,14.01ZM43,380l-14-2v16l14-1v-13ZM73,379c-2.09.29-4.77-.07-7,0-1,.03-2.01-.04-3,0v15.01s11.43.01,11.43.01l.57-16.01c-1.25-.44-1.88.98-1.99,1ZM276,378c-3.03-.56-1.92,1.53-2,3.45-.16,4.17.12,8.38,0,12.55h16c-1.48-5.2-1.51-10.77,0-15.99-.65-.06-1.34.06-1.99,0-3.81-.38-8.11.27-12,0ZM322,378h-13v16h13v-16ZM167,412c-.29.25-.76.72-1,1h-11v15c5.8,1.02,12.08-1.11,17.5-1.09,2.32,0,4.56,1.08,6.96,1.13,5.51.1,11.05-.15,16.54-.04v-15h-15v-10.01s-13.49-1.01-13.49-1.01l-.51,10.01ZM293,406c-1.62,4.07-1.23,10.37-1,15,.03.66-.05,1.34,0,2h13.01s0-19,0-19l-11.37-.04c-1.23.24-.43,1.54-.63,2.04ZM48.14,405.14l-.71,15.92,11.63.5.5-15.63-11.42-.8ZM113,424v4c-4.12.04-9.66-.87-13,1v13l14.01,1.01v-15.01c3.74-.02,8.35.15,12.58.04,1.4-.04,2.03-.96,2.41-1.04.32-.07.68.05,1,0-.09,10.65.12,21.35,0,32-10.32.05-20.69-.03-31.01,0v15.01c1,.04,2-.04,3.01,0,7.21.21,19.32.94,26,0,.33-.05.67.03,1,0l.89-.58c.31-2.14.04-4.29.11-6.42.07-2.33-.03-4.67,0-7,0-.33,0-.67,0-1,6.99-.03,14.02.02,21.01,0v-9.01s-11.01,0-11.01,0c.6-11.07,1.53-24.06,1-35-.03-.66.05-1.34,0-2h-28.01c0,3.65,0,7.34,0,11ZM209,432c.16,5.98-.12,12.02,0,18.01h-13.01s0,9,0,9l21.56.02,1.45-1.03c.19-8.97-.26-18.03,0-27,.03-1-.04-2.01,0-3h17.01s0-15,0-15h-28c-.53,6.4.83,12.64,1,19ZM249,430c-.03-.66.05-1.34,0-2l-10.34-.04c-2.58.6-1.43,12.57-1.67,15.05,3.17-.49,8.83,1.17,11.01-1.01,1.69-1.69,1.14-9.05,1-12ZM49,435l-1.01,15.01,13.01-1.01v-14.01s-12,0-12,0ZM292,449c1.48,1.55,2.31.86,4,1,1.25.1,2.73.07,4,0,1.66-.09,3.35.08,5.01,0v-15.01s-13.01,0-13.01,0l-1.03,1.45c.59,3.33-1.23,10.18,1.03,12.55ZM185,450h-24v9h24v-9ZM268,459v1c-3.37-.47-1.5,1.17-1.61,2.84-.3,4.23-.75,7.88.72,12.05l9.89.11,1.01-18.01c-3.24.49-8.08-.67-11.01,0-.32.07-1.03-.08-.98.49l1.98,1.51ZM238,459c-.66-.06-1.34.04-2,0-.33-.02-.67.02-1,0-4.97-.23-10.03.17-15.01,0,.61,3.58-1.29,11.7,1.01,14.01.98.98,1.01.9,2.4,1.05,4.86.55,17.32.56,22.15,0,1.46-.17,2.57-.12,3.45-1.55v-14.5l-11,1ZM40,461c-.03-.66.05-1.34,0-2h-14.01s0,17,0,17h14.01c.05-.66-.04-1.34,0-2,.2-4.1.2-8.9,0-13ZM70,461c-1.84,4.61-.75,9.06-1.01,14.01h13.01c.04-1-.04-2,0-3.01.13-4.32-.09-8.69,0-13.01l-11.38-.04c-1.23.24-.43,1.54-.63,2.04ZM330,459h-14v17h14v-17ZM81,496c1.76-1.44,1.45-8.6.06-9.56l-13.07-.44v17.01c1,.04,2-.04,3.01,0,2.25.07,10.74.69,10.97-1.51.02-.18-.97-.37-.97-.49,0-.33.02-.67,0-1-.07-1.31.16-2.74,0-4ZM99,501c2.23,2.22,8.67.48,12,1l.49.98.51-.98c.02-.33-.03-.67,0-1s-.01-.67,0-1c.15-4.31-.1-8.68,0-13-.11-1.26-1.12-.92-2-1-1.82-.17-4.13-.08-6,0-1.99.08-4.01-.07-6.01,0,.64,3.61-1.32,12.69,1.01,15.01ZM238,486l-1,17h16v-17.01c-.66-.05-1.34.04-2,0-4.3-.21-8.69.15-13,0ZM277,486h-14v16c4.51,1.54,9.31.92,14,1v-17ZM27,487c-.66.03-1.34-.05-2,0v15.01s12-1.01,12-1.01l-.44-13.06c-1.04-1.49-7.38-1.04-9.56-.94ZM319,487c-.66.03-1.34-.05-2,0v16.01s12.42.01,12.42.01l.57-16.02c-.66-.05-1.33.04-2,0-2.89-.14-6.11-.14-9,0ZM44,504c-.13.13-1.35-.29-1.76.19-.69.79-.11,10.09.76,10.81,3.06,2.53,16.34.19,21,1v-14c-5.25.91-14.73-1.24-19.34-.02-1.11.29-.54,1.89-.66,2.02ZM289,502l-1,14h19l-1-14h-17ZM98,517c-.24,4.97.17,10.03,0,15.01.66.05,1.33-.04,2,0,2.3.11,9.51.57,10.56-.94.76-3.54.54-7.45.44-11.06l1-5h-14.01c-.05.66.04,1.33,0,2ZM238,517c.58,4.28-.42,9.57,0,14l-1,.99,15,.02-1-17.01h-14c-.44,1.26.98,1.89,1,2.01ZM111,547c-4.55-1.14-8.24-1.25-12.99-.99-1.05,2.78,1.86,1.79,1.99,1.99.29.44-.06,6.42,0,8-3.93-.59-1.29,6.17-2,8l6-1c2.39.6,5.56.12,7.99,1-1.49-6.19-.6-11.32.02-17.5-.27-1.44-.95.51-1,.5ZM251,546h-14v16.5c3.46,3.06,9.56.88,14,1.5v-18ZM99,579v14l13,1v-16l-13,1ZM251,578h-14v17h14v-17ZM112,607h-13v17h13v-17ZM251,607h-15v17h15v-17ZM99,633c-.2-.51.6-1.8-.63-2.04l-18.38.04v11.43s18.38.62,18.38.62c1.23-.24.42-1.54.63-2.04,1.52-3.81,1.51-4.23,0-8ZM273,631h-23v12h23v-12ZM58,640v15h13.01s-.44-14.06-.44-14.06l-12.56-.94ZM130,640h-14l1.01,14.99h12.99s0-14.99,0-14.99ZM233,641h-13l-1,1c-.05.66.07,1.35,0,2-.22,2.02-.12,4.91,0,7,.04.66-.04,1.34,0,2s-.06,1.34,0,2h15.01s0-14.49,0-14.49l-1,.5ZM292,642c.02-.11,1.44-.74,1-1.99h-13s0,14.99,0,14.99h13c.44-1.26-.98-1.89-1-2-.34-2.49-.34-8.51,0-11ZM59,679l15,1v-14h-14l-1,13ZM102,666h-15v14h15v-14ZM131,666h-14v14h14v-14ZM219,668c.31,2.3.31,7.7,0,10-.01.11-1.44.74-1,1.99h16s0-13.99,0-13.99h-16c-.44,1.26.98,1.89,1,2ZM265,666h-17v14h17v-14ZM277,668c.31,2.3.31,7.7,0,10-.01.11-1.44.74-1,1.99h15s0-13.99,0-13.99h-15c-.44,1.26.98,1.89,1,2Z"/>
      <path class="cls-25" d="M167,412c.21-.19,1.85.58,2.04-.63l-.05-7.38h11.01s.93,9.57.93,9.57l13.07.43v12.01h-36.51c-2.93-2.9-.98-8.14-1.5-12l9.41,1.08c1.23-.07.35-1.79.6-2.08s.71-.75,1-1Z"/>
      <path class="cls-3" d="M130,460c-.03,2.33.07,4.67,0,7l-1,5h-27c-4.11.15-1.15-8.72-2.01-12.01h30.01Z"/>
      <path class="cls-25" d="M169,256c0,.39.35,4.79.42,5.05.58,2.13,3.88,4.29,2.58,7.95,5.85-.57,12.88.75,18.56.08,2.02-.24,1.15-2.6,3.44-2.08-.03,1.33.04,2.68,0,4h-45.01s0-12,0-12c2.39-2.41,14.94-.3,19-1l.99,1v-3Z"/>
      <path class="cls-2" d="M141,415c.53,10.94-.4,23.93-1,35-.02.33.03.67,0,1-.17,2.13-1.57,4.55-1,7-1-.02-2.01.05-3,0l-.55-2.01-3.45.02v2s-1.02-1.45-1.02-1.45c-.53-8.78.79-18.42.05-27.08-.09-1.04.45-2.43-1.02-2.47-.32.05-.68-.07-1,0,2.99-2.35,6.14-3.55,10.01-2.99v-9.01c.65.05,1.33-.03,1.99,0Z"/>
      <path class="cls-15" d="M170,250h9.01s0,8.01,0,8.01c.66.05,1.34-.05,2,0,3.9.24,8.33,1.52,12,1,.54.92.88,1.93,1,3l-2.01.51v2.49s2.01,0,2.01,0c.02.66.02,1.34,0,2-2.29-.52-1.42,1.84-3.44,2.08-5.67.67-12.7-.65-18.56-.08,1.3-3.66-2.01-5.82-2.58-7.95-.07-.25-.41-4.66-.42-5.05-.04-1.66.03-3.34,0-5l1-1Z"/>
      <path class="cls-22" d="M139,415v9.01c-3.86-.56-7.01.64-10,2.99-.38.08-1.01,1.01-2.41,1.04-4.24.11-8.84-.07-12.59-.04-.33,0-.67,0-1,0v-4c3.05.56,1.89-1.53,2-3.45.12-2.17-.09-4.39,0-6.55,8.09-.6,16.06.4,24.01,1.01Z"/>
      <path class="cls-5" d="M238,459c2.19.2,5.83,1.97,9,1l-1,12h-24c.81-1.96-.88-4.04-1.01-5.01s-.01-2.04,0-3l1-4c4.22-.28,8.85.4,13,0,.45-.04.9-.53,1-1,.66.04,1.34-.06,2,0Z"/>
      <polygon class="cls-22" points="160 224 159.99 237.5 159 238 140.99 237.01 140.99 223.99 160 224"/>
      <path class="cls-6" d="M238,104l.96.56.59-1.63,12.45.07v17h-13.01c-.81-.83,1.89-6.91-1.99-6-.12-3.86-.43-6.41,1-10Z"/>
      <polygon class="cls-26" points="48.14 405.14 59.56 405.94 59.06 421.56 47.44 421.06 48.14 405.14"/>
      <path class="cls-3" d="M251,258c.46-.15,1.27-1.72,3-.99v13.99c-5.13.5-9.76,1.27-15,1.01l-2-9c.06-1.33-.04-2.67,0-4,5.09-.06,9.19.57,14-1Z"/>
      <path class="cls-14" d="M102,162l5.01,1.99v16.01s-11.43.01-11.43.01l-.58-18.02c2.33.02,4.67-.03,7,0Z"/>
      <path class="cls-19" d="M156,378v12h-17c-.18-3.79-.18-8.21,0-12h17Z"/>
      <path class="cls-1" d="M44,504h18.01s0,10.01,0,10.01c-.97.97-16.44-1.49-19.01.99-.87-.72-1.45-10.02-.76-10.81.41-.47,1.63-.06,1.76-.19Z"/>
      <path class="cls-1" d="M136,258l-1,13h-14l-1-13c.48-1.47,11.35-1.32,13.55-1.04.98.12,2.34-.34,2.45,1.04Z"/>
      <path class="cls-25" d="M224,239l-.99-15c4.58,2.56,9.16-.58,13.99,0-.38,3.67.49,8.02.07,11.56-.24,2.02-2.6,1.15-2.08,3.44-3.49.21-7.47.1-11,0Z"/>
      <path class="cls-14" d="M107,147c-1.28,5.54-8.32,2.13-13,3v-15l11.01-1.01,1.99,5.01c.1,2.69-.15,5.27,0,8Z"/>
      <path class="cls-1" d="M40,461c.2,4.1.2,8.9,0,13-2.37,1.4-11.4,1.74-12.56.06l-.44-14.07,13.01,1.01Z"/>
      <path class="cls-14" d="M249,350c1,.03,2.01-.04,3,0-.28,4.77.37,9.76.01,14.52-.06.84.38,2.73-1.01,2.49l-10.36-1.14c-3.15-1.03-1.06-10.92-1.64-13.87,2.17-.07,4.37.1,6.55,0,1.93-.08,4.01,1.03,3.45-2Z"/>
      <path class="cls-15" d="M99,633c1.51,3.77,1.52,4.19,0,8l-18.02.42v-9.43s18.02,1.01,18.02,1.01Z"/>
      <path class="cls-27" d="M59,304l.42,17.02h-10.43s1.01-17.02,1.01-17.02c2.11.28,6.89.28,9,0Z"/>
      <path class="cls-26" d="M113,384c.05-2.43.15-4.65.56-7.03l-11.57-.97v-6.01s12,.02,12,.02l-2.05,1.55,1.23,4.31c.43.45,1.29.05,1.83.14.32.05.67-.02,1,0l11,1v14l-14.01-.99c.02-1.99-.03-4.01,0-6.01Z"/>
      <path class="cls-25" d="M210,223c1.99,4.25.63,9.4,1,14h-14v-13c4.57.52,8.67-.25,13-1Z"/>
      <path class="cls-4" d="M111,547c.05.01.74-1.94,1-.5-.62,6.18-1.5,11.31-.02,17.5-2.43-.88-5.6-.4-7.99-1-1.04-.26-2.28-1.46-3.92-1.07-.28-1.96-.01-3.96-.08-5.93-.06-1.58.29-7.56,0-8,3.47-.47,8.29,1.17,11-1Z"/>
      <path class="cls-15" d="M94,257h14c-.99,3.79-1.46,8.12-1,12l-13.01,1.01v-13.01Z"/>
      <polygon class="cls-3" points="43 380 43 393 29.99 393.01 29.98 380.58 43 380"/>
      <path class="cls-22" d="M238,517h12v14h-12c-.42-4.43.58-9.72,0-14Z"/>
      <path class="cls-15" d="M219,668c1.43-1.77,13.9-1.21,14.02-.42v11.43s-14.02-1.01-14.02-1.01c.31-2.3.31-7.7,0-10Z"/>
      <path class="cls-27" d="M300,450c-1.27.07-2.75.1-4,0l-4-1c-2.26-2.37-.43-9.22-1.03-12.55l1.03-1.45,11.58,1.97c0,3.6-1.52,7.06.17,10.6l-3.74,2.43Z"/>
      <path class="cls-4" d="M100,517c3.66,0,7.35,0,11.01,0,.04,1-.03,2,0,3,.1,3.61.32,7.52-.44,11.06-1.05,1.51-8.26,1.05-10.56.94v-15Z"/>
      <path class="cls-26" d="M293,406h10v15h-11c-.23-4.63-.62-10.93,1-15Z"/>
      <path class="cls-27" d="M272,257l9,.99c-.12,2.31.17,4.7,0,7.01-.67,8.55-6.08,3.96-13.01,5l-.99-13c1.66-.09,3.34.04,5,0Z"/>
      <path class="cls-15" d="M293,368l.64-2.03,10.36.03c0,2.5,0,5.01,0,7.52,0,.76-.43,5.19,1,2.49.02.5,2.53,2.84.04,4.55-1.3.89-8.79.56-11.04.45-.52-4.12,1.22-9.61-1-13Z"/>
      <path class="cls-4" d="M70,461h10.01c.07,2.5-.11,5.04,0,7.55.08,1.92-1.03,4.01,2,3.45-.03,1,.04,2.01,0,3h-13.01c.25-4.95-.83-9.39,1.01-14Z"/>
      <polygon class="cls-12" points="100 429 112.02 429.58 112.01 442.01 100 442 100 429"/>
      <path class="cls-19" d="M277,668l13.01-1.01-.44,11.07-1.2.8-11.36-.86c.31-2.3.31-7.7,0-10Z"/>
      <path class="cls-4" d="M71,503l-1.01-15.01h10.01c-.95,2.97.74,6,1,8.01.16,1.26-.07,2.69,0,4l-2.01.5,2.01.5c0,.12.99.32.97.49-.24,2.2-8.72,1.57-10.97,1.51Z"/>
      <path class="cls-4" d="M37,501l-10.56-.94.56-13.06c2.19-.11,8.52-.56,9.56.94l.44,13.06Z"/>
      <path class="cls-22" d="M328,487l1.01,14.01-10.07-.44-.8-1.2.86-12.36c2.89-.14,6.11-.14,9,0Z"/>
      <path class="cls-12" d="M233,642v11.01s-13,0-13,0l-1-2c-.12-2.09-.22-4.98,0-7,2.34-4.07,9.65-1.18,14-2Z"/>
      <path class="cls-8" d="M254,193v23h-18l1-23h17ZM242,195c-.59.12-1.36-.08-2,0-1.6.34-.76,2.1-1,3-1.38,5.27-.18,9.62-1,15l1,1c.66.04,1.34-.06,2,0,2.63.26,7.09.6,9-1l1-1c1.69-2.99,1.45-11.93,1.05-15.56-.13-1.2.39-1.83-1.05-2.44-.32-.14-1.42-.01-2,0-2.34.05-4.72.53-7,1Z"/>
      <path class="cls-22" d="M84,296c.1,3.32-.07,6.68,0,10l-13.02-.58v-10.43s13.02,1.01,13.02,1.01Z"/>
      <path class="cls-17" d="M108,101v21h-18v-21h18ZM92,104c.01,2.66-.02,5.34,0,8,.01,2.04-.73,7.43,1,8h12l1-1c.03-.66-.04-1.34,0-2,.06-.99-.04-2,0-3,.13-3.31-.09-6.68,0-10-3.35-1.67-10.44-1.7-14,0Z"/>
      <path class="cls-11" d="M167,412l.51-10.01,13.49,1.01v10.01s14.99,0,14.99,0v15c-5.5-.11-11.03.14-16.54.04-2.41-.04-4.64-1.12-6.96-1.13-5.41-.02-11.69,2.11-17.5,1.09v-15h11c-.25.29.63,2.01-.6,2.08l-9.41-1.08c.52,3.86-1.42,9.1,1.5,12h36.5v-12.01s-13.06-.43-13.06-.43l-.93-9.57h-11.01s.05,7.38.05,7.38c-.2,1.21-1.83.44-2.04.63Z"/>
      <path class="cls-1" d="M73,379l1.01,14.01h-9.43c-.72-.1-1.99-13.23,1.42-14.01,2.23-.07,4.91.29,7,0Z"/>
      <path class="cls-12" d="M268,458c1.75.3,8.63-.38,9.01,0-.2,4.97.25,10.04,0,15.01h-9.01c0-4.32,0-8.68,0-13v-2Z"/>
      <path class="cls-20" d="M238,459l11-1v14.5c-.88,1.43-1.99,1.38-3.45,1.55-4.83.57-17.3.55-22.15,0-1.39-.16-1.42-.07-2.4-1.05v-6c.13.97,1.82,3.05,1.01,5h24s1-11.99,1-11.99c-3.17.96-6.81-.8-9-1Z"/>
      <path class="cls-4" d="M292,642c-.34,2.49-.34,8.51,0,11l-10.02-.58v-10.43s10.02,0,10.02,0Z"/>
      <path class="cls-29" d="M209,432c-.17-6.36-1.53-12.6-1-19h28v15h-17.01c-.04.99.04,2,0,3h-1v-3c.59-.36.95-2.29,2.49-2.06l14.52.07.03-10.32c-.2-.66-2.26-1.69-2.54-1.69h-22.5c-.04,5.99.05,12.01,0,18h-1Z"/>
      <path class="cls-23" d="M44,504c.12-.12-.45-1.72.66-2.02,4.61-1.22,14.09.93,19.34.02v14c-4.66-.81-17.94,1.53-21-1,2.56-2.48,18.03-.02,19.01-.99v-10.01s-18.01,0-18.01,0Z"/>
      <path class="cls-23" d="M277,486v17c-4.69-.08-9.49.54-14-1v-16h14ZM275,487.99h-11.01s0,12.01,0,12.01c2.62-.42,10.13,1.01,11.59-.96l-.58-11.05Z"/>
      <path class="cls-9" d="M305,335v17h-14v-18l14,1ZM303,336h-10v14h10v-14Z"/>
      <path class="cls-28" d="M130,640v15h-12.99s-1.01-15-1.01-15h14ZM128.01,641.99h-10.01s.14,9.86.14,9.86l8.93.7.94-10.56Z"/>
      <path class="cls-29" d="M292,303l13.56.93-.55,17.07h-13.01v-18ZM304,305h-10v15c3.65-1.24,6.36-1.24,10,0v-15Z"/>
      <path class="cls-11" d="M238,104c.2-.51-.6-1.8.63-2.04l15.37.04v20h-16c-.51-2.61-.91-5.34-1-8,3.88-.91,1.18,5.17,1.99,6.01h13.01v-17.01l-12.45-.07-.59,1.63-.96-.56Z"/>
      <path class="cls-29" d="M107,147c.01.21,1.93,2.12,1,4h-16s0-19,0-19h15.01c.06,2.32-.09,4.68,0,7l-1.99-5.01-11.01,1.01v15c4.68-.87,11.72,2.54,13-3Z"/>
      <path class="cls-8" d="M330,459v17h-14v-17h14ZM328.01,459.99h-10.01c.48,2.84-1.07,12.17.94,13.57l10.06.43-.99-14Z"/>
      <path class="cls-28" d="M58,640l12.56.94.44,14.07h-13.01v-15.01ZM69,642l-8.55.96c-2.89,7.8-.66,12.49,8.1,9.1l.44-10.07Z"/>
      <path class="cls-11" d="M186,223v16h-16v-16h16ZM184.99,225.01l-13-1.01.44,12.07c1.38,1.98,9.84.49,12.57.94v-12Z"/>
      <path class="cls-8" d="M224,239c-1-.03-2.01.04-3,0v-16.01h18v16.01c-1.32.07-2.67-.09-4,0-.52-2.29,1.84-1.42,2.08-3.44.42-3.54-.45-7.89-.07-11.56-4.83-.58-9.41,2.57-13.99,0l.99,15Z"/>
      <path class="cls-9" d="M253,293v14h-15v-14h15ZM251.01,294.99l-10.07.44c-1.89,1.32-.57,8.1-.94,10.57h11.01s0-11.01,0-11.01Z"/>
      <path class="cls-7" d="M107,319v16.5c-2.83,2.43-10.28,2.39-13,0v-16.5h13ZM95,320v15c2.33-.32,8.28.9,9.56-.94l.5-12.48-10.06-1.58Z"/>
      <path class="cls-11" d="M251,607v17h-15v-17h15ZM250,609h-13.01l1,14.01h11.01l1-14.01Z"/>
      <path class="cls-17" d="M322,378v16h-13v-16h13ZM320,379h-9v14h9v-14Z"/>
      <path class="cls-8" d="M185,376c.66.03,1.34-.05,2,0v16.01s-21,0-21,0c0-2.66,0-5.34,0-8.01h2c0,2,0,4.01,0,6.01h17.01c0-3.99,0-8.02,0-12.01v-2Z"/>
      <path class="cls-28" d="M293,406c.2-.51-.6-1.8.63-2.04l11.37.04v19h-13.01c-.05-.66.04-1.34,0-2h11v-15h-10Z"/>
      <path class="cls-20" d="M253,163c-1.9,1.42-.76,4.81-1,7-.12-1.18-1.97-3.77-1-6.01h-11.01s0,17.01,0,17.01c-.5-.05-1.34-.86-2-1-.11-.26.09-.67,0-1l-1-3c-.32-4.61.23-9.38,0-14.01l16.01,1.01Z"/>
      <path class="cls-9" d="M267,257l.99,13c6.92-1.04,12.34,3.54,13.01-5l2,2c-.07,1.66.06,3.35,0,5.01h-18.01s0-15.01,0-15.01c.66-.05,1.33.04,2,0Z"/>
      <path class="cls-13" d="M136,85v15h-19v-15h19ZM135,87h-17v12h17v-12Z"/>
      <path class="cls-7" d="M251,546v18c-4.44-.62-10.54,1.56-14-1.5v-16.5h14ZM250,547l-12,1v14h12v-15Z"/>
      <path class="cls-17" d="M116,376c4.29.27,8.7-.19,13,0v16h-17.01c-.07-2.65.11-5.35,0-8h1c-.04,2,.02,4.01,0,6.01l14.01.99v-14l-11-1Z"/>
      <path class="cls-13" d="M132,458c1.33.05,2.67-.07,4,0,.99.05,2-.02,3,0,3.32.06,6.68-.04,10.01,0v-7.01s-9.01,0-9.01,0c.03-.33-.02-.67,0-1h11.01s0,9.01,0,9.01c-6.99.02-14.02-.04-21.01,0,.12-10.65-.09-21.35,0-32,1.48.04.94,1.43,1.02,2.47.74,8.66-.58,18.3-.05,27.08l1.03,1.45Z"/>
      <path class="cls-20" d="M81,496c-.25-2.01-1.95-5.04-1-8h-10.01s1.01,15,1.01,15c-1-.03-2.01.04-3,0v-17.01s13.07.44,13.07.44c1.38.96,1.7,8.12-.06,9.56Z"/>
      <path class="cls-9" d="M112,384c-.09-2.32.07-4.68,0-7.01h-12.01s0-8.99,0-8.99h15v8c-.54-.08-1.41.32-1.83-.14l-1.23-4.31,2.05-1.55-12-.02v6.01s11.57.97,11.57.97c-.41,2.38-.52,4.6-.56,7.03h-1Z"/>
      <path class="cls-21" d="M193,259c.11-.02.73-1.44,1.99-1v14s-46.99,0-46.99,0c.57-3.46-1.26-10.72,1-13v12.01s45.01,0,45.01,0c.04-1.33-.04-2.67,0-4,.02-.66.02-1.34,0-2-.02-.99.11-2.03,0-3-.12-1.07-.46-2.08-1-3Z"/>
      <path class="cls-8" d="M292,653c.02.11,1.44.74,1,1.99h-13s0-14.99,0-14.99h13c.44,1.26-.98,1.89-1,2h-10.01s-.01,10.42-.01,10.42l10.02.58Z"/>
      <path class="cls-18" d="M70,256v2c-1,.03-2.01-.05-3,0-.63,3.24-.01,9.7,3.64,10.84,2.31.72,5.63-.88,7.36,1.17-.16.51.11,1.38,0,2-1.97.1-4.03.07-6,0l-5.99-2v2s-1.02-16.01-1.02-16.01c1.65.1,3.37-.15,5.01,0Z"/>
      <path class="cls-17" d="M62,336v15h-14v-15c4.95.77,9.36-1.93,14,0ZM60.01,336.99h-11.01v13.01h11.01v-13.01Z"/>
      <path class="cls-9" d="M238,517c-.02-.11-1.44-.74-1-1.99h14s1,17,1,17l-15-.02,1-.99h12v-14h-12Z"/>
      <path class="cls-21" d="M273,631v12h-23v-12h23ZM272,642c-.37-3.29,1.24-7.62-1.5-10h-19.5v10h21Z"/>
      <path class="cls-13" d="M169,85v15h-20v-15h20ZM168,86h-18v13h18v-13Z"/>
      <path class="cls-13" d="M253,132v17.5c0,.3,1.27.77,1,1.5h-16v-19h15ZM252,133h-13v17h13v-17Z"/>
      <path class="cls-11" d="M238,488c-.23,4.3.16,8.69,0,13h14c.06-4.83.42-8.44-1-13-.16-.51.11-1.38,0-2,.66.03,1.34-.05,2,0v17.01s-16,0-16,0l1-17c-.02.66.03,1.34,0,2Z"/>
      <polygon class="cls-22" points="215 257 215 273 211.51 273.01 211 257 215 257"/>
      <path class="cls-13" d="M185,450v9h-24v-9h24ZM184,451h-22v7h22v-7Z"/>
      <path class="cls-21" d="M132,223v15h-18v-15h18ZM131,224h-16v13h16v-13Z"/>
      <path class="cls-7" d="M230,85v15h-18v-15h18ZM229,86h-16v13h16v-13Z"/>
      <path class="cls-21" d="M95,162l.58,18.02h11.43s0-16.02,0-16.02l-5.01-1.99c2,.02,4.01-.03,6.01,0l-.52,20.02-13.49-1.01,1.01-19.01Z"/>
      <path class="cls-13" d="M210,432c-.04,4.35.87,15.12.02,18.35-.28,1.05-1.96.57-2.02.65h-11.01s0,7.01,0,7.01c4.66-.01,9.35,0,14.01,0,1.67,0,3.33,0,5,0h1c.33,0,.67,0,1,0h1l-1.45,1.03-21.56-.02v-9.01s13.01.01,13.01.01c-.12-5.98.15-12.03,0-18.01h1Z"/>
      <path class="cls-13" d="M197,224v13h14c-.37-4.6.99-9.75-1-14,.61-.1,2.11-.35,2.01.55-.71,4.88,1.63,11.55-1.51,15.45h-14.5v-16s1,1,1,1Z"/>
      <path class="cls-16" d="M129,474l-.5-.98-.5.98c-6.68.94-18.79.21-26,0v-2h27s1-5,1-5c-.07,2.13.21,4.29-.11,6.42l-.89.58Z"/>
      <path class="cls-13" d="M251,578v17h-14v-17h14ZM250,579h-12v15h12v-15Z"/>
      <path class="cls-21" d="M265,666v14h-17v-14h17ZM264,667h-15v12h15v-12Z"/>
      <path class="cls-21" d="M319,487l-.86,12.36.8,1.2,10.07.44-1.01-14.01c.66.03,1.34-.05,2,0l-.57,16.02h-12.43s0-16.02,0-16.02c.66-.05,1.33.04,2,0Z"/>
      <path class="cls-7" d="M210,376l1,16h-15v-15c.47.1.96.55,1,1,.37,3.85-.27,8.1,0,12.01h12.43c1.03-.14.58-10.15.58-12.01v-2Z"/>
      <path class="cls-7" d="M112,607v17h-13v-17h13ZM111,608h-11v15h11v-15Z"/>
      <path class="cls-21" d="M62,365v16h-14v-16h14ZM61,366h-12v14h12v-14Z"/>
      <path class="cls-23" d="M248,442c-2.18,2.18-7.83.52-11.01,1.01.24-2.47-.91-14.44,1.67-15.05l10.34.04c.05.66-.04,1.33,0,2-.63-.11-1.48.16-2,0-2.8-.86-4.73-1.53-8-1v12.01c2.28.18,4.76-.26,7,0,.3.03,1.25,1.08,2,1Z"/>
      <path class="cls-7" d="M104,293c.13.94-.19,2.15,0,3h-10.01s0,10.01,0,10.01c3.64-.14,7.37.19,11.01,0,.66-.03,1.34.02,2,0l-14.01,1.01v-13.01s1.01-1,1.01-1c3.32.07,6.68-.1,10,0Z"/>
      <path class="cls-29" d="M84,306l-14,1v-14h14.01c.04.99-.04,2,0,3l-13.01-1.01v10.43s13.01.58,13.01.58Z"/>
      <path class="cls-23" d="M113,428c.33,0,.67,0,1,0v15.01s-14-1.01-14-1.01h12.01s.01-12.42.01-12.42l-12.02-.58c3.34-1.87,8.88-.96,13-1Z"/>
      <path class="cls-17" d="M131,666v14h-14v-14h14ZM130.01,666.99l-11.57.94.5,10.63,11.07.44v-12.01Z"/>
      <path class="cls-28" d="M236,376c.11.63-.16,1.48,0,2h-13.01s0,12,0,12c-.51-.16-1.38.11-2,0-.23-4.64.16-9.36,0-14.01,4.97.18,10.04-.24,15.01,0Z"/>
      <path class="cls-21" d="M102,666v14h-15v-14h15ZM101.01,666.99h-13.01v12.01h13.01v-12.01Z"/>
      <path class="cls-17" d="M113,424c0-3.66,0-7.35,0-11.01h28.01c.05.67-.04,1.34,0,2.01-.66-.03-1.34.05-2,0-7.95-.6-15.92-1.61-24.01-1.01-.09,2.17.13,4.38,0,6.55-.11,1.92,1.05,4.01-2,3.45Z"/>
      <path class="cls-21" d="M50,304l-1.01,17.01h10.43s-.42-17.01-.42-17.01c.11-.01.74-1.44,1.99-1l-.57,19.01h-12.43s.01-19.01.01-19.01c1.25-.44,1.88.98,1.99,1Z"/>
      <path class="cls-21" d="M305,275c-.66-.02-1.34.03-2,0-2.69-.14-7.04-.36-9.53,0-1.47.21-1.62-.58-1.48,1.5.29,4.3,1.83,8.86,1.01,13.51l10.01-1.01h1c-.2.51.6,1.8-.63,2.04l-11.21-.2c-.15-.72-1.17-1.98-1.17-2.34v-14.5l14,1Z"/>
      <path class="cls-21" d="M160,224h-19.01s0,13.01,0,13.01l18.01.99h-19v-15c6.41.6,13.94-1.29,20,1Z"/>
      <polygon class="cls-13" points="108 194 107 194 94 194 94 214 108 214 93 215 93 193 108 194"/>
      <path class="cls-16" d="M240,319h12.01s0,16,0,16c-.33-.3-.81-.61-1-1-1.92-3.96-.68-8.72-.99-13.01h-11.01c.12-.59.83-1.31,1-1.99Z"/>
      <path class="cls-21" d="M99,641c-.2.51.6,1.8-.63,2.04l-18.39-.62v-11.43s18.39-.04,18.39-.04c1.23.24.42,1.54.63,2.04l-18.01-1.01v9.43s18.01-.42,18.01-.42Z"/>
      <path class="cls-29" d="M249,350c.56,3.03-1.53,1.92-3.45,2-2.18.1-4.38-.07-6.55,0,.59,2.95-1.5,12.83,1.64,13.87l10.36,1.14h-13v-17c3.65.08,7.35-.11,11,0Z"/>
      <path class="cls-28" d="M185,376v2h-17.01c0,1.99,0,4,0,6h-2c0-2.66,0-5.35,0-8.01,6.3.23,12.71-.3,19.01,0Z"/>
      <path class="cls-13" d="M276,378c-.17.68-.88,1.41-1,2-.72,3.64.52,9.09,0,13.01h12.43c1.03-.14.58-11.17.58-13.01v-2c.65.07,1.34-.05,1.99,0-1.51,5.22-1.47,10.8,0,15.99h-16c.12-4.16-.16-8.38,0-12.55.08-1.93-1.03-4.01,2-3.45Z"/>
      <path class="cls-21" d="M130,459c0,.33,0,.67,0,1h-30.01c.86,3.29-2.1,12.15,2.01,12v2c-1-.03-2.01.04-3,0v-15.01c10.32-.03,20.68.05,31,0Z"/>
      <path class="cls-7" d="M219,668c-.01-.11-1.44-.74-1-1.99h16s0,13.99,0,13.99h-16c-.44-1.26.98-1.89,1-2l14.01,1.01v-11.43c-.11-.79-12.57-1.34-14.01.42Z"/>
      <path class="cls-17" d="M180,248v1l1,9c-.66-.04-1.34.06-2,0v-8.01s-9,0-9,0l-1,1c.03,1.66-.04,3.34,0,5v3s-1-1-1-1v-10.01c3.7.44,8.49-.6,12,0Z"/>
      <path class="cls-7" d="M40,474c-.03.66.05,1.34,0,2h-14.01s0-17,0-17h14.01c.05.66-.04,1.34,0,2l-13.01-1.01.44,14.07c1.16,1.67,10.2,1.33,12.56-.06Z"/>
      <path class="cls-18" d="M70,461c.2-.51-.6-1.8.63-2.04l11.38.04c-.1,4.32.12,8.69,0,13.01-3.03.56-1.92-1.53-2-3.45-.1-2.51.08-5.05,0-7.55h-10.01Z"/>
      <path class="cls-21" d="M277,668c-.01-.11-1.44-.74-1-1.99h15s0,13.99,0,13.99h-15c-.44-1.26.98-1.89,1-2l11.36.86,1.2-.8.44-11.07-13.01,1.01Z"/>
      <path class="cls-21" d="M289,504c-.19,3.64.14,7.36,0,11h17c-.14-3.64.19-7.36,0-11-.03-.66.02-1.34,0-2l1,14h-19l1-14c-.02.66.03,1.34,0,2Z"/>
      <path class="cls-13" d="M73,379c.11-.02.75-1.44,1.99-1l-.57,16.01h-11.43s0-15.02,0-15.02c1-.04,2,.04,3,0-3.41.77-2.15,13.91-1.42,14.02h9.43s-1.01-14.02-1.01-14.02Z"/>
      <path class="cls-13" d="M181,85h17v15c-4.98-.1-10.02.14-15,0v-1l14.02-.58v-12.43c-4.65-.18-9.39.27-14.02,0-.85-.05-1.73-.04-2-1Z"/>
      <polygon class="cls-21" points="43 380 29.98 380.58 29.99 393.01 43 393 29 394 29 378 43 380"/>
      <path class="cls-29" d="M94,257v13.01s13-1.01,13-1.01c.04.35,1.66,1.5.99,3h-15s1.01-15,1.01-15Z"/>
      <path class="cls-20" d="M268,460c0,4.32,0,8.68,0,13.01h9.01c-.03.66.02,1.33,0,1.99l-9.89-.11c-1.47-4.17-1.02-7.82-.72-12.05.12-1.67-1.76-3.31,1.61-2.84Z"/>
      <path class="cls-17" d="M233,641l1-.5v14.5s-15.01,0-15.01,0c-.05-.66.05-1.34,0-2h14.01s0-11,0-11v-1Z"/>
      <path class="cls-8" d="M108,352v15.01s-14,0-14,0c-.02-.66.03-1.34,0-2h13s0-13,0-13h1Z"/>
      <polygon class="cls-13" points="120 258 121 271 135 271 136 258 136 272 120 272 120 258"/>
      <path class="cls-11" d="M253,163l.53,19.06-15.54-.06c-.14-.62.19-1.56,0-2,.66.14,1.5.95,2,1,2.66.27,7.37.3,10,0,.65-.07,1.34.09,2,0,.08-.99-.06-2.01,0-3,.15-2.36.24-5.71,0-8,.24-2.19-.9-5.58,1-7Z"/>
      <path class="cls-9" d="M292,435h13.01s0,15.01,0,15.01c-1.66.07-3.35-.1-5.01,0l3.74-2.43c-1.69-3.54-.16-7-.17-10.6l-11.58-1.97Z"/>
      <path class="cls-21" d="M60,666h14v14l-15-1h2c1.86,0,11.86.46,12.02-.58v-11.43c-.44-.43-9.89.36-12.02,0-.27-.05-.68-.74-1-1Z"/>
      <path class="cls-13" d="M48,275l13-1v17l-13-1c.66.02,1.34-.03,2,0,3.31.17,6.69-.12,10,0v-15c-3.31.12-6.69-.17-10,0-.66.03-1.34-.02-2,0Z"/>
      <path class="cls-13" d="M99,579l13-1v16l-13-1c.66.02,1.34-.03,2,0,3.31.17,6.69-.12,10,0v-14h-12Z"/>
      <path class="cls-2" d="M104,486v2c-1.33.03-2.68-.04-4,0l1,13.01h-2c-2.33-2.32-.36-11.4-1.01-15.01,1.99-.06,4.01.09,6.01,0Z"/>
      <path class="cls-13" d="M264,295l.58,11.02h12.43c.28-3.56-.39-7.55,0-11.02.03-.26.75-.68,1-1v13h-15v-13c.66-.01.84.92,1,1Z"/>
      <path class="cls-21" d="M211,257l.51,16.01h3.49s0-16.01,0-16.01c1.72,1.64,1.27,16.89.43,17.02h-5.43s1.01-17.02,1.01-17.02Z"/>
      <path class="cls-16" d="M49,435h12.01s0,14,0,14h-1l-.44-11.06c-1.32-1.89-8.08-.57-10.56-.94.03-.66-.02-1.34,0-2Z"/>
      <path class="cls-17" d="M236,376c.66.03,1.34-.05,2,0v16.01s-17,0-17,0c-.05-.66.04-1.33,0-2,.62.11,1.49-.16,2,0,4.25,1.32,8.52,1.53,13.06.56,1.94-4.01,1.13-8.66-.06-12.56-.16-.52.11-1.37,0-2Z"/>
      <path class="cls-16" d="M306,502c.02.66-.03,1.34,0,2h-17c.03-.66-.02-1.34,0-2h17Z"/>
      <path class="cls-9" d="M156,390l-.95,1.51-16.06.49c-.05-.66.04-1.33,0-2h17Z"/>
      <path class="cls-21" d="M240,319c-.17.68-.88,1.41-1,2-.77,3.91.56,9.81,0,14.01l12.01-1.01c.19.39.67.7,1,1l-14.01,1.01c.13-4.5-.17-9.05,0-13.55.08-1.93-1.03-4.01,2-3.45Z"/>
      <path class="cls-28" d="M156,378h-17c.03-.66-.05-1.34,0-2,3.35.47,15.95-1.43,17.01,2Z"/>
      <path class="cls-20" d="M98,517c.03-.66-.05-1.34,0-2h14.01s-1,5-1,5c-.03-1,.04-2.01,0-3-3.66,0-7.35,0-11.01,0h-2Z"/>
      <path class="cls-16" d="M108,213c-4.85-4.49-.37-13.34-1-19h1v19Z"/>
      <path class="cls-16" d="M183,86c-1.45,3.71-1.85,9.52,0,13v1c-1-.03-2.01.04-3,0l1-15.01c.27.96,1.15.95,2,1Z"/>
      <path class="cls-13" d="M108,352h-14.01c.17,4.3-.22,8.7,0,13,.03.66-.02,1.34,0,2-2.27-4.66-.42-10.95-1.01-16.01l15.01,1.01Z"/>
      <path class="cls-18" d="M100,517v15c-.66-.03-1.34.05-2,0,.17-4.97-.24-10.04,0-15.01h2Z"/>
      <path class="cls-20" d="M50,275v15c-.66-.03-1.34.02-2,0v-15c.66-.02,1.34.03,2,0Z"/>
      <path class="cls-23" d="M278,294c-.25.32-.97.74-1,1-3.32-.83-10.47,1.26-13,0-.16-.08-.34-1.01-1-1,.52-1.61,14.47-1.61,15,0Z"/>
      <path class="cls-20" d="M104,293c1,.03,2.01-.04,3,0v13.01c-.66.02-1.34-.03-2,0,.53-3.86-.22-6.59-1-10-.19-.85.13-2.06,0-3Z"/>
      <path class="cls-13" d="M27,487l-.56,13.06,10.56.94-12.01,1.01v-15.01c.67-.05,1.34.04,2.01,0Z"/>
      <path class="cls-11" d="M70,256c3.15.3,6.47,1.75,10.01,1v15.01c-.67.05-1.34-.04-2.01,0,.11-.62-.16-1.49,0-2,1.32-4.26,1.14-7.47,1.01-12.01-2.99.06-6.02-.08-9.01,0v-2Z"/>
      <path class="cls-7" d="M267,457c2.92-.67,7.77.48,11.01,0l-1.01,18.01c.02-.66-.03-1.34,0-2,.26-4.96-.19-10.03,0-15.01-.38-.38-7.25.3-9.01,0-.27-.05-.67-.75-1-1Z"/>
      <path class="cls-18" d="M305,275c-.25,4.95.84,9.39-1,14h-1v-14c.66.03,1.34-.02,2,0Z"/>
      <path class="cls-7" d="M235,459v1c-4.15.4-8.78-.28-13,0l-.91.59c-.25,1.13-.07,2.28-.09,3.41-.01.96-.12,2.08,0,3v6c-2.29-2.31-.4-10.42-1.01-14.01,4.98.17,10.04-.22,15.01,0Z"/>
      <path class="cls-28" d="M210,376v2h-13c-.04-.45-.53-.9-1-1l14-1Z"/>
      <path class="cls-18" d="M101,593c-.66-.03-1.34.02-2,0v-14h1c1.98,4.25.64,9.4,1,14Z"/>
      <path class="cls-20" d="M272,257c3.65-.1,7.35.07,11.01,0-.11,3.32.14,6.69,0,10.01l-2-2c.18-2.3-.12-4.7,0-7.01l-9-.99Z"/>
      <path class="cls-13" d="M49,437c-.21,3.97.15,8.03,0,12.01h11.01s1,0,1,0l-13.01,1.01,1.01-15.01c-.02.66.03,1.34,0,2Z"/>
      <path class="cls-11" d="M219,458h-1v-27h1c-.26,8.97.19,18.03,0,27Z"/>
      <path class="cls-21" d="M292,368c.03-1-.04-2.01,0-3h13.01c.1,3.65-.15,7.36,0,11-1.43,2.7-1-1.73-1-2.49,0-2.51,0-5.02,0-7.52l-10.36-.03-.64,2.03h-1Z"/>
      <path class="cls-28" d="M294,381c-.66-.03-1.34.05-2,0,.08-4.32-.13-8.69,0-13.01h1c2.22,3.39.48,8.88,1,13Z"/>
      <path class="cls-18" d="M251,486c.11.62-.16,1.49,0,2h-13c.03-.66-.02-1.34,0-2,4.31.15,8.7-.21,13,0Z"/>
      <path class="cls-11" d="M110,486l2,1c-.1,4.32.15,8.69,0,13h-1v-12.01c-2.32.03-4.67-.04-7,0v-2c1.87-.08,4.18-.17,6,0Z"/>
      <path class="cls-23" d="M61,667v12h-2l1-13c.32.26.73.95,1,1Z"/>
      <path class="cls-23" d="M111,547c-2.71,2.17-7.53.53-11,1-.14-.21-3.04.78-1.99-1.99,4.75-.26,8.44-.15,12.99.99Z"/>
      <path class="cls-9" d="M288,378v2h-13c.12-.59.83-1.32,1-2,3.89.27,8.19-.38,12,0Z"/>
      <path class="cls-18" d="M249,430c.14,2.95.69,10.31-1,12-.75.08-1.7-.97-2-1,2.17-2.71.53-7.53,1-11,.52.16,1.37-.11,2,0Z"/>
      <path class="cls-2" d="M100,556c.07,1.97-.19,3.97.08,5.93,1.63-.39,2.88.81,3.92,1.07l-6,1c.72-1.84-1.92-8.59,2-8Z"/>
      <path class="cls-28" d="M251,258c-4.81,1.57-8.91.94-14,1l14-1Z"/>
      <path class="cls-11" d="M101,501h11c-.03.33.02.67,0,1h-1c-3.33-.52-9.77,1.22-12-1h2Z"/>
      <path class="cls-20" d="M233,641v1c-4.35.82-11.66-2.07-14,2,.07-.65-.05-1.34,0-2l1-1h13Z"/>
      <path class="cls-28" d="M239,272c-.66-.03-1.34.05-2,0,.09-2.98-.14-6.03,0-9.01l2,9Z"/>
      <path class="cls-2" d="M111,500h1c-.01.33.03.67,0,1h-8c1.42-1.9,4.81-.76,7-1Z"/>
      <path class="cls-11" d="M72,272c-1.99-.07-4.01.05-6,0v-2s6,2,6,2Z"/>
      <path class="cls-9" d="M296,450c-1.69-.14-2.52.55-4-1l4,1Z"/>
      <path class="cls-11" d="M238,179c-.15-.55-.85-.87-1-3l1,3Z"/>
      <path class="cls-2" d="M112,487l-2-1c.88.08,1.89-.26,2,1Z"/>
      <path class="cls-20" d="M81,500c.02.33,0,.67,0,1l-2.01-.5,2.01-.5Z"/>
      <path class="cls-20" d="M220,653h-1c-.04-.66.04-1.34,0-2l1,2Z"/>
      <path class="cls-15" d="M180,249v-1c.43.07.81-.09.98.51l-.98.49Z"/>
      <path class="cls-17" d="M219,642l1-1-1,1Z"/>
      <polygon class="cls-2" points="111 502 112 502 111.49 502.98 111 502"/>
      <path class="cls-20" d="M268,458v1l-1.98-1.51c-.05-.58.66-.42.98-.49.33.25.73.95,1,1Z"/>
      <path class="cls-20" d="M93,294l1-1-1,1Z"/>
      <path class="cls-20" d="M235,460v-1c.33.02.67-.02,1,0-.1.47-.55.96-1,1Z"/>
      <path class="cls-14" d="M107,194c.63,5.66-3.85,14.51,1,19v1h-14v-20h13Z"/>
      <path class="cls-19" d="M129,474c-.33.03-.67-.05-1,0l.5-.98.5.98Z"/>
      <path class="cls-27" d="M140,451h9.01s0,7.01,0,7.01c-3.32-.05-6.68.05-10.01,0-.57-2.45.83-4.87,1-7Z"/>
      <path class="cls-27" d="M132,458v-2s3.45-.02,3.45-.02l.55,2.01c-1.33-.07-2.67.05-4,0Z"/>
      <path class="cls-25" d="M194,262c.11.97-.02,2.01,0,3h-2s0-2.49,0-2.49l2.01-.51Z"/>
      <path class="cls-25" d="M169,251l1-1-1,1Z"/>
      <path class="cls-20" d="M221,464c.02-1.14-.16-2.28.09-3.41l.91-.59-1,4Z"/>
      <path class="cls-6" d="M251,194v18l-1,1c-2.82.38-6.95-1.08-9,1-.66-.06-1.34.04-2,0l-1-1c.82-5.38-.38-9.73,1-15l1-3c.64-.08,1.41.12,2,0l.14,1.84,5.24,1.08c1.61-.45,1.77-2.52,1.63-3.92.58-.01,1.68-.14,2,0Z"/>
      <path class="cls-26" d="M249,194c.14,1.4-.01,3.48-1.63,3.92l-5.24-1.08-.14-1.84c2.28-.47,4.66-.95,7-1Z"/>
      <path class="cls-26" d="M251,212v-18c1.44.61.91,1.24,1.05,2.44.4,3.63.64,12.57-1.05,15.56Z"/>
      <path class="cls-26" d="M250,213c-1.91,1.6-6.37,1.26-9,1,2.05-2.08,6.18-.62,9-1Z"/>
      <path class="cls-26" d="M239,198c.24-.9-.6-2.66,1-3l-1,3Z"/>
      <path class="cls-26" d="M239,214l-1-1,1,1Z"/>
      <path class="cls-6" d="M106,104c-.09,3.32.13,6.69,0,10-1.5.14-1.5,2.86,0,3-.04.66.03,1.34,0,2l-1,1h-12c-.32-2.5,1-6.27-1-8-.02-2.66.01-5.34,0-8h14Z"/>
      <path class="cls-12" d="M106,104h-14c3.56-1.7,10.65-1.67,14,0Z"/>
      <path class="cls-12" d="M93,120c-1.73-.57-.99-5.96-1-8,2,1.73.68,5.5,1,8Z"/>
      <path class="cls-12" d="M106,117c-1.5-.14-1.5-2.86,0-3-.04,1,.06,2.01,0,3Z"/>
      <path class="cls-12" d="M105,120l1-1-1,1Z"/>
      <path class="cls-5" d="M210,432c.05-5.99-.04-12.01,0-18h22.5c.28,0,2.33,1.03,2.54,1.69l-.03,10.32-14.52-.07c-1.54-.23-1.9,1.71-2.49,2.06-2.54,1.54-4.89,3.55-8,4Z"/>
      <path class="cls-4" d="M275,487.99l.58,11.05c-1.45,1.97-8.97.54-11.59.96v-12.01s11.01,0,11.01,0Z"/>
      <rect class="cls-26" x="293" y="336" width="10" height="14"/>
      <polygon class="cls-24" points="128.01 641.99 127.07 652.56 118.14 651.86 117.99 641.99 128.01 641.99"/>
      <path class="cls-3" d="M304,305v15c-3.64-1.24-6.35-1.24-10,0v-15h10Z"/>
      <path class="cls-1" d="M328.01,459.99l.99,14-10.06-.43c-2.01-1.4-.46-10.73-.94-13.57h10.01Z"/>
      <path class="cls-25" d="M69,642l-.44,10.07c-8.77,3.39-11-1.3-8.1-9.1l8.55-.96Z"/>
      <path class="cls-5" d="M184.99,225.01v12c-2.71-.45-11.18,1.03-12.55-.94l-.44-12.07,13,1.01Z"/>
      <path class="cls-3" d="M251.01,294.99v11.01s-11.01,0-11.01,0c.37-2.47-.95-9.25.94-10.57l10.07-.44Z"/>
      <path class="cls-10" d="M95,320l10.06,1.58-.5,12.48c-1.28,1.84-7.23.62-9.56.94v-15Z"/>
      <polygon class="cls-26" points="250 609 249.01 623.01 237.99 623.01 237 609 250 609"/>
      <rect class="cls-19" x="311" y="379" width="9" height="14"/>
      <path class="cls-22" d="M185,378c0,3.99,0,8.02,0,12.01h-17.01c0-1.99,0-4.01,0-6.01s0-4.01,0-6.01h17.01Z"/>
      <path class="cls-26" d="M240,181v-17.01s11,0,11,0c-.98,2.24.87,4.83,1,6.01.24,2.29.15,5.64,0,8h-2s0,3,0,3c-2.63.3-7.34.27-10,0Z"/>
      <rect class="cls-26" x="118" y="87" width="17" height="12"/>
      <polygon class="cls-19" points="250 547 250 562 238 562 238 548 250 547"/>
      <path class="cls-10" d="M70,258c2.99-.09,6.02.06,9.01,0,.13,4.54.32,7.75-1.01,12.01-1.73-2.05-5.05-.45-7.36-1.17-3.66-1.14-4.27-7.59-3.64-10.84,1-.04,2,.03,3,0Z"/>
      <rect class="cls-26" x="48.99" y="336.99" width="11.01" height="13.01"/>
      <path class="cls-22" d="M272,642h-21v-10h19.5c2.74,2.38,1.13,6.71,1.5,10Z"/>
      <rect class="cls-27" x="150" y="86" width="18" height="13"/>
      <rect class="cls-26" x="239" y="133" width="13" height="17"/>
      <path class="cls-24" d="M251,488c1.42,4.56,1.06,8.17,1,13h-14c.16-4.31-.23-8.7,0-13h13Z"/>
      <rect class="cls-22" x="162" y="451" width="22" height="7"/>
      <rect class="cls-3" x="115" y="224" width="16" height="13"/>
      <rect class="cls-19" x="213" y="86" width="16" height="13"/>
      <path class="cls-10" d="M218,428v30c-.33,0-.67,0-1,0-.37,0-.64,0-1,0-1.67,0-3.33,0-5,0-2.12-.61-3.91-5.68-3-7,.06-.09,1.74.4,2.02-.65.86-3.22-.05-13.99-.02-18.35,3.11-.45,5.46-2.46,8-4Z"/>
      <path class="cls-24" d="M208,451c-.91,1.32.88,6.39,3,7-4.66.01-9.35,0-14.01,0v-7.01s11.01,0,11.01,0Z"/>
      <path class="cls-24" d="M217,458h-1c.36,0,.63,0,1,0Z"/>
      <rect class="cls-12" x="238" y="579" width="12" height="15"/>
      <rect class="cls-1" x="249" y="667" width="15" height="12"/>
      <path class="cls-19" d="M210,378c0,1.86.46,11.86-.58,12.02h-12.43c-.26-3.92.38-8.17,0-12.02h13Z"/>
      <rect class="cls-27" x="100" y="608" width="11" height="15"/>
      <rect class="cls-10" x="49" y="366" width="12" height="14"/>
      <path class="cls-24" d="M247,430c-.47,3.47,1.17,8.29-1,11-2.24-.25-4.73.19-7.01,0v-12.01c3.27-.52,5.2.14,8.01,1Z"/>
      <path class="cls-3" d="M104,296c.78,3.41,1.53,6.14,1,10-3.64.19-7.36-.14-11.01,0v-10.01s10.01,0,10.01,0Z"/>
      <polygon class="cls-1" points="130.01 666.99 130.01 679.01 118.94 678.56 118.44 667.94 130.01 666.99"/>
      <path class="cls-19" d="M236,378c1.2,3.91,2,8.55.06,12.56-4.55.96-8.81.76-13.06-.56v-12.01s13,0,13,0Z"/>
      <rect class="cls-1" x="87.99" y="666.99" width="13.01" height="12.01"/>
      <path class="cls-14" d="M303,275v14l-10.01,1.01c.82-4.65-.72-9.21-1.01-13.51-.14-2.08.01-1.29,1.48-1.5,2.5-.36,6.84-.14,9.53,0Z"/>
      <path class="cls-1" d="M239,321h11.01c.32,4.28-.93,9.04.99,13l-12.01,1.01c.57-4.2-.77-10.1,0-14.01Z"/>
      <path class="cls-19" d="M288,380c0,1.84.45,12.86-.58,13.02h-12.43c.53-3.92-.71-9.38,0-13.02h13Z"/>
      <path class="cls-27" d="M306,504c.19,3.64-.14,7.36,0,11h-17c.14-3.64-.19-7.36,0-11h17Z"/>
      <path class="cls-22" d="M183,86c4.63.26,9.37-.19,14.01,0v12.43s-14.01.58-14.01.58c-1.85-3.48-1.45-9.29,0-13Z"/>
      <path class="cls-26" d="M107,352v13s-13,0-13,0c-.23-4.3.16-8.7,0-13.01h13.01Z"/>
      <path class="cls-20" d="M252,178c-.06.99.08,2.01,0,3-.65.08-1.35-.08-2,0v-3s2,0,2,0Z"/>
      <path class="cls-1" d="M61,667c2.13.36,11.57-.44,12.01,0v11.43c-.14,1.03-10.15.58-12.01.58v-12Z"/>
      <path class="cls-26" d="M50,275c3.31-.17,6.69.12,10,0v15c-3.31-.12-6.69.17-10,0v-15Z"/>
      <path class="cls-12" d="M100,579h11v14c-3.31-.12-6.69.17-10,0-.36-4.6.98-9.75-1-14Z"/>
      <path class="cls-24" d="M104,488c2.33-.05,4.68.03,7.01,0v12.01c-2.19.24-5.59-.9-7.01,1h-3l-1-13.01c1.33-.03,2.67.03,4,0Z"/>
      <path class="cls-3" d="M277,295c-.39,3.47.28,7.46,0,11.01h-12.43s-.58-11.01-.58-11.01c2.53,1.26,9.68-.83,13,0Z"/>
      <path class="cls-19" d="M60,449h-11.01c.16-3.97-.2-8.03,0-12,2.49.37,9.25-.96,10.56.94l.44,11.06Z"/>
    </g>
  </g>
</svg>