<?xml version="1.0" encoding="UTF-8"?>
<svg id="Layer_2" data-name="Layer 2" xmlns="http://www.w3.org/2000/svg" viewBox="0 0 454 731">
  <defs>
    <style>
      .cls-1 {
        fill: #fff;
      }
    </style>
  </defs>
  <g id="Layer_2-2" data-name="Layer 2">
    <g>
      <path class="cls-1" d="M454,0v731H0V0h454ZM373,364c.15-5.69-.09-10.86-.05-16.45.09-12.24,1.03-24.34,1.05-36.55l-14.42-.88-.58-13.12h-12.01s0-19.49,0-19.49c0-.3-1.27-.77-1-1.5h27c-.52-3.95-2.04-8.17,0-12h-89v-17h52l-1-16h14v-124h-12v-16h-14v-10h-152v10h-16v16l-13-1v123l14-1v19h48v15.5c0,.3,1.27.77,1,1.5h-92v11h31v22h-16v12.01s14.54.37,14.54.37l1.46,1.13v66.5h12v29h49c.27.73-1,1.2-1,1.5v16c0,.3,1.27.77,1,1.5h-48v53h17v6h19v61h-19v10h-16l-.99,38c5.64-3.12,11.45,1.97,16.99-1v45h1v-37h18v38h-56l1,13h-14v15h-11v16h92v-209h80v209h87v-16h-11v-15h-14l1-13h-50v-39h14.5c.21,0,1.13,1.5,1.49,1v-7h17.01v-38h-17v-10h-16v-61h16v-7c.37-.5,1.29,1,1.5,1h15.5v-53h-47v-19h49v-30h13v-67c4.15.58,9.82-1.5,13,1.5v53.5c4.65.03,9.35-.04,14,0-.04,1.47-.96,3.43-1.04,5.45-.33,8.15.32,16.4.04,24.55h16v-18h15v20l-15-1v48h-16c-.04,5.32.06,10.68,0,16-4.99.04-10.02-.03-15.01,0-.03,4.32.05,8.68,0,13.01-4.98.07-10.01-.06-15,0,1.65,9.3,1.66,20.66,0,29.99h15c.08-9.98-.11-20.02,0-30,4.99-.07,10.02.05,15.01,0,.03-4.32-.05-8.68,0-13.01,10.64-.09,21.36-.13,32,0,.04,14.32-.03,28.69,0,43.01h12.01v-43.01c-3.99-.04-8.01.05-12,0-.06-20.99.05-42.02,0-63.01h10.01s0-30.99,0-30.99h-10v-56h-17v-33h-13v34h14v54c-4.99-.03-10.01.04-15,0ZM113,310c.08,17.98.09,36.02,0,54-5.32.04-10.68-.03-16,0v-55h-15v54.5c0,.21,1.5,1.13,1,1.49h-11v31.01h10v61.5c1.39,2.27,2.15.5,2.5.5h27.5v14l16-1v-14h-15v-14h-16v-47h-14v-17.5c0-.3-1.27-.77-1-1.5h16c-1.32,5.34-2.28,14.15.5,19h14.5c.04-10.65-.05-21.35,0-32,4.99-.03,10.01.02,15,0v-54c-4.99-.04-10.01.06-15,0-.05-11.32.04-22.68,0-34h-15c1.95,10.49,1.07,22.3.44,33.03,1.24,1.73,11.68.94,14.56.97ZM113,442v-45h-1v45h1ZM82,502c-.16-14.32.11-28.69,0-43h-10v43c3.32.04,6.68-.06,10,0,.05,4.32-.03,8.68,0,13h47l-1-12.99h13v-30.01h-13v27.5c0,.25,1.18.8.58,1.51-.52.76-1.23.87-2.07,1-10.99,1.67-32.44.19-44.51-.01ZM175,544v-59h-1v59h1ZM314,544v-59h-1v59h1ZM403,502h-44v13h44v-13ZM314,636v-35h-1v35h1Z"/>
      <path d="M373,364c-4.65-.04-9.35.03-14,0v-53.5c-3.18-3-8.85-.92-13-1.5v67h-13v30h-49v19h47v53h-15.5c-.21,0-1.13-1.5-1.49-1v7h-16.01v61h16v10h17v38h-17v7c-.37.5-1.29-1-1.5-1h-14.5v39h50l-1,13h14v15h11v16h-87v-209h-80v209h-92v-16h11v-15h14l-1-13h56v-38h-18v37h-1v-45c-5.54,2.97-11.35-2.12-16.99,1l.99-38h16v-10h19v-61h-19v-6h-17v-53h48c.27-.73-1-1.2-1-1.5v-16c0-.3,1.27-.77,1-1.5h-49v-29h-12v-66.5l-1.46-1.13-14.54-.37v-12.01h16.01v-22h-31v-11h92c.27-.73-1-1.2-1-1.5v-15.5h-48v-19l-14,1v-123l13,1v-16h16v-10h152v10h14v16h12v124h-14l1,16h-52v17h89c-2.04,3.83-.52,8.05,0,12h-27c-.27.73,1,1.2,1,1.5v19.5h12.01s.58,13.11.58,13.11l14.42.88c-.02,12.22-.96,24.31-1.05,36.55-.04,5.59.2,10.76.05,16.45,4.99.04,10.01-.03,15,0v-54h-14v-34h13v33h17v56h10v31h-10.01c.05,20.98-.06,42.01,0,63,3.99.05,8.01-.04,12,0v43h-12.01c-.02-14.31.05-28.68,0-43-10.64-.13-21.36-.09-32,0-.05,4.32.03,8.68,0,13.01-4.99.05-10.02-.08-15.01,0-.11,9.98.08,20.02,0,30h-15c1.66-9.34,1.65-20.69,0-29.99,4.99-.07,10.01.06,15,0,.05-4.32-.03-8.68,0-13.01,4.99-.02,10.02.05,15.01,0,.06-5.32-.04-10.68,0-16h16v-48l15,1v-20h-15v18h-16c.28-8.15-.37-16.4-.04-24.55.08-2.02,1-3.98,1.04-5.45ZM322,82h-148v1h148v-1ZM324,92h-150.5c-.3,0-.77-1.27-1.5-1v17l-14-.99c-.5.36,1,1.28,1,1.49v111.5h12v15h152l-1-14h14v-115h-13.01s1.01-14,1.01-14ZM336.01,91.99h-11.01s0,13.01,0,13.01l9-.02-8-.98.58-11.02h8.43c.08,2.83-.12,5.7,0,8.53.05,1.22-.75,3.72.99,3.48l.02-13ZM144,226v-118h-1v119h11.99c.23-1.76-2.26-.95-3.48-1-2.5-.11-5.03.07-7.51,0ZM348,229v-121h-1v120l-9.99.99h10.99ZM338,221v-109h-1v109h1ZM204,245h-40v1h40v-1ZM326,245h-40v1h40v-1ZM270,247h-51c2.73,5.52-.65,11.27,0,17h51v-17ZM204,265h-90v1h90v-1ZM371,265h-86v1h85l.99,7.99v-8.99ZM331,276h-174c-.27.73,1,1.2,1,1.5v98c0,.3-1.27.77-1,1.5h14v17h148v-18l12,1v-101ZM386,277h-9.99s8.99,1,8.99,1v30h1v-31ZM403,364v-54h-1v54h1ZM146,375v-64h-1v65h6s0-.99,0-.99h-5ZM362,362v-50h-1v51h11v-51h-1v50h-9ZM390,347v-35h-1v35h1ZM413,394v-26h-1v26h1ZM226,395h-38v1h38v-1ZM264,395h-33v1h33v-1ZM318,395h-43v1h43v-1ZM403,397h-14v.99s13,.01,13,.01v59h1v-60ZM204,404h-46v1h46v-1ZM332,404h-48v1h48v-1ZM272,405c-1.08-.37-2.19,1-2.5,1h-48c-.25,0-.59-.81-1-.78l-1.5,1.28v17c.88,1.43,1.99,1.38,3.45,1.55,10.45,1.23,29.06.43,40.09,0,3.39-.13,6.19-2.13,9.46-.05v-20ZM330,476v-50h-1v49c-2.82.08-5.68-.12-8.51,0-1.22.05-3.72-.75-3.48.99h12.99ZM159,466v-39h-1v39h1ZM193,436h-22v33h23c.27-.73-1-1.2-1-1.5v-31.5ZM286,436h-81v20h81v-20ZM319,436h-20v33h20v-33ZM406,500v-30h-1v30h1ZM280,471h-74v1h74v-1ZM345,501v-28h-1v28h1ZM204,532v-28h-1v28h1ZM204,595v-59h-1v59h1ZM330,556h-16v1h15v34h1v-35ZM193,563h-24c2.3,6.54-1,13.17,0,20h22.5c.36,0,.81,1.63,1.5.51l.98-1.01c-.04-.38-.98-.69-.98-1v-18.5ZM319,563c-6.8,2.82-13.94-1.05-21,0v20h19.5c.3,0,.77,1.27,1.5,1v-21ZM204,653v-53h-1v53h1ZM166,639h-27v10.99s1-9.99,1-9.99h26v-1ZM342,639h-43v1h43v-1ZM193,652h-54l-1,15h56l-1-15ZM348,652h-50v15h50v-15ZM371,681v-14h-.99s-.01,13-.01,13h-83v1h84ZM204,680h-89v1h89v-1Z"/>
      <path d="M113,310c-2.89-.04-13.32.75-14.56-.97.63-10.73,1.51-22.54-.44-33.03h15c.04,11.32-.05,22.68,0,34,4.99.06,10.01-.04,15,0v54c-4.99.02-10.01-.03-15,0-.05,10.65.04,21.35,0,32h-14.5c-2.78-4.85-1.82-13.66-.5-19h-16c-.27.73,1,1.2,1,1.5v17.5h14v47h16v14h15v14l-16,1v-14h-27.5c-.35,0-1.11,1.77-2.5-.5v-61.5h-10v-31h11c.5-.37-1-1.29-1-1.5v-54.5h15v55c5.32-.03,10.68.04,16,0,.09-17.98.08-36.02,0-54ZM100,277v29h1v-28c2.49-.07,5.02.11,7.51,0,1.22-.05,3.72.76,3.48-.99h-11.99ZM85,364v-53h-1v53h1ZM127,363v-51h-1v50l-11.52-.98-.48,1.98h13ZM115,343v-29h-1v29h1ZM85,455v-55h-1v55h1Z"/>
      <path d="M82,502c-3.32-.06-6.68.04-10,0v-43h10c.11,14.31-.16,28.68,0,43,12.06.2,33.52,1.68,44.51.01.84-.13,1.55-.25,2.07-1,.6-.71-.58-1.26-.58-1.51v-27.5h13v30h-13s1,13,1,13h-47c-.03-4.32.05-8.68,0-13ZM140,473h-10v28h9.99s-8.99-1-8.99-1v-26h8v25h1v-26Z"/>
      <path d="M403,502v13h-44v-13h44ZM361,512l-.99-7.99v8.99s41.99,0,41.99,0v-8.99s-1,7.99-1,7.99h-40Z"/>
      <rect x="174" y="485" width="1" height="59"/>
      <rect x="313" y="485" width="1" height="59"/>
      <rect x="112" y="397" width="1" height="45"/>
      <rect x="313" y="601" width="1" height="35"/>
      <path class="cls-1" d="M324,92l-1.01,14.01h13.01s0,114.99,0,114.99h-14l1,14h-152v-15h-12v-111.5c0-.21-1.5-1.13-1-1.49l14,.99v-17c.73-.27,1.2,1,1.5,1h150.5ZM229,149h-25v39h22.5c.25,0,.59.81,1,.78l1.5-1.28v-38.5ZM311,149h-23v40c.73.27,1.2-1,1.5-1h20c.3,0,.77,1.27,1.5,1v-40Z"/>
      <path class="cls-1" d="M331,276v101l-12-1v18h-148v-17h-14c-.27-.73,1-1.2,1-1.5v-98c0-.3-1.27-.77-1-1.5h174Z"/>
      <rect class="cls-1" x="205" y="436" width="81" height="20"/>
      <path class="cls-1" d="M272,405v20c-3.27-2.08-6.07-.09-9.46.05-11.03.43-29.65,1.23-40.09,0-1.46-.17-2.57-.12-3.45-1.55v-17l1.5-1.28c.41-.03.75.78,1,.78h48c.31,0,1.42-1.37,2.5-1Z"/>
      <path class="cls-1" d="M270,247v17h-51c-.65-5.73,2.73-11.48,0-17h51Z"/>
      <polygon class="cls-1" points="193 652 194 667 138 667 139 652 193 652"/>
      <rect class="cls-1" x="298" y="652" width="50" height="15"/>
      <path class="cls-1" d="M193,436v31.5c0,.3,1.27.77,1,1.5h-23v-33h22Z"/>
      <rect class="cls-1" x="299" y="436" width="20" height="33"/>
      <path class="cls-1" d="M193,563v18.5c0,.31.95.62.98,1l-.98,1.01c-.69,1.12-1.14-.51-1.5-.51h-22.5c-1-6.83,2.3-13.46,0-20h24Z"/>
      <path class="cls-1" d="M319,563v21c-.73.27-1.2-1-1.5-1h-19.5v-20c7.06-1.05,14.2,2.82,21,0Z"/>
      <rect class="cls-1" x="174" y="82" width="148" height="1"/>
      <polygon class="cls-1" points="348 229 337.01 228.99 347 228 347 108 348 108 348 229"/>
      <path class="cls-1" d="M144,226c2.49.07,5.02-.11,7.51,0,1.22.05,3.72-.76,3.48.99h-11.99s0-118.99,0-118.99h1v118Z"/>
      <rect class="cls-1" x="337" y="112" width="1" height="109"/>
      <polygon class="cls-1" points="371 681 287 681 287 680 370 680 370.01 667.01 371 667 371 681"/>
      <polygon class="cls-1" points="371 265 370.99 273.99 370 266 285 266 285 265 371 265"/>
      <rect class="cls-1" x="114" y="265" width="90" height="1"/>
      <rect class="cls-1" x="115" y="680" width="89" height="1"/>
      <rect class="cls-1" x="206" y="471" width="74" height="1"/>
      <polygon class="cls-1" points="146 375 151 375.01 151 375.99 145 376 145 311 146 311 146 375"/>
      <path class="cls-1" d="M330,476h-12.99c-.23-1.75,2.26-.95,3.48-1,2.83-.12,5.69.08,8.51,0v-49h1v50Z"/>
      <rect class="cls-1" x="203" y="536" width="1" height="59"/>
      <rect class="cls-1" x="203" y="600" width="1" height="53"/>
      <polygon class="cls-1" points="330 556 330 591 329 591 329 557 314 557 314 556 330 556"/>
      <rect class="cls-1" x="284" y="404" width="48" height="1"/>
      <rect class="cls-1" x="158" y="404" width="46" height="1"/>
      <rect class="cls-1" x="275" y="395" width="43" height="1"/>
      <rect class="cls-1" x="299" y="639" width="43" height="1"/>
      <path class="cls-1" d="M336.01,91.99l-.02,13c-1.74.23-.94-2.27-.99-3.48-.12-2.83.08-5.7,0-8.52h-8.43s-.58,11.01-.58,11.01l8,.98-9,.02v-13.01s11.01,0,11.01,0Z"/>
      <rect class="cls-1" x="286" y="245" width="40" height="1"/>
      <rect class="cls-1" x="164" y="245" width="40" height="1"/>
      <rect class="cls-1" x="158" y="427" width="1" height="39"/>
      <rect class="cls-1" x="188" y="395" width="38" height="1"/>
      <polygon class="cls-1" points="166 639 166 640 140 640 139.01 649.99 139 639 166 639"/>
      <rect class="cls-1" x="231" y="395" width="33" height="1"/>
      <rect class="cls-1" x="203" y="504" width="1" height="28"/>
      <polygon class="cls-1" points="403 397 403 457 402 457 402 398 389.01 397.99 389 397 403 397"/>
      <rect class="cls-1" x="402" y="310" width="1" height="54"/>
      <polygon class="cls-1" points="386 277 386 308 385 308 385 278 376.01 277.01 386 277"/>
      <rect class="cls-1" x="389" y="312" width="1" height="35"/>
      <rect class="cls-1" x="412" y="368" width="1" height="26"/>
      <rect class="cls-1" x="84" y="400" width="1" height="55"/>
      <rect class="cls-1" x="84" y="311" width="1" height="53"/>
      <polygon class="cls-1" points="127 363 114 362.99 114.48 361.02 126 362 126 312 127 312 127 363"/>
      <rect class="cls-1" x="114" y="314" width="1" height="29"/>
      <polygon class="cls-1" points="362 362 371 362 371 312 372 312 372 363 361 363 361 312 362 312 362 362"/>
      <polygon class="cls-1" points="361 512 401 512 401.99 504.01 402 513 360 513 360.01 504.01 361 512"/>
      <rect class="cls-1" x="405" y="470" width="1" height="30"/>
      <path class="cls-1" d="M100,277h11.99c.23,1.76-2.26.95-3.48,1-2.5.11-5.03-.07-7.51,0v28h-1v-29Z"/>
      <rect class="cls-1" x="344" y="473" width="1" height="28"/>
      <polygon class="cls-1" points="140 473 140 499 139 499 139 474 131 474 131 500 139.99 500.99 130 501 130 473 140 473"/>
      <path d="M229,149v38.5l-1.5,1.28c-.41.03-.75-.78-1-.78h-22.5v-39h25Z"/>
      <path d="M311,149v40c-.73.27-1.2-1-1.5-1h-20c-.3,0-.77,1.27-1.5,1v-40h23Z"/>
    </g>
  </g>
</svg>