<?xml version="1.0" encoding="UTF-8"?>
<svg id="Layer_2" data-name="Layer 2" xmlns="http://www.w3.org/2000/svg" viewBox="0 0 307.01 529.01">
  <defs>
    <style>
      .cls-1 {
        fill: #6d6d6d;
      }

      .cls-2 {
        fill: #262626;
      }

      .cls-3 {
        fill: #3c3c3c;
      }

      .cls-4 {
        fill: #070707;
      }

      .cls-5 {
        fill: #040404;
      }

      .cls-6 {
        fill: gray;
      }

      .cls-7 {
        fill: #7c7c7c;
      }

      .cls-8 {
        fill: #595959;
      }

      .cls-9 {
        fill: #393939;
      }

      .cls-10 {
        fill: #545454;
      }

      .cls-11 {
        fill: #010101;
      }

      .cls-12 {
        fill: #707070;
      }

      .cls-13 {
        fill: #0a0a0a;
      }

      .cls-14 {
        fill: #030303;
      }

      .cls-15 {
        fill: #363636;
      }

      .cls-16 {
        fill: #909090;
      }

      .cls-17 {
        fill: #7a7a7a;
      }

      .cls-18 {
        fill: #171717;
      }

      .cls-19 {
        fill: #111;
      }

      .cls-20 {
        fill: #8d8d8d;
      }

      .cls-21 {
        fill: #919191;
      }

      .cls-22 {
        fill: #3b3b3b;
      }

      .cls-23 {
        fill: #5c5c5c;
      }

      .cls-24 {
        fill: #3a3a3a;
      }

      .cls-25 {
        fill: #696969;
      }

      .cls-26 {
        fill: #373737;
      }

      .cls-27 {
        fill: #4e4e4e;
      }

      .cls-28 {
        fill: #060606;
      }

      .cls-29 {
        fill: #0d0d0d;
      }

      .cls-30 {
        fill: #050505;
      }

      .cls-31 {
        fill: #575757;
      }

      .cls-32 {
        fill: #252525;
      }

      .cls-33 {
        fill: #3f3f3f;
      }

      .cls-34 {
        fill: #020202;
      }

      .cls-35 {
        fill: #7d7d7d;
      }

      .cls-36 {
        fill: #0b0b0b;
      }

      .cls-37 {
        fill: #868686;
      }

      .cls-38 {
        fill: #666;
      }

      .cls-39 {
        fill: #353535;
      }

      .cls-40 {
        fill: #565656;
      }

      .cls-41 {
        fill: #121212;
      }

      .cls-42 {
        fill: #7e7e7e;
      }

      .cls-43 {
        fill: #101010;
      }

      .cls-44 {
        fill: #858585;
      }

      .cls-45 {
        fill: #8b8b8b;
      }

      .cls-46 {
        fill: #4a4a4a;
      }

      .cls-47 {
        fill: #747474;
      }

      .cls-48 {
        fill: #383838;
      }

      .cls-49 {
        fill: #818181;
      }

      .cls-50 {
        fill: #222;
      }

      .cls-51 {
        fill: #838383;
      }

      .cls-52 {
        fill: #585858;
      }

      .cls-53 {
        fill: #131313;
      }

      .cls-54 {
        fill: #232323;
      }

      .cls-55 {
        fill: #2d2d2d;
      }

      .cls-56 {
        fill: #6a6a6a;
      }

      .cls-57 {
        fill: #737373;
      }

      .cls-58 {
        fill: #2f2f2f;
      }

      .cls-59 {
        fill: #313131;
      }

      .cls-60 {
        fill: #484848;
      }

      .cls-61 {
        fill: #787878;
      }

      .cls-62 {
        fill: #535353;
      }

      .cls-63 {
        fill: #555;
      }

      .cls-64 {
        fill: #0e0e0e;
      }

      .cls-65 {
        fill: #4c4c4c;
      }

      .cls-66 {
        fill: #343434;
      }

      .cls-67 {
        fill: #161616;
      }

      .cls-68 {
        fill: #090909;
      }

      .cls-69 {
        fill: #4d4d4d;
      }
    </style>
  </defs>
  <g id="Layer_2-2" data-name="Layer 2">
    <g>
      <path class="cls-50" d="M89.01,13.01v19.01s-12,.99-12,.99h-1v94c4.32.04,8.68-.06,13,0,.05,4.32-.03,8.68,0,13.01l130.01-1.01c1.91-3.78,1.06-8.14,0-12l12,1,.99-101.01h10.01c0,34.32,0,68.69,0,103.01-2.49.37-9.25-.96-10.56.94l-.44,17.06-40,1c-.03.33.05.67,0,1-.68,4.86.49,10.97,0,16l79.01.99v10.01s-12.01.99-12.01.99c-.33.01-.67-.02-1,0-.99.06-2.03-.12-3,0h-9c-.5.37,1,1.29,1,1.5v19.5h9c.91.15,2.02-.08,3,0,4.22.34,7.34,1.1,12,0l1.89-20.42,10.12-.59c.03,11.32-.06,22.69,0,34.01-.66.03-1.33,0-2,0-4.04.01-4.51,1.22-9,0-.12-.03-.4-1.03-1-1-1.73.09-1.9,2.16-2.05,3.45-1.31,11.27,1.06,25.01.05,36.55h-6.01c-.34-11.8.47-23.71,0-35.51-.05-1.38.7-4.11-1-4.5l-1,41-.99-41.01c-4.31.16-8.7-.2-13.01,0-.66.03-1.34-.05-2,0-.12,14.32.15,28.69,0,43.01l-.99,12.01h-7.01c-1.25-10.4,2.06-84.75-.99-88.01-.35-.38-1.48-.58-2-1l-144,1c-4.32.05-8.68-.04-13,0-3.32,10.68,1.5,85.5-2,89h-11v-56c-3.79.37-8.34-.51-12,0-.33.05-.67-.03-1,0l-.99,41.01c-1.99-.02-4.01.04-6.01,0-1.33-.03-2.68.04-4,0l-1-40.01c-.33-.02-.67.02-1,0l-10-1c-.62-10.14,1.29-21.14-1-31l11.01-.99v-12.01s80.99,0,80.99,0c-.63-3.95,1.29-15.39-1-18-.94-1.07-1.03-.92-2.4-1.06-9.02-.92-21.68-.06-31.11.04-1.69.02-4.45-.64-5.49,1.02-.66-.03-1.34.05-2,0v-16.01s-13,0-13,0V25.01h13.01s-.01-12.01-.01-12.01c4.3-.21,8.72.3,13.01,0ZM131.01,150.01v16h46v-16h-46ZM39.01,200.01l1.43,1.03,22.57-.02.02-17.56-1.03-1.45h-24.01s1.01,18,1.01,18Z"/>
      <path class="cls-54" d="M217.01,2.01c-.58,4.03.81,7.36,1,11,.23,4.3-.16,8.69,0,13l-.91-.56c-.6-4.04,1-7.94-1.09-11.44-.42-.71-1.44-1.32-2-2v-1h-122l-1,1c-.33.02-.67-.02-1,0,.05-3.66-.04-7.35,0-11.01l127.01,1.01Z"/>
      <path class="cls-53" d="M232.01,269.01c.07,3.32.92,6.82,1,9,.18,4.64-.13,9.36,0,14h-41v13h41v49h-14l1,136c-.47.07-.89.52-1,1-4.65-.05-9.35.03-14,0v-1l13-1c1.33-43.68-1.78-88.44,0-132,.05-1.2-.58-3.29.58-4.11l11.42-.89,1.01-46.01c-7.98-.09-16.02.14-24.01,0-5.33-.09-10.78.45-16.06-.44-1.42-.99-1.88-12.8.56-14.56h39.5v-21h-11.01c-.43,3.02,1.13,7.86-.99,10-36.32.11-72.68-.15-109,0v-1c35.5.17,71.04-.16,106.55.04l2.45-1.04v-9.01s13,0,13,0Z"/>
      <path class="cls-34" d="M190.01,344.01l1,183h65v-20.5c-2.13-2.61-5.99-1.23-9-1.5-.53,3.32,1.23,9.76-1,12v-1l-2-11c-.02-.33.02-.67,0-1,4.65.03,9.34-.03,14,0-2.11,7.88-.93,16.94,0,24.99h-68v-184h-72v-1h72Z"/>
      <path class="cls-11" d="M76.01,269.01c.03,6.98-.02,14.02,0,21h42v15h-40v48h11.01s0,4,0,4v133s14-1,14-1h1c.08.56,1.39,1.74,1,1.99-5.99.04-12.01-.02-18,.01-7.99.05-16.02-.03-24.01,0l1.01,11.01h39.5s-.5,1-.5,1c-13.32.1-26.69-.14-40,0-.33,0-.67,0-1,0,.03-4.32-.02-8.68,0-13h26v-136h-11v-50h40v-13h-42v-22c.33.03.67-.02,1,0Z"/>
      <path class="cls-5" d="M118.01,345.01v184H50.01v-26c3.99-.04,8.01.05,12,0-.03,4.32.02,8.68,0,13l-.99-11.01h-10.01v22.01h65l1-182h1Z"/>
      <path class="cls-30" d="M39.01,330.01l11.99-1v11s12.01,0,12.01,0v31h-12.01s-.51,12.01-.51,12.01c-12.17-1.79-25.79-1.41-38.03-.24-1.8-.14-1.99-9.88-.46-11.76H.01v-41.01c3.58.24,7.47-.34,11,0,.45.04.9.53,1,1H1.01v39h10.01s.99-29,.99-29v1c.37,8.95-.5,18.07,0,27,.02.27.98.76,1,1,.05.66-.06,1.34,0,2,.27,2.93-.2,6.05,0,9.01h36.01c.03-1.33-.03-2.67,0-4.01.04-2-.02-4.01,0-6.01-1.22-1.27-30.95,1.71-35.01-.99,11.98-.11,24.02.15,36,0,3.99-.05,8.01.04,12,0v-28l-10.9.11c-.14,8.02-.31,16.08.2,24.1.11,1.71,2.16,3.2-1.3,2.79v-28.01c-11.77.62-24.33-.82-36,0l35.06-1.44.94-8.57c-3.16-.48-8.85,1.19-11-1Z"/>
      <path class="cls-30" d="M235.01,178.01v89.01s9.01,0,9.01,0c.03-4.32-.05-8.68,0-13.01.15-14.32-.12-28.69,0-43.01.66-.05,1.33.04,2,0l-.99,58.01h-11.01c-.06-30.01-2.03-60.75-1-91.01v-1c.52.42,1.65.62,2,1Z"/>
      <path class="cls-18" d="M262.01,251.01h6.01c1.01-11.54-1.36-25.28-.05-36.55.15-1.3.31-3.36,2.05-3.45l-.75,39.54c.37,2.08,9.67,1.76,11.75,1.46.47-.07.89-.52,1-1,.04.2.81.61,1,1-2.28,2.27-9.55.43-13.01.99v10.01c3.06.61,13.13-1.7,14.01,1.99l-2,1c-.13-.82.3-1.98-1-2-3.9-.03-7.29,2.26-11,0v59l11-1h1v1c-4.15,1.65-7.57.9-12,1l-1,8v-80.01s-9,0-9,0l1-41-.03,38.55,1.03,1.45Z"/>
      <path class="cls-61" d="M233.01,178.01c-1.03,30.25.94,61,1,91,0,1.45-2.08,6.26-1,9-.08-2.18-.93-5.68-1-9-.62-29.96.46-60.04,0-90.01l-137.62-.07-3.38,1.07h-1v-2c47.64-.43,95.36.32,143,0Z"/>
      <path class="cls-34" d="M231.01,26.01h13.01s-1.01,106-1.01,106l-1-105h-10.01s-.99,101-.99,101c-.22-33.65.3-67.36,0-101,0-.33,0-.67,0-1Z"/>
      <path class="cls-11" d="M25.01,212.01c-.01-.71-1-2.54-1.04-4.43-.21-9.85.24-19.74.04-29.58h12.01s0-11.99,0-11.99h81v-16h-42v-16h-13V24.01h13.01s0-12,0-12h14V0s128.5,0,128.5,0c1.61.36-.48,1.88-.5,2.01l-127.01-1.01c-.03,3.66.06,7.35,0,11.01-.27.01-.76.98-1,1-4.28.3-8.71-.21-13.01,0v12.01s-12.99,0-12.99,0v108h13.01s0,16.01,0,16.01c.66.05,1.33-.04,2,0,12.92.63,26.06-.47,39,0,2.29,2.61.37,14.05,1,18H37.01v12.01s-11,.99-11,.99l-.03,29.55,1.03,1.45,10,1c-3.79-.27-8.14-.06-12,0Z"/>
      <path class="cls-30" d="M296.01,265.01v66.01s11,0,11,0v39h-12.01s0,11,0,11h-40v-11.01s-9,0-9,0v-27c3.65-.04,7.35.05,11,0-.02.33.02.67,0,1-.37,6.28-1.44,13.71-2,20,.7-6.26-.52-13.61,0-20.01h-8.01v25.01h6.99c-.83-1.92.91-4.1,1.01-5-.12,1.35-.26,4.06.44,5.06l38.56.94c2.07-7.31.68-15.84,1-23.51.05-1.23-.76-3.71,1-3.49v26h10v-37h-11.01c1.15-20.74-1.5-43.05-.07-63.62.14-1.96.55-2.07,1.07-3.38ZM257.01,372.01l.58,7.02h36.43s0-7.02,0-7.02c-.11-1.38-1.47-.92-2.45-1.04-10.12-1.25-22.69,1.04-33.11.02l-1.45,1.03Z"/>
      <path class="cls-30" d="M191.01,166.01h80.01s-.01,11.01-.01,11.01h12.01s0,34.99,0,34.99c-.33,0-.67-.01-1,0-.05-11.32.03-22.69,0-34.01l-10.12.59-1.89,20.42v-21.01c-3.98.13-8.02-.17-12,0l12.01-.99v-10.01s-79.01-.99-79.01-.99Z"/>
      <path class="cls-67" d="M12.01,252.01c.02.11,1.44.74,1,1.99H2.01s0,9.01,0,9.01l10.56.98c.68.88.22,2.23.45,3.01v62c-.25.53.17,1.68-1,2-.1-.47-.55-.96-1-1l1.01-65.01H0s0-12.43,0-12.43c.26-1.97,10.02,2.12,12.01-.57Z"/>
      <path class="cls-34" d="M38.01,212.01l1,40.01c1.33.03,2.67-.03,4,0v1c-1.33.03-2.68-.04-4,0v77.01c-1.81-1.84-.92-5.39-1-8-.56-18.58,0-37.4,0-56v-54Z"/>
      <path class="cls-64" d="M76.01,269.01c-.33-.02-.67.03-1,0-4.18-.35-9.6,1.09-13-1,3.31-.53,9.78,1.22,12-1,3.5-3.5-1.32-78.32,2-89,.11,30.32-.15,60.68,0,91Z"/>
      <path class="cls-3" d="M243.01,132.01h-1v-2c0-34.32,0-68.68,0-103l1,105Z"/>
      <path class="cls-34" d="M25.01,212.01c.25,13.64-.19,27.36,0,41-2.64-2.66-.07-33.2-1-39l-10.01-1.01v39.01s-1.99-39-1.99-39c.58-1.77,10.4-.96,13-1Z"/>
      <path class="cls-43" d="M291.01,213.01c-2.41-.11-6.42-.68-8,1,.73,1.5,1.02,2.74,1.06,4.44.23,9.18.73,21.22,0,30.15-.13,1.62.28,2.08-1.06,3.41-.19-.39-.96-.8-1-1-1.65-9.25.05-28.48,0-39,.33-.01.67,0,1,0,2.46-.04,6.37-.73,8,1Z"/>
      <path class="cls-34" d="M242.01,130.01v2h-10v19l-41-1c.05-.33-.03-.67,0-1l40-1,.44-17.06c1.32-1.89,8.08-.57,10.56-.94Z"/>
      <path class="cls-4" d="M51.01,211.01c3.66-.51,8.21.37,12,0v56h11c-2.22,2.22-8.69.47-12,1v-56.01s-11-.99-11-.99Z"/>
      <path class="cls-29" d="M291.01,213.01c1.66.08,3.35-.07,5.01,0v40.01c2.7.44,10.18-1.47,10.99,1.99h-10c-.46-.29-1.2-.36-1.49-.98l-.65-38.38c-1-3.05-9.15-1.14-11.86-1.64,1.58-1.68,5.59-1.11,8-1Z"/>
      <path class="cls-11" d="M269.01,331.01v1h-11.01s0,10.01,0,10.01l36.01.99c-12.31.13-24.69-.18-37,0,.28-3.95-.2-8.04,0-12.01h12.01Z"/>
      <path class="cls-36" d="M244.01,504.01c-2-.01-4,.01-6,0-1.04-1.66-3.79-1-5.49-1.02-7.99-.1-16.05.35-24.02.02-1.23-.05-3.71.76-3.49-1h34.5c.67,0,3.4,1.16,3.49,1v-12h1.01c.17,4.3-.25,8.7,0,13Z"/>
      <path class="cls-64" d="M218.01,13.01h13.01c.03,4.32-.05,8.68,0,13,0,.33,0,.67,0,1-.63-.19-1.47-.95-2-1-3.51-.34-7.43.24-11,0-.16-4.31.23-8.7,0-13ZM230.02,14h-11.01v11.01h11.01v-11.01Z"/>
      <path class="cls-11" d="M50.01,211.01v42.01c-2.32.03-4.67-.05-7,0v-1c2,.04,4.01-.02,6.01,0l.99-41.01Z"/>
      <path class="cls-15" d="M307.01,255.01l-.11,8.89-10.89,1.11c.2-.51-.6-1.8.63-2.04l8.38.05v-7.01c-3.11-.07-5.32.71-8.01-1h10Z"/>
      <path class="cls-50" d="M14.01,252.01c1.7-.39.95-3.12,1-4.5.44-11.13-.32-22.37,0-33.51h9.01c.93,5.8-1.64,36.35,1,39.01,2.22,2.23,9.93.88,13,0v13h-13v56h13c.08,2.61-.82,6.16,1,8,2.16,2.18,7.85.51,11,1l-.94,8.57-35.06,1.44c-.66.05-1.34-.03-2,0l-.99,29.01H1.01v-39.01h11c1.17-.32.75-1.47,1-2,.67-1.43.91-1.43,1.07-3.38.87-10.32,1.32-50.4-1.07-58.62-.23-.78.23-2.14-.45-3.01l-10.56-.98v-9.01s11,0,11,0c.44-1.25-.98-1.88-1-1.99-1.6-11.75,1.19-26.86,0-39l2,39Z"/>
      <path class="cls-11" d="M220.01,490.01c7.47-1.09,17.24.79,25,.01l-1,.99h-1c-7.98-.06-16.02.08-24,0,.11-.48.53-.93,1-1Z"/>
      <path class="cls-8" d="M100.01,14.01l1.5,6.01.49-6.02h114.01c2.08,3.51.49,7.41,1.09,11.45l.91.56c3.57.24,7.49-.34,11,0l1.01,100.01h-10.5s-.5.99-.5.99c1.06,3.86,1.91,8.22,0,12h-1l-.5-11.01-.49,10.02c-38.27.82-76.75-1.12-115.01,0l-1-11-10.02-1.58V34c2.66-.29,6.01,1,8.02-1,1.83-1.82,1-15.25,1-19ZM139.01,64.01c-6.65-.07-13.35.05-20,0-1.66,1.04-1,3.79-1.02,5.49-.07,7-.09,14.03,0,21.03.02,1.69-.64,4.45,1.02,5.49,5.83-.18,11.73.24,17.57.03,1.32-.05,2.26-1.02,2.43-1.03.31-.03,1.76,1.39,1.99,1l-.46-32.04c-1.19-1.64-1.46.04-1.53.04ZM187.01,96.01h19c1.38-.11.92-1.47,1.04-2.45,1.06-8.59-.89-19.25-.02-28.11l-1.03-1.45h-19c-1.66,1.04-1,3.79-1.02,5.49-.09,7-.07,14.03,0,21.03.02,1.69-.64,4.45,1.02,5.49ZM138.01,118.01v11h52v-11h-52Z"/>
      <path class="cls-24" d="M62.01,182.01c-.54,3.3,1.15,16.11-.94,17.56l-22.06.44-1.01-18.01h24.01Z"/>
      <path class="cls-31" d="M280.01,212.01c2.28,12.69.39,26.1,1,39h-10.01s0-39,0-39c4.49,1.22,4.96.01,9,0Z"/>
      <path class="cls-48" d="M257.01,178.01c.19.38.98.82,1,1,.7,5.91-.51,12.94,0,19v1c-.98-.08-2.09.15-3,0-2.21-.35-4.94-1.88-8-1v-19.01c2.64.98,5.48-.81,7-1,.97-.12,2.01.06,3,0Z"/>
      <path class="cls-23" d="M177.01,150.01v16h-46v-16h46ZM176.01,152.01h-44v12h44c-2.39-3.99.38-7.75,0-12Z"/>
      <path class="cls-34" d="M101.01,138.01c1.04,1.66,3.79,1,5.49,1.02,37.16.46,74.37-.38,111.51-.02h1l-130.01,1.01c-.03-4.32.05-8.68,0-13.01.33,0,.67,0,1,0,.05,2.53-.71,10.42.93,11.56,3.38,1.52,6.79-.45,10.07-.56Z"/>
      <path class="cls-34" d="M233.01,177.01v1c-47.64.32-95.36-.43-143,0-.33,0-.67,0-1,0l144-1Z"/>
      <path class="cls-65" d="M89.01,33.01v1h-12v92h12c0,.33,0,.67,0,1-4.32-.06-8.68.04-13,0V33.01h1c3.65-.38,8.19,0,12,0Z"/>
      <path class="cls-6" d="M37.01,212.01c.33.02.67-.02,1,0v41c-3.07.88-10.78,2.23-13,0-.19-13.64.25-27.36,0-41,3.86-.06,8.21-.27,12,0ZM37.01,213.01h-11v39h11v-39Z"/>
      <path class="cls-51" d="M231.01,27.01c.3,33.64-.22,67.35,0,101l-12-1,.5-.99h10.5s-1.01-100.01-1.01-100.01c.53.05,1.37.81,2,1Z"/>
      <path class="cls-55" d="M235.01,178.01c3.05,3.26-.25,77.6.99,88.01h7.01s.99-12.01.99-12.01c-.05,4.32.03,8.68,0,13.01h-9.01s0-89.01,0-89.01Z"/>
      <path class="cls-46" d="M89.01,178.01v1h-12.01s0,90,0,90c-.33-.02-.67.02-1,0-.15-30.32.11-60.68,0-91,4.32-.04,8.68.05,13,0Z"/>
      <path class="cls-6" d="M271.01,212.01v39.01s10,0,10,0v1c-2.08.3-11.38.62-11.75-1.46l.75-39.54c.6-.03.88.97,1,1Z"/>
      <path class="cls-35" d="M258.01,178.01c3.98-.18,8.02.13,12.01,0v21.01c-4.66,1.1-7.79.34-12.01,0v-1h11v-19h-11c-.02-.18-.81-.62-1-1,.33-.02.67.01,1,0Z"/>
      <path class="cls-43" d="M62.01,182.01l1.03,1.45-.02,17.56-22.57.02-1.43-1.03,22.06-.44c2.08-1.45.4-14.27.94-17.56Z"/>
      <path class="cls-21" d="M282.01,212.01c.05,10.52-1.65,29.75,0,39-.11.48-.53.93-1,1v-1c-.61-12.9,1.28-26.31-1-39,.67,0,1.34.03,2,0Z"/>
      <path class="cls-24" d="M231.01,148.01l-40,1,40-1Z"/>
      <path class="cls-33" d="M262.01,251.01l-1.03-1.45.03-38.55c1.7.39.95,3.12,1,4.5.47,11.8-.34,23.71,0,35.5Z"/>
      <path class="cls-26" d="M117.01,149.01c-12.94-.47-26.08.63-39,0,1.04-1.66,3.79-1,5.49-1.02,9.44-.1,22.09-.96,31.11-.04,1.37.14,1.46-.02,2.4,1.06Z"/>
      <path class="cls-46" d="M254.01,178.01c-1.53.18-4.36,1.98-7.01,1v19.01c3.07-.88,5.79.64,8.01,1h-9v-19.5c0-.21-1.5-1.13-1-1.49h9Z"/>
      <path class="cls-13" d="M90.01,33.01h-1c-3.81,0-8.35-.38-12,0l12.01-.99V13.01c.24-.02.73-.99.99-1-.1,6.98.03,14.02,0,21Z"/>
      <path class="cls-48" d="M27.01,211.01l-1.03-1.45.03-29.55c2.29,9.86.38,20.86,1,31Z"/>
      <path class="cls-38" d="M214.01,12.01c.56.68,1.58,1.29,2,2h-114.01s-.49,6.01-.49,6.01l-1.5-6.01v-2c37.94-.92,76.05.68,114,0Z"/>
      <path class="cls-9" d="M100.01,12.01v2c0,3.75.83,17.18-1,19h-9c.03-6.98-.1-14.02,0-21,.33-.02.67.02,1,0,2.98-.14,6.01.07,9,0Z"/>
      <path class="cls-11" d="M214.01,11.01v1c-37.95.68-76.06-.92-114,0-2.99.07-6.02-.14-9,0l1-1h122Z"/>
      <path class="cls-52" d="M91.01,180.01l3.38-1.07,137.62.07c.45,29.97-.63,60.05,0,90.01h-13.01s0,9,0,9h-2l-117-1c-.65-3.38,1.61-14.71-1.67-15.86-1.34-.47-3.01.03-4.33-.14l-3.08-2.44.08-78.56Z"/>
      <path class="cls-50" d="M77.01,269.01c.32.02,2.07,1.65,3.7,1.8,2.7.23,6.25-1.56,9.31-.8l.93,8.56c2.61,1.8,6.23-.48,8.07-.56,2.64,1.84,7.54.98,11,1v1c-5.82.02-11.7-.17-17.52,0-.87.03-3.6-.41-1.98,1.01l125.09.05c1.62-.13,2.08.27,3.41-1.06,2.13-2.14.57-6.98.99-10.01h11.01v21.01h-39.5c-2.44,1.76-1.99,13.57-.56,14.56,5.29.89,10.74.35,16.06.44,2.98,2.52,21.98-.03,23.01.99v45.01s-11.42.89-11.42.89c-1.17.82-.53,2.91-.58,4.11h-1l-12.33-1.04c-1.2.28-1.56,3.41-1.67,4.53-3.64,40.43,2.76,86.07-.05,127.06l2.05,3.45c4.65.03,9.35-.05,14,0,7.98.08,16.02-.06,24,0v12c-.1.16-2.83-1-3.5-1h-34.5c-.22,1.76,2.26.95,3.49,1,7.97.33,16.04-.12,24.02-.02,1.69.02,4.45-.64,5.49,1.02-10.99-.07-22.02.05-33.01,0v12.01h41.01s0,.99,0,.99l-41.01.5c11.99-.13,26.89,1.87,38.61.55,1.39-.16,1.42-.07,2.4-1.05,2.23-2.24.47-8.68,1-12,3.02.28,6.88-1.1,9,1.5v20.5h-65s-1-183-1-183h-72v1h-1l-1,182H51.01v-22h10.01s.99,11,.99,11h41.01s0-13,0-13l.5-1h-39.5s0-10,0-10c1.03-1.03,20.02,1.53,23.01-.99,5.99-.03,12.01.03,18-.01.39-.25-.92-1.43-1-1.99-.05-.32.04-.67,0-1v-131c-.33-.03-.67.05-1,0-4.26-.59-9.58.42-14,0v-4s-11,0-11,0v-48h40v-15h-42c-.02-6.98.03-14.02,0-21,.33.02.67-.02,1,0ZM130.01,292.01v12l49.01,1.01-1.01-13.01h-48ZM102.01,317.01c-3.97-.19-8.02.17-12,0-.96-.04-2.16.17-3,0-.09-.02-.18-1.25-.99-1l-.02,26h19.01c.05-.67-.04-1.34,0-2.01.4-8.28-.29-16.71,0-25.01l-3,2.01ZM118.01,316.01c-.02.33.02.67,0,1-.4,5.58.29,11.4,0,17h72c.03-.33-.05-.67,0-1,.72-5.16-.52-11.66,0-17h-72ZM206.01,335.01h12l2-17h-15c.58,5.42-1.27,12.14,1,17ZM205.01,338c4.77-.36,10.86,3.18,14.98-.5,0-2.1-11.62-1.74-13.5-1.5-1.38.18-3.14.76-1.49,2ZM103.01,517.01h-41v1h41v-1Z"/>
      <path class="cls-10" d="M217.01,357.01l1,132-13,1c.07-.32-.09-.7,0-1,.25-.81,1.57-1.9,1.07-3.38l-.07-128.62c3.72,2.15,7.16.43,11,0Z"/>
      <path class="cls-53" d="M217.01,357.01c-3.84.43-7.28,2.15-11,0l-1,132c-.09.3.07.68,0,1v1l-2.05-3.45c2.81-40.99-3.59-86.63.05-127.06.1-1.13.47-4.25,1.67-4.53l12.33,1.04Z"/>
      <path class="cls-49" d="M218.01,489.01l-1-132h1c-1.78,43.56,1.33,88.32,0,132Z"/>
      <path class="cls-19" d="M110.01,280.01c36.32-.15,72.68.11,109,0-1.33,1.33-1.79.93-3.41,1.06l-125.09-.05c-1.62-1.42,1.11-.98,1.98-1.01,5.82-.17,11.7.02,17.52,0Z"/>
      <path class="cls-20" d="M217.01,278.01h2l-2.45,1.04c-35.52-.21-71.05.12-106.55-.04-3.46-.02-8.36.84-11-1,.33-.01.67.01,1,0,38.43-1.33,78.4,0,117,0Z"/>
      <path class="cls-59" d="M207.01,306.01c7.98.14,16.02-.1,24.01,0l-1.01,46.01v-45.01c-1.02-1.02-20.02,1.53-23-.99Z"/>
      <path class="cls-25" d="M238.01,504.01c2,.01,4-.01,6,0,.02.33-.02.67,0,1h-38.01s0,10,0,10h38v-10l2,11h-41.01s0-12.01,0-12.01c10.99.06,22.02-.06,33.01,0Z"/>
      <path class="cls-10" d="M63.01,503.01l39.02,1.58v10.43s-39.02.99-39.02.99h-1c.02-4.32-.03-8.68,0-13,.33,0,.67,0,1,0Z"/>
      <path class="cls-17" d="M103.01,357.01v1h-13v130h13v1l-13.99,1v-133c4.41.42,9.74-.59,13.99,0Z"/>
      <path class="cls-45" d="M104.01,488.01c.04.33-.05.68,0,1h-1v-132c.33.05.67-.03,1,0v131Z"/>
      <path class="cls-42" d="M103.01,503.01v13.01s-40,0-40,0l39.01-.99v-10.43s-39.01-1.58-39.01-1.58c13.31-.14,26.68.1,40,0Z"/>
      <path class="cls-66" d="M87.01,491.01c-2.98,2.52-21.98-.03-23.01.99v10.01s-1-11.01-1-11.01c7.99-.03,16.02.05,24.01,0Z"/>
      <path class="cls-58" d="M116.01,527.01l1-182-1,182Z"/>
      <path class="cls-40" d="M12.01,342.01h37v27H12.01c-.5-8.93.37-18.05,0-27Z"/>
      <path class="cls-54" d="M14.01,370.01c4.05,2.7,33.78-.27,35.01.99-.02,1.99.04,4.01,0,6.01l-2.44,3.08-32.57-.08-1-8c-.06-.66.05-1.34,0-2h1Z"/>
      <path class="cls-54" d="M50.01,369.01c3.46.41,1.41-1.08,1.3-2.79-.51-8.03-.34-16.08-.2-24.1l10.9-.11v28c-3.99.04-8.01-.05-12,0v-1Z"/>
      <path class="cls-51" d="M14.01,341.01c11.67-.83,24.23.62,36.01,0v28.01s0,1,0,1c-11.98.15-24.02-.11-36,0h-1c-.02-.24-.98-.73-1-1h37v-27H12.01v-1c.66-.03,1.34.05,2,0Z"/>
      <path class="cls-9" d="M13.01,372.01l1,8,32.57.08,2.44-3.08c-.03,1.33.04,2.68,0,4H13.01c-.19-2.95.28-6.08,0-9Z"/>
      <path class="cls-50" d="M297.01,255.01c2.69,1.7,4.9.92,8,1v7.01s-8.38-.05-8.38-.05c-1.23.24-.42,1.54-.63,2.04-.52,1.31-.94,1.43-1.07,3.38-1.43,20.57,1.22,42.87.07,63.62h11.01s0,36.99,0,36.99h-10v-26c-1.76-.22-.95,2.26-1,3.49-.32,7.67,1.07,16.2-1,23.51v-27l-36.01-.99v-10.01s11.01,0,11.01,0l1-8c4.44-.09,7.86.66,12-1,.51-.2,1.8.6,2.04-.63l-.04-57.37c-.88-3.69-10.95-1.39-14.01-1.99v-10.01c3.45-.56,10.73,1.27,13.01-.99,1.33-1.33.93-1.79,1.06-3.41.72-8.93.23-20.97,0-30.15-.04-1.71-.33-2.94-1.06-4.44,2.71.5,10.86-1.41,11.86,1.64l.65,38.38c.29.63,1.03.69,1.49.98Z"/>
      <path class="cls-19" d="M284.01,265.01l.04,57.37c-.24,1.23-1.54.43-2.04.63v-1c-1.92-16.97,2.58-39.76,0-56l2-1Z"/>
      <path class="cls-61" d="M281.01,264.01v2h-10.01s0,54,0,54l1.44,1.03,8.56-.03v1l-11,1v-59c3.71,2.26,7.1-.03,11,0Z"/>
      <path class="cls-16" d="M282.01,266.01c2.58,16.24-1.92,39.03,0,56h-1v-58c1.3.02.87,1.18,1,2Z"/>
      <path class="cls-1" d="M91.01,180.01l-.08,78.56,3.08,2.44c-1.05-.14-2.31.24-3.41-.09l-.59-.91v-80h1Z"/>
      <path class="cls-2" d="M90.01,180.01v80l-1-81v-1c.33,0,.67,0,1,0v2Z"/>
      <path class="cls-54" d="M294.01,372.01l-.99,6.01h-34.44s-1.57-6.01-1.57-6.01l1.45-1.03c10.42,1.02,22.99-1.27,33.11-.02.98.12,2.34-.34,2.45,1.04Z"/>
      <path class="cls-54" d="M255.01,364.01c-.1.9-1.83,3.08-1.01,5h-6.99s0-25,0-25h8.01c-.52,6.39.7,13.74,0,20Z"/>
      <path class="cls-7" d="M294.01,343.01v27l-38.56-.94c-.7-1-.56-3.71-.44-5.06.56-6.29,1.63-13.72,2-20v25h36v-25h-36c.02-.33-.02-.67,0-1,12.31-.18,24.69.13,37,0Z"/>
      <polygon class="cls-48" points="257.01 372.01 258.58 378.02 293.02 378.01 294.01 372.01 294.02 379.01 257.59 379.02 257.01 372.01"/>
      <path class="cls-48" d="M13.01,329.01v-62c2.39,8.21,1.94,48.3,1.07,58.62-.16,1.95-.4,1.96-1.07,3.38Z"/>
      <path class="cls-35" d="M38.01,266.01c0,18.6-.56,37.42,0,56h-13v-56h13ZM37.01,267.01h-11v54h11v-54Z"/>
      <path class="cls-39" d="M24.01,214.01h-9.01c-.32,11.13.44,22.37,0,33.5-.05,1.38.7,4.11-1,4.5v-39.01s10,1.01,10,1.01Z"/>
      <rect class="cls-32" x="219.01" y="14" width="11.01" height="11.01"/>
      <path class="cls-41" d="M190.01,118.01v11h-52v-11h52ZM189.01,120.01h-47.5c-.21,0-1.13-1.49-1.49-1v8s48.99,0,48.99,0v-7Z"/>
      <path class="cls-36" d="M139.01,64.01v31c-.17.02-1.11.98-2.43,1.03-5.84.21-11.74-.21-17.57-.03v-1h19v-29h-18c1.6,7.54,1.26,16.65,1,24.55-.06,1.93,1.02,4.01-2,3.45-.42-9.95.31-20.04,0-30,6.65.05,13.35-.07,20,0Z"/>
      <path class="cls-64" d="M206.01,64.01v32h-19v-32h19ZM205.01,66.01h-16v29h16v-29Z"/>
      <path class="cls-22" d="M101.01,127.01l1,11c-.33,0-.67-.01-1,0-3.28.11-6.69,2.08-10.07.56-1.64-1.14-.89-9.03-.93-11.56,3.66.05,7.34-.03,11,0Z"/>
      <path class="cls-37" d="M218.01,139.01c-37.15-.36-74.36.48-111.51.02-1.69-.02-4.45.64-5.49-1.02.33-.01.67,0,1,0,38.25-1.11,76.73.82,115.01,0l.49-10.02.5,11.01Z"/>
      <path class="cls-57" d="M99.01,33.01c-2.01,1.99-5.36.7-8,1v91.43s10,1.58,10,1.58c-3.66-.03-7.34.05-11,0-.56-31.26-.15-62.73,0-94h9Z"/>
      <path class="cls-56" d="M139.01,64.01c.08,0,.34-1.69,1.53-.04l.46,32.04c-.24.39-1.68-1.03-1.99-1v-31Z"/>
      <path class="cls-45" d="M206.01,96.01v-32l1.03,1.45c-.88,8.85,1.08,19.51.02,28.11-.12.98.34,2.34-1.04,2.45Z"/>
      <path class="cls-49" d="M187.01,96.01c-1.66-1.04-1-3.79-1.02-5.49-.07-7-.09-14.03,0-21.03.02-1.69-.64-4.45,1.02-5.49v32Z"/>
      <path class="cls-44" d="M119.01,94.01c.01.33-.01.67,0,1v1c-1.66-1.04-1-3.79-1.02-5.49-.09-7-.07-14.03,0-21.03.02-1.69-.64-4.45,1.02-5.49.31,9.96-.42,20.05,0,30Z"/>
      <path class="cls-31" d="M258.01,179.01h11v19h-11c-.51-6.06.7-13.09,0-19Z"/>
      <path class="cls-27" d="M176.01,152.01c.38,4.25-2.39,8.01,0,12h-44v-12h44Z"/>
      <path class="cls-2" d="M90.01,127.01c-.33,0-.67,0-1,0,0-.33,0-.67,0-1-.27-30.65.2-61.35,0-92v-1h1c-.15,31.27-.56,62.74,0,94Z"/>
      <path class="cls-9" d="M89.01,34.01c.2,30.65-.27,61.35,0,92h-12V34.01h12Z"/>
      <rect class="cls-31" x="26.01" y="213.01" width="11" height="39"/>
      <path class="cls-9" d="M89.01,179.01l1,81,.59.91c1.11.33,2.36-.05,3.41.09,1.31.17,2.98-.33,4.33.14,3.28,1.15,1.03,12.48,1.67,15.86v1c-.33.01-.67-.01-1,0-1.83.08-5.46,2.36-8.07.56l-.93-8.56c-3.06-.76-6.61,1.03-9.31.8-1.62-.14-3.38-1.77-3.7-1.8v-90.01s12,0,12,0Z"/>
      <path class="cls-46" d="M217.01,278.01c-38.6,0-78.57-1.33-117,0v-1l117,1Z"/>
      <path class="cls-62" d="M90.01,317.01l13,1v22l-15,1c-1.38-.11-.92-1.47-1.04-2.45-.82-6.59.69-14.76.04-21.55.84.17,2.04-.04,3,0Z"/>
      <polygon class="cls-40" points="206.01 335.01 206.01 319 217.44 318.99 218.01 335.01 206.01 335.01"/>
      <path class="cls-1" d="M178.01,292.01v12.01s-48,0-48,0v-12h48ZM177.01,293.01h-45v10h45v-10Z"/>
      <path class="cls-49" d="M119.01,318.01v15.01s70,0,70,0h1c-.05.33.03.67,0,1h-72c.29-5.6-.4-11.42,0-17h1v1Z"/>
      <path class="cls-12" d="M190.01,333.01h-1v-15.01s-70,0-70,0v-1c21.9-.95,44.82,1.25,66.61.07,1.25-.07,2.52.05,3.39-1.07h1c-.52,5.34.72,11.84,0,17Z"/>
      <path class="cls-69" d="M189.01,316.01c-.87,1.12-2.14,1-3.39,1.07-21.79,1.18-44.71-1.02-66.61-.07h-1c.02-.33-.02-.67,0-1h71Z"/>
      <polygon class="cls-14" points="178.01 292.01 179.02 305.01 130.01 304.01 178.02 304.01 178.01 292.01"/>
      <path class="cls-17" d="M102.01,317.01c.66.03,1.34-.05,2,0v23.01s-16,1-16,1l15-1v-22l-13-1c3.98.17,8.03-.19,12,0Z"/>
      <path class="cls-47" d="M206.01,335.01c-2.27-4.86-.42-11.58-1-17h15l-2,17-.58-16.02h-11.43s0,16.02,0,16.02Z"/>
      <path class="cls-43" d="M87.01,317.01c.64,6.79-.86,14.96-.04,21.55.12.98-.34,2.34,1.04,2.45l16-1h1c-.03.66.05,1.34,0,2h-19.01s.02-26,.02-26c.81-.25.9.98.99,1Z"/>
      <path class="cls-13" d="M246.01,517.01c-.98.98-1,.9-2.4,1.05-11.72,1.32-26.63-.69-38.61-.55l41.01-.5Z"/>
      <rect class="cls-68" x="62.01" y="517.01" width="41" height="1"/>
      <path class="cls-39" d="M205.01,338c-1.66-1.24.11-1.82,1.49-2,1.88-.24,13.5-.59,13.5,1.5-4.12,3.68-10.21.13-14.98.5Z"/>
      <path class="cls-28" d="M102.01,317.01l3-2.01c-.29,8.29.41,16.72,0,25.01h-1v-23.01c-.66-.05-1.34.04-2,0Z"/>
      <path class="cls-49" d="M205.01,489.01l1-132,.07,128.62c.5,1.49-.82,2.57-1.07,3.38Z"/>
      <rect class="cls-10" x="206.01" y="505" width="38" height="10"/>
      <rect class="cls-63" x="90.01" y="358.01" width="13" height="130"/>
      <polygon class="cls-31" points="281.01 266.01 281.01 268.01 280.02 320.01 271.01 320.01 271.01 266 281.01 266.01"/>
      <path class="cls-60" d="M281.01,321.01l-8.56.03-1.44-1.03h9.01s.99-52,.99-52v53Z"/>
      <rect class="cls-63" x="257.01" y="344.01" width="36" height="25"/>
      <rect class="cls-40" x="26.01" y="267.01" width="11" height="54"/>
      <path class="cls-54" d="M189.01,120.01v7h-49v-8c.37-.5,1.29,1,1.5,1h47.5Z"/>
      <path class="cls-50" d="M119.01,94.01c3.02.56,1.94-1.53,2-3.45.26-7.89.6-17.01-1-24.55h18v29h-19c-.01-.33.01-.67,0-1Z"/>
      <rect class="cls-50" x="189.01" y="66.01" width="16" height="29"/>
      <rect class="cls-40" x="132.01" y="293.01" width="45" height="10"/>
      <rect class="cls-40" x="119.01" y="318" width="70.01" height="15.01"/>
    </g>
  </g>
</svg>