<?xml version="1.0" encoding="UTF-8"?>
<svg id="Layer_2" data-name="Layer 2" xmlns="http://www.w3.org/2000/svg" viewBox="0 0 366.24 548.01">
  <defs>
    <style>
      .cls-1 {
        fill: #0f0f0f;
      }

      .cls-2 {
        fill: #6d6d6d;
      }

      .cls-3 {
        fill: #262626;
      }

      .cls-4 {
        fill: #3c3c3c;
      }

      .cls-5 {
        fill: #070707;
      }

      .cls-6 {
        fill: #040404;
      }

      .cls-7 {
        fill: #474747;
      }

      .cls-8 {
        fill: #2b2b2b;
      }

      .cls-9 {
        fill: #828282;
      }

      .cls-10 {
        fill: #939393;
      }

      .cls-11 {
        fill: #6c6c6c;
      }

      .cls-12 {
        fill: #1b1b1b;
      }

      .cls-13 {
        fill: #7c7c7c;
      }

      .cls-14 {
        fill: #bdbdbd;
      }

      .cls-15 {
        fill: #545454;
      }

      .cls-16 {
        fill: #292929;
      }

      .cls-17 {
        fill: #010101;
      }

      .cls-18 {
        fill: #a7a7a7;
      }

      .cls-19 {
        fill: #727272;
      }

      .cls-20 {
        fill: #707070;
      }

      .cls-21 {
        fill: #0a0a0a;
      }

      .cls-22 {
        fill: #767676;
      }

      .cls-23 {
        fill: #363636;
      }

      .cls-24 {
        fill: #909090;
      }

      .cls-25 {
        fill: #1c1c1c;
      }

      .cls-26 {
        fill: #7a7a7a;
      }

      .cls-27 {
        fill: #111;
      }

      .cls-28 {
        fill: #5b5b5b;
      }

      .cls-29 {
        fill: #2c2c2c;
      }

      .cls-30 {
        fill: #5f5f5f;
      }

      .cls-31 {
        fill: #8a8a8a;
      }

      .cls-32 {
        fill: #8d8d8d;
      }

      .cls-33 {
        fill: #3b3b3b;
      }

      .cls-34 {
        fill: #1e1e1e;
      }

      .cls-35 {
        fill: #4f4f4f;
      }

      .cls-36 {
        fill: #5c5c5c;
      }

      .cls-37 {
        fill: #757575;
      }

      .cls-38 {
        fill: #9d9d9d;
      }

      .cls-39 {
        fill: #3a3a3a;
      }

      .cls-40 {
        fill: #373737;
      }

      .cls-41 {
        fill: #5d5d5d;
      }

      .cls-42 {
        fill: #c6c6c6;
      }

      .cls-43 {
        fill: #060606;
      }

      .cls-44 {
        fill: #656565;
      }

      .cls-45 {
        fill: #a6a6a6;
      }

      .cls-46 {
        fill: #0d0d0d;
      }

      .cls-47 {
        fill: #050505;
      }

      .cls-48 {
        fill: #141414;
      }

      .cls-49 {
        fill: #575757;
      }

      .cls-50 {
        fill: #1d1d1d;
      }

      .cls-51 {
        fill: #212121;
      }

      .cls-52 {
        fill: #3f3f3f;
      }

      .cls-53 {
        fill: #020202;
      }

      .cls-54 {
        fill: #3d3d3d;
      }

      .cls-55 {
        fill: #7d7d7d;
      }

      .cls-56 {
        fill: #0b0b0b;
      }

      .cls-57 {
        fill: #cdcdcd;
      }

      .cls-58 {
        fill: #6f6f6f;
      }

      .cls-59 {
        fill: #868686;
      }

      .cls-60 {
        fill: #242424;
      }

      .cls-61 {
        fill: #282828;
      }

      .cls-62 {
        fill: #878787;
      }

      .cls-63 {
        fill: #353535;
      }

      .cls-64 {
        fill: #565656;
      }

      .cls-65 {
        fill: #121212;
      }

      .cls-66 {
        fill: #bcbcbc;
      }

      .cls-67 {
        fill: #272727;
      }

      .cls-68 {
        fill: #151515;
      }

      .cls-69 {
        fill: #848484;
      }

      .cls-70 {
        fill: #080808;
      }

      .cls-71 {
        fill: #4a4a4a;
      }

      .cls-72 {
        fill: #414141;
      }

      .cls-73 {
        fill: #1f1f1f;
      }

      .cls-74 {
        fill: #747474;
      }

      .cls-75 {
        fill: #383838;
      }

      .cls-76 {
        fill: #5a5a5a;
      }

      .cls-77 {
        fill: #2a2a2a;
      }

      .cls-78 {
        fill: #6b6b6b;
      }

      .cls-79 {
        fill: #0c0c0c;
      }

      .cls-80 {
        fill: #626262;
      }

      .cls-81 {
        fill: #838383;
      }

      .cls-82 {
        fill: #202020;
      }

      .cls-83 {
        fill: #131313;
      }

      .cls-84 {
        fill: #b9b9b9;
      }

      .cls-85 {
        fill: #494949;
      }

      .cls-86 {
        fill: #191919;
      }

      .cls-87 {
        fill: #232323;
      }

      .cls-88 {
        fill: #6e6e6e;
      }

      .cls-89 {
        fill: #2d2d2d;
      }

      .cls-90 {
        fill: #6a6a6a;
      }

      .cls-91 {
        fill: #434343;
      }

      .cls-92 {
        fill: #737373;
      }

      .cls-93 {
        fill: #888;
      }

      .cls-94 {
        fill: #fcfcfc;
      }

      .cls-95 {
        fill: #2f2f2f;
      }

      .cls-96 {
        fill: #dcdcdc;
      }

      .cls-97 {
        fill: #4b4b4b;
      }

      .cls-98 {
        fill: #404040;
      }

      .cls-99 {
        fill: #333;
      }

      .cls-100 {
        fill: #535353;
      }

      .cls-101 {
        fill: #616161;
      }

      .cls-102 {
        fill: #555;
      }

      .cls-103 {
        fill: #fdfdfd;
      }

      .cls-104 {
        fill: #0e0e0e;
      }

      .cls-105 {
        fill: #4c4c4c;
      }

      .cls-106 {
        fill: #343434;
      }

      .cls-107 {
        fill: #999;
      }

      .cls-108 {
        fill: #161616;
      }

      .cls-109 {
        fill: #090909;
      }

      .cls-110 {
        fill: #4d4d4d;
      }

      .cls-111 {
        fill: #686868;
      }
    </style>
  </defs>
  <g id="Layer_2-2" data-name="Layer 2">
    <g>
      <path class="cls-82" d="M132,186.01v2c1.99.06,4-.05,6,0v10h56c.03-.33-.05-.67,0-1,2.17-2.71.53-7.53,1-11,3.99,0,8.01,0,12,0l-1.01,13.01,54.01.99c.28,4.23-.92,8.16.99,12,.15.29.69.75,1,1,3.13,2.55,5.01,2.18,9.01,1.99.54,13.43-.24,8.57-8.45,8.96-2.11.1-10.74,1.23-11.55,2.04v45l1.71,2h8.29c.01.33-.02.66,0,1h-8.99s8,1,8,1v12s-10,2.01-10,2.01v213c.33.02.67-.02,1,0l1.45,1.03,31.56-.03v9.01h-56.01s0-8.01,0-8.01l12.01-.99v-172h-119c-2.94.06-8.15-.84-10,1-1.97,1.97-.93,10.73-1,14v95c.33.04.68-.06,1,0v12h-1l-1-5.5c1.07,16.9-1.39,35.39-.05,52.09.13,1.63-.27,2.08,1.06,3.41,2.45,2.45,16.74.25,21.01.99v8.01s-45.01.99-45.01.99c-.33.02-.67-.03-1,0v-2l1.94-7.56c3.28-1.45,8.65.96,11.06-1.44.77-.77,1.22-1.09,1.05-2.4l.02-143.22c.42-1.53-.69-2.42-1.07-3.38-.15-.38.33-1.28-.12-1.85-1.6-.42-3.26-.09-4.88-.15-.58-3.06-3.02-4.87-1-8h-19v-.99s8-1.01,8-1.01c5.32-.04,10.68.03,16,0,1.38-.11.92-1.47,1.04-2.45.42-3.38.6-20.85-.04-23.55-.34-1.42-1.17-1.75-2.5-1.99-3.26-.59-19.78.72-20.5,0v-10.01s8.33-.17,8.33-.17l1.67-1.82c.33-.05.67.03,1,0v-51l-10-1v-11.01s10,0,10,0c.44-1.25-.98-1.88-1-1.99-.42-3.07.3-6.82,0-10.01l11.57-.93c.87-1.25.55-10.65.44-13.06-.03-.66.05-1.34,0-2-7.3.25-14.72-.36-22.01,0-.66.03-1.34-.05-2,0v13.01h-20l-.58-10.03c1.83-2.5,8.06.55,10.58-1.97,2.22-2.23.47-8.68,1-12h65c.02-2.66-.03-5.34,0-8,0-.34,2.12-2.77-1-5,1.33,0,2.67,0,4,0ZM108,210.01c-.05,4.99.06,10.01,0,15-.05,3.99.04,8.02,0,12.01h-10.01s0,66.99,0,66.99h12c1.29,4.01-2.92,12.08,0,15,1.85,1.85,7.93.94,11,1,1.04,1.66,3.79,1,5.49,1.02,33.79.36,75.14,2.59,108.13.06,1.97-.15,2.25-.71,3.38-1.07.84-.27,2.53.54,3-1l-1-108-131-1h131.99s-3.48-1-3.48-1c-41.33.34-82.69-.45-124.02-.02-1.69.02-4.45-.64-5.49,1.02ZM243,319.01v-108h-1v108h1Z"/>
      <path class="cls-82" d="M216,365.01v10.01s9.01,0,9.01,0l.98-9v9.99s-9.99,0-9.99,0v159h69l1-19h9.01s0,31,0,31c-.99.04-2.01-.06-3,0-1.04-1.66-3.79-1-5.49-1.02-27.02-.28-54.06.18-81.08.1l-2.44-3.08c-3.25-53.68,2.38-110.58.06-164.61l-1.06-2.39c-.66-1.34-1.88-.89-3-1h-43c.39,1.7,3.12.95,4.5,1,13.79.54,27.71-.4,41.5,0v1h-46.01s0,170,0,170c-1.18-.67-1.04-2.21-1.06-3.4-.71-54.35.65-108.75.06-163.1l-1-4.5-.99,170.01h-89.01s0-9.01,0-9.01c2.68-.27,12.04,1.13,13.01-1.99v-19s7-1,7-1c.67,0,1.33,0,2,0-.56,6.07.4,12.84,0,19v1l-1.5,1h58.5c.02-5.65-.04-11.35,0-17v-153c22.61-.9,46.1,1.18,68.62.07,1.27-.06,2.47.02,3.38-1.07h1Z"/>
      <path class="cls-79" d="M83,82.01v11.01c3.83-.2,7.74.25,11.58.04,1.3-.07,2.25-1.03,2.42-1.04,3.95-.27,8.04.19,12.01,0v-9.01c22.64-.01,45.34.03,67.99,0v11h26c.31-3.51-.43-7.59,0-11,.33,0,.67,0,1,0,20.55.01,42.08-.85,62.51,0,1.23.05,3.71-.76,3.49,1h-66l10.67,1.62c18.52-1.82,36.83,1.08,55.34-.63v42.01s-7.01,0-7.01,0v-32.01c-.24-.39-1.68,1.03-1.99,1s-1.56-1.02-3.38-1.07c-14.84-.43-29.79.47-44.62.06.1,10.98-.12,22.02,0,33.01,0,.67-.01,1.33,0,2h-10.01s0-3,0-3c1.06-6.39-.78-15.29,0-22-1.04-1.66-3.8-1-5.49-1.02-6.54-.07-14.34-.75-20.51,1.02v23c-2.3,3.06-6.73,1.8-10,2,.28-9.13,1.11-23.96.04-32.55-.12-.98.34-2.34-1.04-2.45h-47c1.52,11.27.85,22.64,1,34,0,.33,0,.67,0,1-3.19-.47-8.81,1.17-11-1v-25.01c-4.32-.02-8.68.05-13,0-.33,0-.67,0-1,0-3.99.05-8.02-.04-12.01,0,.68,18.2-.89,36.85,0,55.01l-.99-55.01c-1.99.02-4.01-.04-6.01,0-1.33.03-2.68-.04-4,0v56.01c.67.05,1.34-.04,2,0,2.98.14,6.01-.1,9,0,0,.13.94,1.1,1.05,2.41.28,3.47-.28,7.11-.05,10.59,1,.04,2-.04,3,0,3.32.1,6.68-.07,10.01,0v13.01c10.31,0,20.67-.03,30.99,0,3.12,2.23,1,4.66,1,5,.06-1.06-.22-1.39-1-2-1-.78-.84-.89-2.39-1.06-9.23-.98-20.18.84-29.61.06v-14h-13.01s.01-13.01.01-13.01h-12.01s0-78.99,0-78.99c4.05.11,7.94-.06,12,0ZM169,127.01v-32h-1v32h1Z"/>
      <path class="cls-82" d="M302,250.01c.98.98,1,.9,2.4,1.05,8.55.95,31.66.99,40.15,0,1.46-.17,2.57-.12,3.45-1.55v-39.5h8s1,51,1,51h-64v-10.99s-1,1.99-1,1.99l-1-1c-1.13-1.61-3.27-.93-5-1l6.01-1-1.01-9v-1l1-14,9-1c-.31,6.6-.76,17.3-.05,23.6.16,1.4.08,1.42,1.05,2.4Z"/>
      <path class="cls-19" d="M335,298.01l1,1v10.01s10.01-.01,10.01-.01c-.05,2.85-.39,5.34.99,8.01.17.33.67.8,1,1,1.82,1.1,2.7,1.28,5,1v19c-3.59-.22-4.69,1.1-7,3-.21.17-1.75-.57-2.04.63-.37,1.51.28,3.7.04,5.38h-21s-1-7.01-1-7.01l-10-1,.99-20.01h8.5s-1.5-.99-1.5-.99l4.88-2.62c.31-5.78.03-11.6.12-17.38.33,0,.67,0,1,0h9ZM337.01,321l-12.86.14c-1.7,3.99-1.7,8.72,0,12.72l12.86-.85v-12.01Z"/>
      <path class="cls-90" d="M302,122.01c1.23,1.21-.66,29.44-.04,34.55.12.96-.33,2.4,1.04,2.45,3.72-.6,7.23-.86,11-1,2.73-.1,7.1-.72,9,1-.41,3.28.95,6.13-2,8.99,1.92.85,4.21.63,6,1.01v26h-13c.31-5.73-.09-11.61-.14-17.36l-1.5-1.5-6.93-1.07c-1.4-3.49,1.34-7.1-2.44-9.07-2.87-1.49-4.74-1.07-8-.99-.05-1.99.08-4.01,0-6.01l.99-37.01h6.01Z"/>
      <path class="cls-46" d="M238,0l.99,11.01h13.01s0,56.99,0,56.99c-56.25-.18-112.77-.92-169,0v-22.01c4.32-.03,8.68.05,13,0v21h155v-21c-51.64.42-103.36-.56-155,0l-13-2c3.99.04,8.01-.05,12,0,.33,0,.67,0,1,0,51.64.53,103.36-.4,155.01,0,.02-4.99-.04-10.02,0-15.01,0-.33,0-.67,0-1-.03-2.9.57-13.61-.44-15.06l-12.63-1.37c-1.51-1.07-.9-4.77-.94-6.57,1.62-.85.94-3.4,1-5Z"/>
      <path class="cls-89" d="M14,262.01c3.34-1.88,10.67,2,11.5,2h23.5c.84,3-.87,6.6-1,9-8.11.61-17.2-1.29-25,1,.2,3.28-.28,6.74,0,10-1.22,4.68-4.09,2.74-8,3v9.01s7.01,0,7.01,0v-8.01s13,0,13,0v13.01s-7.01-.01-7.01-.01v11.01s-1.01-12.99-1.01-12.99c-.9-.39-1.96,3.77-1.99,3.99-.43-1.53,1.38-3.82-1.47-4.01-3.48-.24-7.06.2-10.54,0,.31-3.79.24-8.17,0-11.99-.46-7.5-.86-10.88.02-18.56.27-2.38-1.64-4.18.98-6.44Z"/>
      <path class="cls-60" d="M37,302.01l11,1c-.95,3.71.83,8.01,1,11,.02.38-1.43,1.72-1,1.99h11c.07,3.99-.11,8.02,0,12.01-2.29-2.55-7.96.36-9,0-1.15-.39.73-1-3-1-2.29,0-8.46.64-9.56-.94l-.44-12.06v-2c-.03-3.32.05-6.68,0-10Z"/>
      <path class="cls-17" d="M203,543.01c.08,1.33-.07,2.68,0,4,29.2-1.35,60,1.79,89.01,0,.99-.06,2.01.04,3,0l1.03-1.45-.02-30.56-10.01,1.01-1,19v-1c-.06-6.65.08-13.35,0-20,0-.33,0-.67,0-1,3.99.05,8.01-.04,12,0v35h-95v-172l1.06,2.39c2.33,54.03-3.3,110.92-.06,164.61Z"/>
      <path class="cls-17" d="M156,547.01l-93.01,1.01v-13.01s12.01,0,12.01,0v-21c3.49.8,6.94-.77,10-1,.33-.03.67.02,1,0-.04.66.06,1.34,0,2-.67,0-1.33,0-2,0-2.66,0-5.35,0-8.01,0,.61,6.41-1.28,13.94,1.01,20.01-.96,3.12-10.32,1.72-13.01,1.99v9.01s90.01,1.01,90.01,1.01v-171.01s.99,4.5.99,4.5c.59,54.35-.77,108.75-.06,163.1.02,1.19-.12,2.73,1.06,3.4Z"/>
      <path class="cls-43" d="M346,208.01c3.99.05,8.01-.04,12,0v55l-12.01-1.01-.99,37.01c.02-.66-.03-1.34,0-2,.53-10.16.5-22.82,0-33-.03-.66.05-1.34,0-2-6.32-.04-12.69.05-19.01,0-11.32-.09-22.69.07-34.01,0v-10.01s1-1.99,1-1.99v10.99h64.01l-1-51h-8v39.5c-.88,1.43-1.99,1.38-3.45,1.55-8.5,1-31.6.96-40.15,0-1.4-.16-1.42-.08-2.4-1.05h44.01c0-13.65-.01-27.35,0-41,0-.33,0-.67,0-1Z"/>
      <path class="cls-108" d="M14,262.01c-2.61,2.25-.7,4.05-.98,6.44-.89,7.68-.48,11.06-.02,18.56H0v-25c4.84.3,8.47.08,13-1,.44-.11,1.19.38,1,1Z"/>
      <path class="cls-104" d="M252,68.01c13.65.04,27.35-.03,41,0v15c-5.83.18-11.73-.24-17.57-.03-1.32.05-2.26,1.02-2.43,1.03-.31.03-1.76-1.39-1.99-1l-1.01,44v-42.01c-18.5,1.71-36.82-1.19-55.33.63l-10.67-1.62h66c.22-1.76-2.26-.95-3.49-1-20.43-.85-41.96.01-62.51,0,1.04-1.66,3.79-1,5.49-1.02,15.1-.19,50.26,2.75,62.51.02.38-.09.79-.97,1-1h18.01c.22-3.26-.31-6.77,0-10,.01-.11,1.44-.81.99-2l-39.99-1Z"/>
      <path class="cls-43" d="M273,84.01v77.01c-3.98.04-8.01-.06-12,0,.07-6.98-.05-14.01,0-21h1v20.01s9,0,9,0v-32l-10,1v-33c.31.03,1.76-1.39,1.99-1v32.01s7.01,0,7.01,0l1.01-44c.24-.39,1.68,1.03,1.99,1Z"/>
      <path class="cls-70" d="M258,161.01c-.65,3.4-8.69.65-8.99,1v12s10.06-.44,10.06-.44c1.67-1.17,1.33-10.19-.06-12.56.67,0,1.33,0,2,0-.04,4.65.03,9.35,0,14.01h-12.01s0,12.99,0,12.99h-42v10h55l-1,14c-1.91-3.85-.71-7.78-.99-12l-54.01-.99,1.01-13.01c13.65-.03,27.35.02,41.01,0,.05-.66-.04-1.33,0-2,.14-2.98-.04-6.02,0-9,.06-4.65-.05-9.35,0-14,3.32-.05,6.68.07,10,0Z"/>
      <path class="cls-79" d="M346,208.01c-10.32-.13-20.68.09-31,0l30.01-.99v-9.01h-31.01c-.04,3.32.06,6.68,0,10,0,.33,0,.67,0,1-.07,4.99.05,10.02,0,15.01h-11.01s0,25.99,0,25.99h-1c-.98-.98-.9-1-1.05-2.4-.7-6.3-.25-17,.05-23.6,0-.13.96-1.13,1.04-2.42.27-4.49-.28-9.09-.05-13.58h11.01c.19-3.62-.28-7.38,0-10.99,4.65,0,9.35,0,14,0h1c2.99,0,6.01.08,9,0,2.66-.07,5.35.05,8.01,0v-27.01s.99,0,.99,0v38ZM313.01,210h-9.01v13.01h9.01v-13.01Z"/>
      <path class="cls-51" d="M14,252.01h11.01s-.05,9.37-.05,9.37c.24,1.23,1.54.43,2.04.63,5.27,2.1,16.6.92,23,1l8,1.5c-3.16,5.32-2.3,10-10,10.5.01-.33-.01-.67,0-1s-.02-.67,0-1c.13-2.4,1.84-6,1-9h-23.5c-.83,0-8.16-3.88-11.5-2,.19-.62-.56-1.11-1-1-.94-3.13.81-6.82,1-9Z"/>
      <path class="cls-17" d="M251,502.01c-.33-.02-.67.02-1,0v-213h1v213Z"/>
      <path d="M93,351.01c1.62.06,3.29-.28,4.88.15.45.57-.04,1.48.12,1.85v149c-2.41,2.4-7.78-.02-11.06,1.44l-1.94,7.56c0-2.99,0-6.01,0-9.01h12.01s0-149.99,0-149.99h-13c1.71-1.7,6.34-1.1,9-1Z"/>
      <path class="cls-53" d="M96,11.01c0,.33,0,.67,0,1h-13.01s0,32,0,32l13,2c-4.32.05-8.68-.03-13.01,0v22.01c-.17,0-1.56,1.04-3.38,1.07-15.19.28-30.44-.35-45.62-.08v12.01c11.82.27,23.73-.37,35.56-.03,1.72.05,1.36,1.03,1.45,1.03h-38v-14h49V11.01h14Z"/>
      <path class="cls-47" d="M238,0c-.06,1.6.62,4.15-1,5-.03-1.33.04-2.68,0-4H96.99s-.99,10-.99,10c.06-3.66-.04-7.35,0-11.01h142.01Z"/>
      <path class="cls-78" d="M305,110.01c4.92-2.07,10.78-.56,16.01-1.01.93.93-2.08,8.8,1.99,8.01-.09,1.11-1,.93-1,1-2.66-.04-5.34.05-8,0-2.4-.05-8.24-1.07-9-1,.05-2.17.25-4.95,0-7Z"/>
      <path class="cls-27" d="M314,275.01c-.08,6.84.07,13.7-.03,20.55l1.03,1.45h10c0,.33,0,.67,0,1-3.66,0-7.35,0-11.01,0v9.01s-11.99,0-11.99,0c-.07-.47-.52-.89-1-1,.06-.57.94-1.44,1-2h10.01c.05-1.99-.08-4.01,0-6,.26-7.3-.19-14.7,0-22.01h-8.01s-.99,20.01-.99,20.01c.13-2.39.67-6.43-1-8,.03-.33-.02-.67,0-1,.01-.19,1-1.58,1.07-3.38.12-2.91.25-5.92-1.07-8.61h12Z"/>
      <path class="cls-83" d="M51,225.01c.12,4.41.51,8.63,1,13h-8.01s-.99,12-.99,12v-12.01c-1.99.03-4-.04-6,0-3.44.08-6.58.5-9.94,1.05l-.06,10.95c-2.71-3,.71-9-2-12l13.56-1.98-.57-11.01c4.31-.19,8.7.22,13-.01ZM50.01,227h-10.01s1.15,9.87,1.15,9.87l8.86.14v-10.01Z"/>
      <path class="cls-20" d="M27,250.01c3.32-.08,6.68.11,10,0,.33-.01.67.02,1,0l-11.01.99v10.01h33.01v-10.99s1,8.99,1,8.99v3s-34,0-34,0c-.51-.2-1.8.6-2.04-.63l.05-9.38h-11.01c.03-.31-1.39-1.75-1-1.99h12.01s0-12.01,0-12.01c2.71,3-.71,9,2,12Z"/>
      <path class="cls-17" d="M251,502.01c11.02.78,22.89-.57,34.01,0,.04,3.66-.06,7.35,0,11.01-18.64-.23-37.35.17-56,0l-1-1h56.01s0-9.01,0-9.01l-31.56.03-1.45-1.03Z"/>
      <path class="cls-108" d="M261,274.01c.22,4.3-.16,8.69,0,13,0,1.09,1.95,1.85,2,2,.99,3.04-2.16,10.7,0,15l-1,.99,9.35.19,1.65,1.82h-12v-18h-11l10-2.01v-12s-7.99-.99-7.99-.99h8.99Z"/>
      <path class="cls-17" d="M129,191.01c-.03,2.66.02,5.34,0,8h-65c-.53,3.32,1.22,9.77-1,12v-13.01s65.01.01,65.01.01v-9.01c.77.61,1.06.94.99,2Z"/>
      <path class="cls-100" d="M337,264.01v33.01s8,0,8,0c-.03.66.02,1.34,0,2h-9l-1-1v-34c.66.05,1.34-.06,2,0Z"/>
      <path class="cls-81" d="M323,108.01c.06,0,.71-1.96,1-.5v35.5s19,0,19,0c-.42.72-.55,1.6-1.58,1.78-4.41-2.05-16.51.77-19.42-1.78.36-8.28-.5-16.74,0-25,0-.07.91.11,1-1v-9Z"/>
      <path class="cls-86" d="M262,213.01l11.01-1.01v14.01s0,1,0,1l-1,1c.56-3.03-1.53-1.92-3.45-2-5.5-.22-11.05.16-16.55,0h-1c.81-.81,9.44-1.94,11.55-2.04,8.21-.39,9,4.46,8.45-8.96-4,.18-5.88.55-9.01-1.99Z"/>
      <path class="cls-17" d="M302,307.01c.57,3.93-.41,8.91,0,13h-30v-13h1v11.01s28.01,0,28.01,0c.08-1.99-.11-4.02,0-6.01s-.21-4.11,0-6c.48.11.93.53,1,1Z"/>
      <path class="cls-53" d="M75,210.01c-1.98,4.25-.64,9.4-1,14-3.29,1.16-6.57,1.09-10,1-3.09-.08-6.92-1.06-11-1-.49,0-1.47.97-2,1-.13-4.65.1-9.35,0-14.01h12.01c-2.52,2.53-8.75-.52-10.58,1.97l.58,10.03h20v-13.01c.66-.05,1.34.04,2,0Z"/>
      <path class="cls-98" d="M303,119.01v40c-1.37-.05-.93-1.5-1.04-2.45-.62-5.11,1.27-33.34.04-34.55l-7-1.01c-.06,1.99.08,4.01,0,6.01-.96.27-.95,1.15-1,2-1.66-1.32-1.38-7.89-.56-9.06,2.63-1.87,6.44-.63,9.56-.94Z"/>
      <path class="cls-47" d="M50,328.01l.99,21.01c.98.98,9.69-2.16,9.01,1.99h-1c-3.66,0-7.35,0-11,0-.09-6.64,1.47-12.81,1.06-19.56-.11-1.86.23-3.75-2.06-4.45,3.73,0,1.85.61,3,1Z"/>
      <path class="cls-88" d="M356,163.01v5.01c-3.4-.89-7.13.89-10,.99-.33.01-.67-.01-1,0v-7.01c3.64-.97,8.12.88,11,1.01Z"/>
      <path class="cls-38" d="M305,117.01c-.17,7.5-.89,14.96-1.04,22.46-.12,5.84.17,11.72.04,17.55h9.01s1,0,1,0v1c-3.77.14-7.28.4-11,1v-40c.06-.23,1.82-1.98,2-2Z"/>
      <path class="cls-96" d="M355,118.01h1c0,.33,0,.67,0,1s0,.67,0,1v41c-3.99-.04-8.01.03-12,0l10-1,1-41.01c-1-.04-2,.03-3,0-1.89-.05-4.91.7-6-1h9Z"/>
      <path class="cls-48" d="M61,351.01c.06,2.99-.05,6.02,0,9.01h22.01c.29-2.66-.99-6.03,1-8.01l1,9h-26v-10h2Z"/>
      <path class="cls-106" d="M323,347.01l1.45,1.03,21.55-.03c-.03.66.05,1.34,0,2h-24.01s0-10,0-10l1,7Z"/>
      <path class="cls-109" d="M356,119.01h10.01c-.95,6.13,1.66,40.35-1.01,43-.38-.19-.82-.98-1-1l1.01-41.01h-8.01s-1,0-1,0c0-.33,0-.67,0-1Z"/>
      <path class="cls-43" d="M273,226.01h11.01s-.01,13.01-.01,13.01h7.01s0,.99,0,.99h-8.01s0,10.01,0,10.01c.99.04,2-.05,3,0,1.73.07,3.87-.61,5,1h-9.01c.17-3.97-.22-8.03,0-12,0-.14.96-1.13,1.04-2.42.21-3.17-.21-6.42-.04-9.58h-10.01s0-.99,0-.99Z"/>
      <path class="cls-76" d="M344,168.01c.07,0-.05,1.05,1,1,.33-.01.67.01,1,0v1h-1l-7.01,1c-.32,8.8,1.51,15.43-.99,24v-26c1.65-.96,5.03-.92,7-1Z"/>
      <path class="cls-46" d="M295,159.01c.07,1.99-.06,4.01,0,6.01,3.26-.08,5.13-.5,8,.99h-9.01c.52-12.21-.69-24.83,0-37,.05-.85.04-1.73,1-2-.37,10.25-.36,21.75,0,32Z"/>
      <path class="cls-56" d="M28,312.01h9v2h-12.01c.28-3.54-.38-7.54,0-11,.02-.22,1.09-4.38,1.99-3.99l1.01,12.99Z"/>
      <path class="cls-97" d="M356,161.01c2.55.02,5.57-.28,8,0,.18.02.62.81,1,1-1.69,1.68-6.36,1.12-9,1-2.88-.13-7.36-1.98-11.01-1.01v7.01c-1.04.05-.92-1-.99-1v-7c3.99.03,8.01-.04,12,0Z"/>
      <path class="cls-93" d="M323,108.01v9c-4.08.79-1.06-7.07-1.99-8.01-5.22.44-11.08-1.06-16.01,1.01-.06-.54-1.4-1.73-1-1.99,6.25.51,12.82-.76,19-.01Z"/>
      <path class="cls-27" d="M343,118.01c.03-3.99-.03-8.01,0-12,3.96,1.6,9.04,1.59,12.98,0,.04,3.99-.02,8.01,0,12h-1c-.11-.63.16-1.48,0-2l-.58-8.02h-10.43s0,8.02,0,8.02c-.07.65.04,1.34,0,2h-1Z"/>
      <path class="cls-81" d="M346,341.01c-.08,2.32.11,4.68,0,7l-21.55.03-1.45-1.03h21c.24-1.67-.41-3.86-.04-5.37.29-1.2,1.83-.46,2.04-.63Z"/>
      <path class="cls-1" d="M347,317.01l7.99-1v23c-1.15.43-1.88-.99-1.99-1,1.7-.39.95-3.12,1-4.5.2-5.15-.15-10.36,0-15.51h-6.01c-.33-.19-.83-.66-1-.99Z"/>
      <polygon class="cls-65" points="320 318.01 321.5 319.01 312.99 319 312 339.01 311.99 318 320 318.01"/>
      <path class="cls-59" d="M327,195.01v2c-4.65,0-9.35,0-14,0,.04-.54.97-1.48,1-2h13Z"/>
      <path class="cls-85" d="M343,143.01c.04-8.32-.06-16.68,0-25h1c-.36,5.83,1.28,21.16-1,25Z"/>
      <path class="cls-110" d="M239,440.01c.19,19.83-.17,39.71.04,59.56l-3.04,1.45,3.99.99v1l-12.01.99v8.01s1.01,1,1.01,1c17.82,4.13,36.78,1.07,55,2-.55,5.73.4,12.18,0,18.01h-67.01s1.01-156.01,1.01-156.01l8.99-1,1.01-9.99c1-1.1,5.91,5.23,8.01,1.26.63-1.19.1-4.27,1.98-4.26.26,24.52-.28,49.08-.06,73.61.02,1.83,1.07,3.2,1.07,3.38Z"/>
      <path class="cls-100" d="M252,226.01c5.49.16,11.05-.22,16.55,0,1.93.08,4.01-1.03,3.45,2-.1,1.65.15,3.36,0,5l-1.93-5.57-7.08-.43c.94,2.65-2.67,14.23.67,15.05l9.33-1.05-1.96-1.07.96-.92h10c-.22,3.97.16,8.03,0,12.01h9.01s1,.99,1,.99v10.01c11.31.06,22.68-.1,34,0v1c-.33,0-.67,0-1,0-3.66,0-7.35,0-11.01,0-.03,3.99.05,8.02,0,12.01h-12c1.32,2.71,1.19,5.71,1.07,8.62-.08,1.8-1.06,3.18-1.07,3.38l-10,1-.99-1.99v10.99h-18.01c-.03-6.22,1.36-11.96-1-18-.2-.52.59-1.8-.63-2.05l-9.33,1.1c.99,2.75-1.05,7.52-1.05,8.95-.16-4.31.22-8.7,0-13-.02-.33.01-.67,0-1-.04-1,.05-2.01,0-3h-8.01s-1-43-1-43v-1Z"/>
      <path class="cls-39" d="M109,225.01l12.01.99.99,92.01v1h-12c-2.92-2.92,1.29-10.99,0-15h-12s0-67,0-67h10.01c.03-3.98-.05-8.01,0-12h1Z"/>
      <path class="cls-89" d="M97,162.01h10.01s0,13,0,13h-9.01s0,10.01,0,10.01h10.01s0-9.01,0-9.01c33.65-.04,67.35.05,101,0-.25,1.99.43,4.5.02,6.35-.24,1.06-3.06.03-2.01,2.64l40.99-.99c-.03.66.05,1.34,0,2-13.65.03-27.35-.03-41.01,0-3.99,0-8.01,0-12,0-20.98.05-42.02.09-63,0-1.33,0-2.67,0-4,0-10.32-.02-20.68.01-31.01,0v-13.01c-3.31-.07-6.68.1-9.99,0v-1l8.85-.14c1.93-2.82.08-5.35.16-8.25.02-.79.98-1.43.99-1.61Z"/>
      <rect class="cls-72" x="138" y="189" width="55" height="9"/>
      <path class="cls-8" d="M74,341.01c2.33,0,4.67.02,7,0l-7.99,1.01v.99s18.99,0,18.99,0c-2.02,3.13.42,4.94,1,8-2.66-.1-7.29-.7-9,1-1.99,1.97-.71,5.35-1,8h-22.01c-.04-2.99.07-6.01,0-9-.07-3.32.08-6.68,0-10h13Z"/>
      <path class="cls-1" d="M85,236.01c.02.11,1.44.74,1,1.99h-10s0,11.01,0,11.01l10,1v51c-.33.03-.67-.05-1,0v-49.99s-9.99-1.01-9.99-1.01v12s-12.01,1.5-12.01,1.5v22.5l12,1-10,1h-1l-1-1c-.33-.02-.67.03-1,0-.31-8.02-1.4-15.85,0-24-3.99-.03-8.02.05-12,0-6.4-.08-17.73,1.1-23-1h34.01s0-3,0-3l.99-9,11.57-.93.44-12.06,11-1ZM74,252.01h-11s0,9,0,9h11c-.24-3.3-2-5.85,0-9Z"/>
      <path class="cls-13" d="M241,319.01h-119v-1h117c1.66-1.04,1-3.79,1.02-5.49.42-33.49-.35-67.03-.02-100.51v-1l1,108Z"/>
      <path class="cls-63" d="M98,502.01v-149c.38.96,1.49,1.85,1.07,3.38l-.02,143.22c.16,1.3-.28,1.63-1.05,2.4Z"/>
      <path class="cls-2" d="M240,211.01v1H108.99s0,7,0,7c-.14,1.11-.11,2.87,0,4,.07.66-.04,1.34,0,2h-1c.06-4.99-.05-10.01,0-15h1l131,1Z"/>
      <path class="cls-56" d="M195,186.01c-.47,3.47,1.17,8.29-1,11,.38-2.76-.27-6.14,0-9.01-18.63-.35-37.38.49-56.01,0-2-.05-4.01.06-6.01,0v-2c20.99.09,42.03.05,63.01,0Z"/>
      <path class="cls-106" d="M122,441.01v13c-3.09-1.46-6.91-1.62-10,0l-1-1v-12c.32.06.67-.02,1,0,3.29.25,6.7-.18,10,0Z"/>
      <path class="cls-70" d="M108,210.01c1.04-1.66,3.79-1,5.49-1.02,41.33-.44,82.69.36,124.02.02l3.48.99H109s-1,.01-1,.01Z"/>
      <path class="cls-17" d="M122,319.01h119c-.47,1.54-2.16.73-3,1-38.96-.54-78.04.73-117,0-3.07-.06-9.15.85-11-1h12Z"/>
      <path class="cls-53" d="M121,331.01c39.61-.86,79.38.64,119,0v1c-40.28.71-80.73-.95-121,0-2.66.06-5.34-.04-8,0,1.85-1.84,7.06-.94,10-1Z"/>
      <path class="cls-21" d="M64,288.01l.58,11.02h9.43s0-11.02,0-11.02h-9.01s10-.99,10-.99v14.01c3.17-.31,6.94.42,10,0l-1.67,1.82-8.33.17v10.01c.73.72,17.24-.58,20.5,0,1.34.24,2.16.57,2.5,1.99h-24v-15.01s-11.01.01-11.01.01v-13.01s1.01,1,1.01,1Z"/>
      <path class="cls-89" d="M240,331.01c-39.62.64-79.39-.86-119,0h119Z"/>
      <path class="cls-29" d="M238,320.01c-1.14.36-1.41.92-3.38,1.07-33,2.54-74.34.3-108.13-.06-1.69-.02-4.45.64-5.49-1.02,38.96.73,78.04-.54,117,0Z"/>
      <path class="cls-16" d="M111,346.01c-.31,31.64,0,63.36,0,95-.32-.06-.67.04-1,0,.48-31.63-.65-63.38,0-95,.07-3.27-.97-12.03,1-14-.03,4.65.05,9.35,0,14Z"/>
      <rect class="cls-6" x="242" y="211.01" width="1" height="108"/>
      <path class="cls-70" d="M110,441.01v-95c-.65,31.62.48,63.37,0,95Z"/>
      <path class="cls-11" d="M97,315.01v26c-5.32.03-10.68-.04-16,0-2.33.02-4.67,0-7,0v-1c1.35.9,17.74-.67,21,0v-24l-19.55.03-1.45-1.03h23Z"/>
      <path class="cls-90" d="M97,212.01c.12,2.41.44,11.81-.44,13.06l-11.57.93c.3,3.18-.41,6.93,0,10.01l-11,1,8.95-1.05,1.04-12.95h12c-1.5-3.38-1.64-7.63,0-11h1Z"/>
      <path class="cls-17" d="M131,503.01l.91.56c1.18,3.24-.71,7.1-.91,9.44-14.78.65-30.31-.88-45,0l45.01-.99v-8.01c-4.26-.74-18.56,1.45-21.01-.99h21Z"/>
      <path class="cls-4" d="M252,227.01l-.03,41.55,1.03,1.45h8.01c.04.99-.04,2,0,3h-8.29s-1.71-2-1.71-2v-45h1v1Z"/>
      <path class="cls-28" d="M138,188.01c18.63.48,37.37-.36,56.01,0-.28,2.87.38,6.24,0,9.01-.05.33.03.67,0,1h-1v-9.01s-55,0-55,0v-1Z"/>
      <path class="cls-59" d="M75,210.01c7.29-.35,14.71.26,22.01,0,.05.66-.04,1.33,0,2h-22.01s-.99,12-.99,12c.36-4.6-.98-9.75,1-14Z"/>
      <path class="cls-70" d="M110,453.01v50c-1.33-1.33-.93-1.78-1.06-3.41-1.34-16.69,1.12-35.19.05-52.09l1,5.5Z"/>
      <rect class="cls-16" x="110" y="453.01" width="1" height="50"/>
      <path class="cls-53" d="M97,341.01v-26h1c.64,2.7.46,20.18.04,23.55-.12.98.34,2.34-1.04,2.45Z"/>
      <polygon class="cls-76" points="226 376.01 227 376.01 218.01 377 217 533.01 216 533.01 216 376.01 226 376.01"/>
      <path class="cls-53" d="M216,364.01v1h-1l-72,1v1c-.26,50.65.35,101.36,0,152-.04,5.65.03,11.35,0,17.01h-58.5s1.5-1.01,1.5-1.01h56.01s0-171,0-171c24.63.43,49.38-.57,74,0Z"/>
      <polygon class="cls-95" points="154 376.01 154.01 547.01 64 546.01 153.01 546.01 154 376.01"/>
      <path class="cls-37" d="M142,364.01v171.01s-56,0-56,0v-1h55.01c-.09-29.98.1-60.02,0-90-.08-21.55-.09-43.12.08-64.5.02-2.99-2.54-13.36-.85-15.31.41-.48,1.63-.06,1.76-.19Z"/>
      <path class="cls-8" d="M143,519.01c.35-50.64-.26-101.35,0-152v152Z"/>
      <path class="cls-63" d="M224,364.01c.96-.13,2.02.08,3,0v12.01s-1,0-1,0v-9.99s-.99,9-.99,9h-9.01s0-10.01,0-10.01v-1c3.64.08,4.27.5,8,0Z"/>
      <path class="cls-41" d="M131,513.01c-.03.31,1.39,1.76,1,1.99h-45.01s0,19.01,0,19.01h-1c.4-6.16-.56-12.93,0-19,.06-.66-.04-1.34,0-2,14.69-.88,30.22.65,45,0Z"/>
      <path class="cls-89" d="M203,543.01l2.44,3.08c27.02.08,54.06-.38,81.08-.1,1.69.02,4.45-.64,5.49,1.02-29.01,1.8-59.81-1.35-89.01,0-.07-1.32.09-2.68,0-4Z"/>
      <path class="cls-8" d="M215,365.01c-.91,1.09-2.11,1.01-3.38,1.07-22.51,1.1-46.01-.97-68.62-.07l72-1Z"/>
      <path d="M199,375.01c1.12.11,2.34-.34,3,1-13.79-.4-27.71.54-41.5,0-1.38-.05-4.11.7-4.5-1,13.83.98,29.4-1.32,43,0Z"/>
      <path class="cls-75" d="M199,375.01c-13.6-1.32-29.17.98-43,0h43Z"/>
      <polygon class="cls-95" points="286 516.01 296.01 515 296.03 545.56 295 547.01 295.01 516 286 516.01"/>
      <path class="cls-99" d="M84,515.01l-7.01,1v19c-2.28-6.06-.39-13.6-1-20.01,2.66,0,5.34,0,8.01,0Z"/>
      <path class="cls-49" d="M97,105.01h11.01c.78,4.55-1.49,21.53.99,24,2.19,2.17,7.81.53,11,1,.06,3.32-.04,6.68,0,10h45.5c2.84,0,.6-6.4.65-7.57s.84-2.1.85-2.43c3.27-.2,7.7,1.06,10-2,2.64-3.51-.21-17.53,2-23,6.79-.36,15.21-.36,22,0v23.99c.85.38,1.97-1.81,2-1.99v3s10,0,10,0c.05,2.99-.04,6.01,0,9l1.45,1.03c15.18-.05,30.38-.03,45.55-.03v1l-47.01.5,47.01.5c0,5.99,0,12.02,0,18.01-3.31.53-9.78-1.23-12.01.99s-.43,9.55-1,13H109l-1-13h-11c0-.11-1.03-.95-1-2,0-.18,1.04-1.59,1.07-3.38.34-16.85-.4-33.77-.07-50.62ZM165,141.01h-45v1h45v-1ZM159,162.01v8h54c3.18-.95,2.54-11.29,1.03-12.57-.62-.44-1.34-.33-2.03-.43l-46-.99-1-5.01h-17.01s.94,10.56.94,10.56l10.06.44Z"/>
      <path class="cls-91" d="M252,68.01l39.99,1c.44,1.19-.98,1.89-.99,2l-.99,9c-.52.51-12.2-.32-14.61-.07-1.62.17-2.26,1.04-2.39,1.06-.21.03-.62.91-1,1l-68.4-1.02c-1.09-.11-.5,1.29-.6,2.02-8.65,0-17.35-.01-26,0v-1h-69c-4.19-.03-8.74,1.03-12,1s-8.64-.94-13-1c-4.06-.06-7.95.11-12,0-.09,0,.28-.98-1.45-1.03-11.83-.34-23.73.3-35.56.03v-12.01c15.18-.28,30.43.36,45.62.08,1.81-.03,3.2-1.07,3.38-1.07,56.23-.92,112.75-.18,169,0Z"/>
      <path class="cls-103" d="M261,96.01v32l-18.01,1.01v-21.01c-4.65-2.27-10.94-.42-16-1.01.61,6.41-1.28,13.94,1.01,20.01-.04.33.03.67,0,1h-15c-.13-10.98.1-22.02,0-33.01,14.84.4,29.78-.49,44.62-.06,1.83.05,3.07,1.04,3.38,1.07Z"/>
      <path class="cls-103" d="M166,95.01v33h-16v-21h-15v21l-15,1c-.15-11.36.51-22.73-1-34h47Z"/>
      <path class="cls-99" d="M95,104.01v57.01s-10.01-.01-10.01-.01l-.03,10.36,2.03.64v1c-1-.03-2.01.04-3,0-.24-3.48.33-7.12.05-10.59-.11-1.31-1.04-2.28-1.05-2.41-.02-.33.02-.67,0-1-.9-18.15.67-36.8,0-55.01,3.99-.03,8.02.06,12.01,0Z"/>
      <path class="cls-79" d="M167,130.01c0,.33-.79,1.27-.85,2.43s2.18,7.57-.65,7.57h-45.5c-.04-3.32.06-6.68,0-10,0-.33,0-.67,0-1l15-1v-21h15v21h16v-33c1.38.11.92,1.47,1.04,2.45,1.06,8.59.23,23.42-.04,32.55ZM149,109.01h-13v19h13v-19Z"/>
      <path class="cls-68" d="M76,104.01c2-.04,4.01.02,6.01,0l.99,55.01c.02.33-.02.67,0,1-2.99-.1-6.02.14-9,0-2.35-17.56-.27-35.78-1.08-53.56l3.08-2.44Z"/>
      <path class="cls-61" d="M203,83.01c-.43,3.41.31,7.49,0,11h-26v-11c8.65-.01,17.35,0,26,0Z"/>
      <path class="cls-33" d="M108,82.01c22.98.16,46.02-.12,69,0v1c-22.65.03-45.35-.02-68.01,0v9.01c-3.95.19-8.04-.28-11.99,0-2.08-2.05-.62-6.18-1-9,3.26.03,7.81-1.03,12-1Z"/>
      <path class="cls-25" d="M96,105.01v54c-.03,1.05,1,1.89,1,2-.01.33.02.67,0,1,0,.18-.97.82-.99,1.61-.08,2.9,1.78,5.43-.16,8.25l-8.85.14-2.03-.64.03-10.36h10.01s0-56.99,0-56.99c.33,0,.67,0,1,0v1Z"/>
      <path class="cls-8" d="M96,83.01c.38,2.82-1.08,6.95,1,9-.17.01-1.12.97-2.42,1.04-3.84.22-7.75-.23-11.58-.04v-11.01c4.36.06,9.66.97,13.01,1Z"/>
      <path class="cls-30" d="M272,82.01c-12.25,2.73-47.42-.2-62.51-.02-1.69.02-4.45-.64-5.49,1.02-.33,0-.67,0-1,0,.09-.73-.49-2.13.6-2.02l68.4,1.02Z"/>
      <path class="cls-60" d="M76,104.01l-3.08,2.44c.82,17.78-1.26,36,1.08,53.56-.66-.03-1.34.05-2,0v-56.01c1.32-.03,2.66.03,4,0Z"/>
      <path class="cls-90" d="M203,105.01c-.78,6.71,1.06,15.61,0,22-.03.19-1.15,2.37-1.99,1.99v-23.99c.65.03,1.33-.02,1.99,0Z"/>
      <path class="cls-81" d="M96,104.01c4.32.04,8.68-.03,13.01,0v25.01c-2.49-2.47-.22-19.45-1-24.01h-11.01s-1,0-1,0v-1Z"/>
      <rect class="cls-73" x="168" y="95.01" width="1" height="32"/>
      <path class="cls-19" d="M179,105.01c-2.21,5.47.64,19.49-2,23v-23c.66-.02,1.34.03,2,0Z"/>
      <path class="cls-32" d="M203,105.01c-.66-.02-1.34.03-2,0-6.79-.36-15.21-.36-22,0-.66.03-1.34-.02-2,0,6.17-1.77,13.97-1.09,20.51-1.02,1.69.02,4.45-.64,5.49,1.02Z"/>
      <path class="cls-46" d="M228,128.01l-14.01,1-.99,10c-.04-2.99.05-6.01,0-9-.01-.67,0-1.33,0-2h15Z"/>
      <path class="cls-77" d="M291,240.01l1.01,9-6.01,1c-1-.04-2.01.05-3,0v-10.01s8,0,8,0Z"/>
      <path class="cls-94" d="M337.01,321v12.01s-12.86.85-12.86.85c-1.7-3.99-1.7-8.72,0-12.72l12.86-.14Z"/>
      <path class="cls-84" d="M335,264.01v34h-9l.02-32.55-1.02-1.45v-1c.33,0,.67,0,1,0,3.49.1,6.38.81,9,1ZM334,264.01h-7v33h7v-33Z"/>
      <path class="cls-45" d="M326,298.01c-.33,0-.67,0-1,0,0-.33,0-.67,0-1,.14-10.98-.1-22.02,0-33l1.02,1.45-.02,32.55Z"/>
      <path class="cls-62" d="M348,318.01h6.01c-.16,5.14.2,10.35,0,15.5-.05,1.38.7,4.11-1,4.5v-19c-2.3.28-3.18.1-5-1Z"/>
      <path class="cls-18" d="M346,118.01c1.09,1.7,4.11.95,6,1,1.9.95,1.93,1.38,2.07,3.41.84,12.15-.77,25.34-.07,37.59l-10,1v7c-1.97.08-5.35.04-7,1-1.73,1.01-1.05,16.33-1.02,19.51.02,1.69-.64,4.45,1.02,5.49v1h-8.01c-.87-.86.59-20.75.03-24.55-.12-.78-.05-1.52-1.02-1.45-.32-.05-.68.07-1,0-1.79-.38-4.07-.16-6-1.01,2.95-2.86,1.59-5.71,2-8.99.01-.11,1.44-.76,1-1.99h-9s.44-37.07.44-37.07l5.56-.94c.75,4.33-1.43,21.88,1,24,2.91,2.55,15.01-.27,19.42,1.78,1.03-.18,1.16-1.06,1.58-1.78,2.28-3.84.64-19.17,1-25h2Z"/>
      <path class="cls-14" d="M322,118.01c-.5,8.26.36,16.72,0,25-2.43-2.13-.25-19.67-1-24l-5.56.94-.44,37.07h9c.44,1.24-.98,1.88-1,1.99-1.9-1.72-6.27-1.1-9-1v-40c2.66.05,5.34-.04,8,0Z"/>
      <path class="cls-13" d="M302,122.01h-6.01s-.99,37-.99,37c-.36-10.25-.37-21.75,0-32,.07-1.99-.06-4.01,0-6.01l7,1.01Z"/>
      <path class="cls-106" d="M328,197.01h-1v-28c.32.07.68-.05,1,0v28Z"/>
      <path class="cls-82" d="M96,46.01c51.64-.56,103.36.42,155,0v21H96v-21Z"/>
      <path class="cls-7" d="M96,11.01l.99-10.01h140.01c.03,1.33-.04,2.67,0,4.01.04,1.79-.57,5.49.94,6.57l12.63,1.37c1.01,1.45.4,12.16.44,15.06h-12.01s0-15,0-15c-.82-.25-.91.98-.99,1-.31.07-.68-.05-1,0H107v15l-11,1c0-4.65-.03-9.35,0-14,0-1.33-.02-2.67,0-4,0-.33,0-.67,0-1Z"/>
      <path class="cls-72" d="M96,12.01c-.02,1.33,0,2.67,0,4-2.29,8.83-.38,18.88-1,28-3.99-.05-8.01.04-12,0V12s13,0,13,0Z"/>
      <path class="cls-66" d="M251,29.01c-.04,4.99.03,10.02,0,15.01-51.64-.41-103.36.53-155.01,0v-1h154.01s0-13,0-13v-1h1Z"/>
      <path class="cls-67" d="M96,30.01v14c-.33,0-.67,0-1,0,.62-9.12-1.29-19.17,1-28-.03,4.65,0,9.35,0,14Z"/>
      <path class="cls-3" d="M238,14.01c.08-.02.17-1.25.99-1v15s12.01,0,12.01,0c0,.33,0,.67,0,1h-13.01s0-15,0-15Z"/>
      <path class="cls-51" d="M23,286.01l14.01.99c.04,4.99-.07,10.02,0,15.01.05,3.32-.03,6.68,0,10h-9v-11.01s7.01.01,7.01.01v-13.01s-13.01,0-13.01,0v8.01s-7,0-7,0v-9.01c3.91-.25,6.78,1.68,8.01-3,.06.66-.04,1.34,0,2Z"/>
      <path class="cls-26" d="M48,274.01c-.01.33.01.67,0,1-.16,4.02.56,8.07,0,12-2.22-2.22-.47-8.69-1-12h-23l-1,11c-.04-.66.06-1.34,0-2-.28-3.26.2-6.72,0-10h25Z"/>
      <path class="cls-5" d="M48,273.01c-.02.33.01.67,0,1h-25c7.8-2.29,16.89-.39,25-1Z"/>
      <path class="cls-15" d="M23,286.01l1-11h23c.53,3.31-1.22,9.78,1,12s9.56.43,13.01.99l.49,13.02c.81,0,.56-12.37.5-14.01.33.03.67-.02,1,0v13.01s11.01-.01,11.01-.01v15.01s1.44,1.03,1.44,1.03l19.55-.03v24c-3.26-.67-19.65.9-21,0-.2-.13.83-1.79-1.42-2.09-3.25-.42-8.55-.17-11.58,1.09-.04-1.33.05-2.67,0-4-.25-6.7-1-13.36-1.44-20.06l-10.56-.94c-.17-3-1.95-7.29-1-11l-11-1c-.07-4.99.05-10.02,0-15.01l-14.01-.99Z"/>
      <path class="cls-12" d="M59,328.01c.06,2.33-.06,4.68,0,7.01h2c.05,1.32-.04,2.66,0,3.99.02.67-.02,1.33,0,2,.08,3.32-.07,6.68,0,10h-1c.68-4.16-8.02-1.01-9.01-1.99l-.99-21.01c1.04.36,6.71-2.55,9,0Z"/>
      <path class="cls-56" d="M61,335.01h-2c-.06-2.32.06-4.67,0-7-.1-3.99.08-8.02,0-12.01h-11c-.43-.27,1.02-1.62,1-1.99l10.56.94c.44,6.7,1.18,13.36,1.44,20.06Z"/>
      <path class="cls-41" d="M285,513.01c0,.33,0,.67,0,1-.47.1-.96.55-1,1-18.22-.93-37.18,2.13-55-2,18.65.17,37.36-.23,56,0Z"/>
      <path class="cls-58" d="M285,534.01h-69v-1h68.01c.39-5.82-.56-12.27,0-18,.04-.45.53-.9,1-1,.08,6.65-.06,13.35,0,20Z"/>
      <rect class="cls-8" x="216" y="534.01" width="69" height="1"/>
      <path class="cls-64" d="M346,208.01c0,.33,0,.67,0,1l-1,40h-41v-24l10.56-.94.44-14.06h29c.22-1.76-2.26-.95-3.49-1-8.81-.37-17.71.27-26.51,0,0-.33,0-.67,0-1h1c10.32.09,20.68-.13,31,0Z"/>
      <path class="cls-19" d="M345,264.01c.5,10.18.53,22.84,0,33h-8.01s0-33,0-33c2.63.23,5.36-.16,8,0Z"/>
      <path class="cls-69" d="M314,209.01c8.8.27,17.7-.37,26.51,0,1.23.05,3.71-.76,3.49,1h-29l-.44,14.06-10.56.94v24h41l1-40c0,13.65,0,27.35,0,41.01h-43.01s0-26.01,0-26.01h11.01c.04-4.98-.07-10.01,0-14.99Z"/>
      <path class="cls-107" d="M326,262.01c6.32.05,12.69-.04,19.01,0,.05.66-.04,1.33,0,2-2.64-.16-5.37.23-8,0-.66-.06-1.34.05-2,0-2.62-.19-5.51-.9-9-1v-1Z"/>
      <path class="cls-76" d="M291,71.01c-.31,3.23.22,6.74,0,10.01h-18.01c.13-.02.77-.89,2.39-1.07,2.41-.26,14.09.58,14.61.07l.99-9Z"/>
      <polygon class="cls-51" points="261 129.01 271 128.01 271 160.01 261.99 160.01 262 140.01 261 139.01 261 138.01 261 131.01 261 130.01 261 129.01"/>
      <path class="cls-46" d="M243,108.01v21.01s18-1.01,18-1.01v2h-32c.88,3.68,6.85.05,6,3.99-3.86-.03-4.79,2.38-7.46,4.1l-11.54-.08v-7.01c2.82-.08,5.69.12,8.52,0,1.22-.05,3.72.75,3.48-.99l-13.01.57v8.43s46.02,0,46.02,0l1,1h-2c-15.17,0-30.37-.02-45.55.03l-1.45-1.03.99-10,14.01-1c.03-.33-.04-.67,0-1,.41-3.09-.68-18.33,0-19.01h15.01ZM242,110.01l-13.01-1.01.02,20,.99-1h12.01s0-18,0-18Z"/>
      <path class="cls-59" d="M261,161.01c-.67,0-1.33,0-2,0-.33,0-.67,0-1,0-3.32.07-6.68-.05-10,0,2.23-2.23,8.69-.47,12.01-.99,0-5.99,0-12.02,0-18.01v-2h1c-.05,6.99.07,14.02,0,21Z"/>
      <path class="cls-87" d="M248,184.01l-40.99.99c-1.05-2.61,1.78-1.59,2.01-2.64.41-1.85-.27-4.36-.02-6.35,12.54-.02,25.88.85,38-1h1c-.04,2.98.14,6.02,0,9Z"/>
      <path class="cls-9" d="M108,161.01l1,13h138c.57-3.45-1.26-10.74,1-13-.05,4.65.06,9.35,0,14H107.99s0-14,0-14Z"/>
      <path class="cls-82" d="M259,161.01c1.4,2.37,1.74,11.4.06,12.56l-10.07.44v-12c.32-.35,8.36,2.39,9.01-1,.33,0,.67,0,1,0Z"/>
      <path class="cls-87" d="M314,208.01c.06-3.32-.04-6.68,0-10h31v9.01s-30,.99-30,.99h-1Z"/>
      <path class="cls-19" d="M345,170.01v27.01c-2.65.05-5.34-.07-8,0,.1-.63-.15-1.47,0-2,2.5-8.57.67-15.2.99-24l7.01-1Z"/>
      <rect class="cls-51" x="303.99" y="210" width="9.01" height="13.01"/>
      <path class="cls-57" d="M328,169.01c.97-.07.9.67,1.02,1.45.57,3.8-.89,23.68-.03,24.55h8.01c-.15.52.1,1.37,0,1.99-2.99.08-6.01,0-9,0v-28Z"/>
      <path class="cls-73" d="M50,263.01c3.99.05,8.02-.04,12,0-1.4,8.15-.31,15.98,0,24-4.48-.41-9.45.3-14,0,.56-3.93-.16-7.98,0-12,7.69-.51,6.83-5.18,10-10.5l-8-1.5Z"/>
      <path class="cls-31" d="M314,118.01v1l-1,38h-9.01c.14-5.83-.15-11.7-.04-17.54.15-7.49.87-14.95,1.04-22.46.76-.07,6.6.95,9,1Z"/>
      <path class="cls-19" d="M324,264.01v33h-9v-33.01c2.87.27,6.22-.36,9,0Z"/>
      <path class="cls-82" d="M303,296.01c-.03.66.06,1.34,0,2-.17,1.84-.78,3.83-1,6-.06.56-.94,1.43-1,2-.21,1.89.11,4.04,0,6l-1,5h-26s0-7,0-7h26l-4-2.52c-.57-2.49,8.55-6.66-4-7.48v-2h10.01c.2-3.28-.28-6.74,0-10,1.67,1.57,1.13,5.61,1,8Z"/>
      <path class="cls-50" d="M303,296.01l.99-20.01h8.01c-.2,7.31.25,14.7,0,22.01h-9c.06-.66-.03-1.34,0-2Z"/>
      <path class="cls-95" d="M302,287.01c-.02.33.03.67,0,1-.28,3.26.2,6.72,0,10.01h-10.01v-10.01l10-1Z"/>
      <path class="cls-73" d="M312,298.01c-.07,1.99.06,4.01,0,6.01h-10.01c.22-2.18.83-4.17,1-6.01h9Z"/>
      <path class="cls-107" d="M325,263.01v1c-.33-.03-.67.04-1,0-2.78-.37-6.13.26-9.01,0v33.01s-1.02-1.45-1.02-1.45c.1-6.85-.06-13.72.03-20.55.05-3.99-.03-8.02,0-12.01,3.66,0,7.35,0,11.01,0Z"/>
      <path class="cls-28" d="M325,297.01h-1v-33c.33.04.67-.03,1,0-.1,10.98.14,22.02,0,33Z"/>
      <path class="cls-102" d="M96,212.01c-1.64,3.37-1.5,7.61,0,10.99h-12s-1.04,12.96-1.04,12.96l-8.95,1.05-.44,12.06-11.57.93-.99,9-.99-8.99v10.99H27v-10.01s11-.99,11-.99c1.66-.09,3.34.06,5,0l.99-12.01h8.01c-.5-4.36-.88-8.58-1-12.99.53-.03,1.51-.99,2-1v13.01s10.01,0,10.01,0l.99-12.01c3.43.09,6.71.16,10-1l.99-12.01h21.01Z"/>
      <path class="cls-51" d="M37,238.01v12c-3.32.11-6.68-.08-10,0l.06-10.95c3.37-.55,6.5-.98,9.94-1.05Z"/>
      <polygon class="cls-34" points="50.01 227 50.01 237.01 41.14 236.87 40 227 50.01 227"/>
      <path class="cls-23" d="M37,238.01c2-.04,4.01.02,6.01,0v12.01c-1.66.06-3.35-.09-5.01,0-.33.02-.67-.01-1,0v-12Z"/>
      <path class="cls-95" d="M292,300.01c12.55.81,3.42,4.99,4,7.48l4,2.52h-26v7.01s26,0,26,0l1-5c-.11,1.99.08,4.02,0,6.01h-28.01s0-11.01,0-11.01l-1.65-1.82-9.35-.19,1-.99h9.01s-.01-4.01-.01-4.01c6.62.33,13.4-.42,20.01,0Z"/>
      <path class="cls-73" d="M272,287.01c0,3.99,0,8.01,0,12h19.99s0,1,0,1c-6.6-.43-13.39.32-20.01,0v4.02s-8.99,0-8.99,0c-2.16-4.3.99-11.96,0-15l9-2Z"/>
      <path class="cls-40" d="M261,287.01c0-1.43,2.04-6.2,1.05-8.95l9.33-1.1c1.22.25.42,1.54.63,2.05v8l-9,2c-.05-.15-2-.91-2-2Z"/>
      <path class="cls-60" d="M273,227.01h10.01c-.18,3.16.24,6.41.04,9.58-.08,1.29-1.03,2.28-1.04,2.42h-10c.13-1.98-.18-4.03,0-6,.15-1.64-.1-3.35,0-5l1-1Z"/>
      <path class="cls-54" d="M64,225.01l-.99,12.01h-10.01s0-13.01,0-13.01c4.08-.06,7.91.92,11,1Z"/>
      <polygon class="cls-74" points="314 157.01 313 157.01 314 119.01 314 157.01"/>
      <path class="cls-11" d="M357,120.01h8.01s-1.01,41-1.01,41c-2.43-.28-5.45.02-8,0v-1c1.78-1.68,1.9-4.19,2.04-6.47.65-10.56.25-23.14-1.04-33.53Z"/>
      <path class="cls-88" d="M344,116.01c.16-1.46,2-4.39,1-7.01h8.44c.48,2.46.81,4.55,1.57,7.01.16.52-.11,1.37,0,2h-11c.04-.66-.07-1.35,0-2Z"/>
      <path class="cls-97" d="M356,160.01v-40h1c1.29,10.39,1.69,22.98,1.04,33.53-.14,2.28-.26,4.78-2.04,6.47Z"/>
      <path class="cls-10" d="M352,119.01c1,.03,2.01-.04,3,0l-1,41.01c-.7-12.26.91-25.45.07-37.59-.14-2.02-.17-2.45-2.07-3.41Z"/>
      <path class="cls-42" d="M337,194.01c-1.66-1.04-1-3.8-1.02-5.49-.03-3.19-.71-18.51,1.02-19.51v25Z"/>
      <path class="cls-93" d="M344,116.01v-8.01s10.42-.01,10.42-.01l.58,8.02c-.76-2.45-1.09-4.55-1.57-7.02h-8.44c1,2.62-.84,5.56-1,7.02Z"/>
      <path class="cls-15" d="M119,333.01h120.01s0,107,0,107c0-.18-1.06-1.56-1.07-3.38-.22-24.53.32-49.09.06-73.61-1.88,0-1.35,3.07-1.98,4.26-2.1,3.98-7.01-2.36-8.01-1.26l-1.01,9.99v-12.01c-.98.09-2.04-.12-3,0l1.99-1.99c-3.99-.04-8.01.02-11.99-.01-1.04-1.66-3.79-1-5.49-1.02-17.08-.21-41.07,2.11-57.06.06-3.83-.49-4.62-3.21-9.95-3.12-7.06.12-13.28,6.72-15.9,6.15-.92-.2-1.31-3.38-2.55-4.63-1.64-1.65-5.34-1.73-5.91-4.13l.82-7.27-2.95-1.03,4-1.01v-13Z"/>
      <path class="cls-19" d="M240,332.01v170l-3.99-.99,3.04-1.45c-.22-19.85.15-39.72-.04-59.56v-107.01s-120,0-120,0v-1c40.27-.95,80.72.71,121,0Z"/>
      <path class="cls-52" d="M272,233.01c-.18,1.97.13,4.02,0,6l-.96.92,1.96,1.07-9.33,1.05c-3.34-.82.27-12.4-.67-15.05l7.08.43,1.93,5.57Z"/>
      <path class="cls-80" d="M272,279.01c2.36,6.04.97,11.78,1,18h18v-10.99s1,1.99,1,1.99v11h-19.99c-.01-3.99,0-8.01,0-12v-8Z"/>
      <polygon class="cls-19" points="253 270.01 251.97 268.56 252 227.01 253 270.01"/>
      <path class="cls-82" d="M122,225.01c-.06.32.03.67,0,1-2.45,29.46,1.83,62.19,0,92l-.99-92.01-12.01-.99h13Z"/>
      <path class="cls-53" d="M108,161.01v14.01s139,0,139,0c-12.12,1.85-25.46.98-38,1-33.65.05-67.35-.04-101,0l-1-1v-13.01s-10,0-10,0c.02-.33-.01-.67,0-1h11Z"/>
      <polygon class="cls-51" points="107 175.01 108 176.01 108.01 185.01 97.99 185.01 97.99 175 107 175.01"/>
      <path class="cls-72" d="M61,339.01c3.03-1.26,8.33-1.51,11.58-1.09,2.25.29,1.23,1.95,1.42,2.09v1h-13c-.02-.67.02-1.33,0-2Z"/>
      <path class="cls-103" d="M75,287.01l-12-1v-22.5l12-1.5v-12s9.99,1.01,9.99,1.01v49.99c-3.06.43-6.83-.3-10,0v-14.01Z"/>
      <polygon class="cls-82" points="65 288.01 74.01 288 74.01 299.01 64.58 299.02 64 288.01 65 288.01"/>
      <path class="cls-51" d="M74,252.01c-2,3.15-.24,5.7,0,8.98h-11s0-9,0-9h11Z"/>
      <path class="cls-49" d="M109,219.01c.16-1.27,1.95-3.72,1-6.01h129.01s0,105.01,0,105.01h-115l-2-92c.03-.33-.06-.68,0-1,.02-.11,1.49-.49,1-1.99h-14c-.11-1.14-.14-2.9,0-4.01Z"/>
      <path class="cls-71" d="M240,212.01c-.33,33.48.43,67.02.02,100.51-.02,1.69.64,4.45-1.02,5.49v-105.01s-129,0-129,0c.96,2.29-.84,4.73-1,6.01v-7.01s131,0,131,0Z"/>
      <path class="cls-111" d="M124,318.01h-2c1.83-29.81-2.45-62.54,0-92l2,92Z"/>
      <path class="cls-111" d="M109,223.01h14c.5,1.51-.98,1.89-1,2h-13c-.04-.66.07-1.34,0-2Z"/>
      <path class="cls-105" d="M122,441.01l-7-1c1.44-2.85-.88-13.11,2.45-13.68,6.27-.65,6.83,5.76,8.82,7.43s10.17,2.56,11.51,3.49c1.13.78,1.55,5.58,3.23,6.77.11,29.98-.09,60.02,0,90.01h-54.01s0-19.01,0-19.01h45.01c.39-.24-1.03-1.68-1-2,.2-2.35,2.1-6.21.91-9.44l-.91-.56-19.01-.99v-48.01c3.09-1.62,6.91-1.46,10,0v-13Z"/>
      <path class="cls-35" d="M119,346.01l-4,1.01,2.95,1.03-.82,7.27c.57,2.4,4.28,2.48,5.91,4.13,1.24,1.25,1.63,4.43,2.55,4.63,2.62.57,8.83-6.02,15.9-6.15,5.33-.09,6.12,2.63,9.95,3.12,15.99,2.05,39.98-.28,57.06-.06,1.69.02,4.45-.64,5.49,1.02-23.51-.19-47.05.21-70.57-.08-1.99-.3-1.27,1.92-1.43,2.08-.13.13-1.35-.29-1.76.19-1.69,1.95.87,12.32.85,15.31-.17,21.38-.16,42.95-.08,64.5-1.68-1.19-2.1-6-3.23-6.77-1.34-.92-9.55-1.84-11.51-3.49s-2.55-8.07-8.82-7.43c-3.33.57-1.01,10.83-2.45,13.68l7,1c-3.3-.18-6.71.25-10,0v-1c1.89-22.26.93-45.43,1-68,2-3.92,5.1-14.86,0-17,.06-2.99-.04-6.01,0-9.01h6.01Z"/>
      <path class="cls-55" d="M112,440.01v1c-.33-.02-.68.06-1,0,0-31.64-.31-63.36,0-95l1,94Z"/>
      <polygon class="cls-74" points="112 454.01 111.99 502.01 131 503.01 111 503.01 111 453.01 112 454.01"/>
      <path class="cls-4" d="M119,332.01v14h-6.01c-.04,2.99.07,6.01,0,9-.11,5.65.02,11.35,0,17-.07,22.57.89,45.74-1,68l-1-94c.05-4.65-.03-9.35,0-14,2.66-.04,5.34.06,8,0Z"/>
      <path class="cls-101" d="M214,362.01c3.99.03,8.01-.03,11.99.01l-1.99,1.99c-3.73.5-4.36.08-8,0-24.62-.57-49.37.43-74,0,.16-.16-.56-2.39,1.43-2.08,23.52.3,47.06-.11,70.57.08Z"/>
      <path class="cls-46" d="M212,157.01c.69.11,1.41,0,2.03.43,1.51,1.28,2.14,11.61-1.03,12.57h-54v-9c1.86,1.87.82,4.53,1,7h52v-10.01s-48.01,0-48.01,0c-.05-.66.04-1.33,0-2h1c14.26,3.44,32.83-1.16,47,1Z"/>
      <path class="cls-70" d="M165,151.01v5h-1c-.07-1.33.06-2.68,0-4h-15.01s.99,8.01.99,8.01c2.85.36,6.96-1.07,9,.99v1l-10.06-.44-.94-10.57h17.01Z"/>
      <path class="cls-44" d="M96,159.01v-54h1c-.33,16.84.42,33.77.07,50.62-.04,1.8-1.07,3.2-1.07,3.38Z"/>
      <path class="cls-22" d="M165,151.01l1,5.01,46,.99c-14.17-2.16-32.74,2.44-47-1v-5Z"/>
      <polygon class="cls-58" points="260 141.01 260 142.01 212.99 141.51 260 141.01"/>
      <rect class="cls-19" x="120" y="141.01" width="45" height="1"/>
      <path class="cls-36" d="M177,82.01c-22.98-.12-46.02.16-69,0h69Z"/>
      <path class="cls-46" d="M243,108.01h-15.01c-.67.67.42,15.91,0,19-2.29-6.06-.39-13.6-1.01-20.01,5.06.59,11.35-1.27,16.01,1.01Z"/>
      <path class="cls-54" d="M149,109.01v19h-13v-19h13ZM148,110.01h-11v17h11v-17Z"/>
      <rect class="cls-45" x="327" y="264.01" width="7" height="33"/>
      <path class="cls-92" d="M107,29.01l1-14h129v15h12v12.01s-153,0-153,0v-12l11-1Z"/>
      <path class="cls-24" d="M237,14.01c.32-.05.69.07,1,0v15.01s12,0,12,0v1h-13v-15H108l-1,14v-15h130Z"/>
      <polygon class="cls-30" points="250 30.01 250.01 43.01 96 43.01 96 42.01 249.01 42.01 249 30.01 250 30.01"/>
      <path class="cls-19" d="M62,287.01c.06,1.64.31,14.01-.5,14.01l-.49-13.02c-3.45-.56-10.74,1.27-13.01-.99,4.55.3,9.52-.41,14,0Z"/>
      <path class="cls-46" d="M261,139.01h-46.01s-.01-8.42-.01-8.42l13.01-.57c.23,1.74-2.27.94-3.48.99-2.83.12-5.7-.08-8.52,0v7.01s11.54.08,11.54.08c2.67-1.72,3.6-4.13,7.46-4.1.85-3.94-5.12-.31-6-3.98h32s0,.99,0,.99l-17.01.51.02,6.48c2.74-.43,6.86.64,9.3.03,1.15-.29,1.32-2.91,2.19-3.01,1.45-.17,2.9,4.26,5.51,2.98v1Z"/>
      <path class="cls-46" d="M261,131.01v7c-2.61,1.28-4.06-3.15-5.51-2.98-.86.1-1.04,2.72-2.19,3.01-2.44.61-6.56-.46-9.3-.03l-.02-6.48,17.01-.51Z"/>
      <rect class="cls-51" x="230" y="110" width="12.01" height="18.01"/>
      <polygon class="cls-33" points="242 110.01 229.99 110 230 128.01 229.01 129 228.99 109 242 110.01"/>
      <path class="cls-15" d="M113,372.01c.02-5.65-.11-11.35,0-17,5.1,2.14,2,13.08,0,17Z"/>
      <path class="cls-73" d="M159,161.01c-2.05-2.06-6.15-.63-9-.99l-.99-8h15.01c.06,1.31-.07,2.66,0,3.99.03.66-.05,1.34,0,2h48.01s0,10,0,10h-52c-.18-2.47.86-5.13-1-7Z"/>
      <rect class="cls-87" x="137" y="110.01" width="11" height="17"/>
    </g>
  </g>
</svg>