<?xml version="1.0" encoding="UTF-8"?>
<svg id="Layer_2" data-name="Layer 2" xmlns="http://www.w3.org/2000/svg" viewBox="0 0 257.98 291">
  <defs>
    <style>
      .cls-1 {
        fill: #fff;
      }
    </style>
  </defs>
  <g id="Layer_2-2" data-name="Layer 2">
    <path d="M186.5,0c3.42.96,2.46,8.16,2.5,11l20.01,1.99.93,9.57,10.63,1.37.43,12.07,7.39-.12,2.61-3.87c-.36,1.45,2.01,3.99,2.01,4.49v34.5h23.5c.43,0,1.68,1.57,1.45,2.4l.03,44.05-2.03,1.14-11.02-.16-.93,9.57h-10.01s0,11,0,11h-37v23c3.57.45,8.36-1.35,11,1.5v80.5c2.07-.53,5.09,1.81,6.52,1.67s2.25-3.32,4.47-2.67l1,13h8s0,33.49,0,33.49c0,.23,1.9,1.33.5,1.5H57v-14l-10.89-1.1c.94-4.91-1.42-6.27-2.11-9.9h-20c1.85-9.58-4.73-9.19-11.87-11.13l-.14-8.87c4.15,1.63,11.45-3.84,13.77.22s-3.05,4.96-1.77,8.78l22,1v-17.5c0-.22-2.49-3.46-2.71-3.51l-19.3-1.98.57-10.03-11-1.01c-2.39,7.43-1.38,15.34-1.57,23.04l-10.33-1.17-1.66-1.34v-55.5l9.54-.76,1.46,1.26v17c0,7.33,6.85,5.44,12.01,5.49v11.01c4.55-.76,8.12,1.8,12.47,2.05,6.62.38,14.52-2.22,21.53-1.05v-24h11v-20.5l1.65-1.35,20.36-.65-8.57,1.44-.87,22.13-11.57.93c1.04,7.26-3.18,12.53-2.09,19.91l-7.77,2.73-.1,39.84c.94,5.04,6.25,3.14,9.83,3.67,2.47,4.25-.41,8.32.14,12.86h69v-12c-4.79,2.53-9.76.17-14.46-.04-3.16-.14-15.84.92-17.1-.9l-.44-10.07h9c-.02-2.22-.97-4.2-1.04-6.45-.1-2.86,1.16-13.25.97-13.92-.82-2.87-8.47-1.23-10.93-1.62v-11s-13-1-13-1l-.99-10.99,22.33-1.05c2.21.51,1.64,9.13,1.66,11.05l9.46-.07.56,3.06,1.98-1.99c.12,4.5-.11,9.03-.04,13.53.03,2.13,1.07,4.1,1.04,5.96-.03,2.51-3.07,13.42-2,14.51l13.06-.44.98-2.09-.91-41.83c.81-2.59,11.87-3.6,11.87-1.14v68.5l36.07.56.94-10.57h-7.01s-.16-10.33-.16-10.33l-5.9-3.28-.95-55.39,11.12.59c4.55,6.72.24,40.87,2.15,51.7.14.82.4,2.53,1.4,2.76l9.33-.04v24h20v-11s-10.99-1.01-10.99-1.01v-12s-9.05-1.66-9.05-1.66l.05-90.34-12-1v-12s-44.37-1.95-44.37-1.95c-1.52-.86.69-7.26-2.91-8.74-1.46-.6-2.81-.03-4-.34-.94-.25-.33-1.8-2.16-2.05-1.59-.21-6.45-.23-7.89.1-.81.19-.31,1.89-2.14,2.07-1.6.16-7.24-.22-7.59-1.76l.05-7.34-10.49-1.01c-2.35,3.78,2.13,20.12-.66,21.87l-12.86.14v21.5c-2.38,2.74-6.71,1.13-10,1.5v-23.5c0-2.72,7.86-2.85,10-2.5l1-30.01h-11.01s-.13-10.85-.13-10.85l-10.91-1.63-.37-9.54-11.45-3.11.87-57.86c11.97,4.48,9.94-3.17,11-11.99h10.99s0-11,0-11c7.57,1.33,14.38-.25,22,0l1-12.01h83.5ZM186,13h-69l.44,8.06,7.91,1.09,1.65,1.35v35.5l9-1v-22c13.05-1.07,25.95-.02,39.05.48,1.02,1.01,2.55,15.96,5.96,13.51l-.5-2c2.55.31,1.78,4.08,6.45,3.04-1.41,8.68,2.12,25.65-.16,33.26-1.03,3.45-4.97,2.18-5.66,2.84-2.39,2.25,2.65,10.22-5.68,11.82-2.04.39-4.37-.11-6.46.04l-.57,6.12c-10.01,3.26-20.1-.04-30.43.89l-.46-6.05c-3.7-2.56-8.32-1.95-12.54-1.95l-.43-9.07-7.56-1.93-1.88,18.37c.79,2.32,7.6,2.57,9.87,2.63.28,2.84-.92,6.09,1.02,8.48,3.91,4.82,7.41.92,11.45.49,9.63-1.03,20.61,2.36,30.54,1.03v9.01s52.99,0,52.99,0v-20.5c0-.14-1.47-1.22-1.72-2.28-.44-1.85-1.35-8.18-2.21-8.79l-7.07-.43c-.28-7.35,1-14.95-1.47-22.03l-8.59-1.41c-.33-.23-1.93-6.57-1.93-7.07V22h-12.01s0-9,0-9ZM162,59l-7.53.91c-1.61,7.32-1.31,15.56,8.08,12.1l-.55-13.01Z"/>
    <path d="M140,151c-2.67,5.9.43,9.01,1.05,13.45.53,3.79-.48,8.61-.05,12.56l-17-1.01-.5-11-10.48-3.48c2.24-3.22,2.27-6.97.97-10.51h26Z"/>
    <path d="M79.01,232.99l.86,22.37c-.93,2.84-8.14,1.42-10.75,1.53l-.97-22.25c.97-2.98,8.27-1.2,10.87-1.65Z"/>
    <polygon points="151 186.99 151.01 199.01 138.99 199.01 139.01 186 151 186.99"/>
    <path d="M116.91,164.08c2.94,3.97-.85,6.36-.94,8.42-.03.75,3.12-.09,2.02,2.5-5.22-1.23-3.9-6.66-3.99-11l2.9.08Z"/>
    <path class="cls-1" d="M186,13v9.01s12,0,12,0v42.5c0,.5,1.6,6.84,1.93,7.07l8.59,1.41c2.47,7.08,1.19,14.68,1.47,22.03l7.07.43c.86.61,1.77,6.94,2.21,8.79.25,1.06,1.72,2.13,1.72,2.28v20.5h-53v-9.01c-9.92,1.33-20.9-2.06-30.53-1.03-4.05.43-7.54,4.33-11.45-.49-1.94-2.39-.74-5.63-1.02-8.48-2.27-.06-9.08-.32-9.87-2.63l1.88-18.37,7.56,1.93.43,9.07c4.22,0,8.84-.6,12.54,1.95l.46,6.05c10.33-.93,20.42,2.37,30.43-.89l.57-6.12c2.09-.15,4.42.35,6.46-.04,8.33-1.6,3.29-9.56,5.68-11.82.7-.66,4.63.62,5.66-2.84,2.28-7.61-1.25-24.58.16-33.26-4.67,1.04-3.9-2.74-6.45-3.04l.5,2c-3.4,2.46-4.94-12.5-5.96-13.51-13.1-.5-26-1.55-39.05-.48v22l-9,1V23.5l-1.65-1.35-7.91-1.09-.44-8.06h69Z"/>
    <path class="cls-1" d="M162,59l.55,13.01c-9.39,3.46-9.69-4.78-8.08-12.1l7.53-.91Z"/>
  </g>
</svg>