<?xml version="1.0" encoding="UTF-8"?>
<svg id="Layer_2" data-name="Layer 2" xmlns="http://www.w3.org/2000/svg" viewBox="0 0 248 291">
  <defs>
    <style>
      .cls-1 {
        fill: #fff;
      }
    </style>
  </defs>
  <g id="Layer_2-2" data-name="Layer 2">
    <path d="M174.5,0c3.7.64,1.94,3.02,2.52,5.28.2.79,1.57.57,1.93,1.45.49,1.23-.5,3.8.98,4.85,7.68-.32,12.15-1.4,19.09,2.91l2.12,8.38c10.84-.96,10.16,2.62,10,11.99l11.37,2.13c2.58,3.73.49,6.87.45,10.47-.09,7.84.17,15.71.05,23.54h24l1,47.01-12.9,1.09-1.24,8.76-7.95.6-3.41,11.54h-19c-3.63,5.54-.46,13.62-.36,19.85l7.86,1.15v83l12.06.44,1.07,11.43,8.74,2.27c.2,10.81-2.59,22.25.13,32.86H48l-1.64-12.09c-7.97-2.05-16.18-2.09-24.37-1.9l-.05-9.96-10.95-1.04v-10.01s-10.99-1-10.99-1v-45l12,1v21l10.89,1.11.1,9.9,11.39.11,2.22,3.95,11.39-1.07v-47h11.01s1.1-23.9,1.1-23.9l11.46-2.04.88-22.12,10.56-1.94v-32l-10.07-.43-2.07-9.43-9.72-1.28-.13-12.86-12.57-1.97c-.46-.62,1.56-9.44,1.62-11.56.11-4.12-1.08-9.11-1.1-12.93-.05-7.79-1.15-22.17.05-29.03.79-4.52,7.27-.25,11-1.5l.48-12.03,12.51-.98.11-8.89c7.34.2,13.17-3.46,20.9-2.1l1-12.01h79.5ZM175.5,13h-66.5l-1,12.99,10.05,2.66.9,19.88,9.62-.47.43-13.07c6.34,1.6,30.41-4.31,33.52,1.99,1.4,2.84-.67,9.16,1.43,10.57l13.06,1.44v44c-5.09-1.46-10.28.79-14.78,3.21l-.36,8.16-1.5,1.5-27.84,1.16c-3.94-.63-2.65-5.67-1.77-8.57l-.7-.99-11.64-1.42c1.15-9.47.77-12.05-9.38-10l-1.05,19.96,12.01.99-1.01,11h23.5c2.42,1.83.53,9,5,9h63.5c.77-10.75-.67-20.92-2.14-31.36l-1.5-1.5-7.37-.14c-.7-4.3,1.99-20.36-2.66-21.84l-5.7-.3-1.5-1.5c.32-5.5-.94-12.65-.19-17.91.34-2.41,2.16-3.92,2.16-5.95s-1.75-3.29-2.06-5.05c-.48-2.66.07-16.26-1.06-17.44l-12.05-.48-.69-.99c.91-2.12,1.65-8.8-.75-9.54ZM145,73c8.63,1.31,12.39-1.96,9.07-10.57l-9.07-.44v11.01ZM71,183v27h-13c.38,1.18,1.09,2.18,1.08,3.51-.05,4.46-.74,10.41-1.1,14.99-.04.5.02,1.01.03,1.5l1.98-1.01v4.02s11.01,0,11.01,0v17h-11.01s1.01,29,1.01,29h57l-1-11h-21l.49-10.01c2.24-2.29,5.58-2.1,8.51-1.99v-21l-9.56-.93-.41-9.58c-3.84-.94-7.21-1.99-11.02-.49l.99-13h19.5c.28,0,2.33,1.03,2.54,1.68l-.04,7.32h11.01s0,31.5,0,31.5c2.64,2.85,7.43,1.05,11,1.5v14l11.06.56.93-58.57h12.01s0,70,0,70h37l-.94-10.56-10.07-.43c.88-8.04-2.48-15.5-3.04-23.46-1.02-14.5,1.24-29.12,1.48-43.61,1.06-1.52,8.62-1.79,9.43.7,2.11,17.78-.34,35.83,3.6,53.41l9.54.96v-92c-3.72.37-6.76.06-9.78-2.21l-1.27-12.74c-26.66.08-53.34,3.92-79.91.91l-2.01-11.53-8.54.94c-2.79.86-1.02,8.15-1.48,10.62-3.01-.35-7.7.15-6,3.99-1.39-.13-3.06.33-4.35.03-1.18-.28,0-2.44-1.64-2.01l.91,9.89c-8.87,2.56-3.66,5.99-2.97,10.65.49,3.3-.22,7.08.06,10.46h-12.01ZM22,266h25v-9h-15v-7.01s-9.06-.43-9.06-.43l-.93-5.57-9.81,1.19-.17,10.79,9.52,1.98.46,8.04ZM200,258v20.5c1.61,2.47,3.92.51,6.46.45,6.17-.13,12.39.2,18.55.05l-.47-9.04-13.1-2.9-.56-9.93c-3.61-2.04-7.1.88-10.87.86Z"/>
    <path class="cls-1" d="M71,183h12.01c-.28-3.37.43-7.15-.06-10.45-.69-4.66-5.9-8.09,2.97-10.65l-.91-9.89c1.64-.43.46,1.74,1.64,2.01,1.29.3,2.96-.16,4.35-.03-1.69-3.84,2.99-4.34,6-3.99.46-2.47-1.31-9.76,1.48-10.62l8.54-.94,2.01,11.53c26.57,3.01,53.26-.83,79.91-.91l1.27,12.74c3.03,2.27,6.06,2.57,9.78,2.21v92l-9.54-.96c-3.93-17.57-1.48-35.62-3.6-53.41-.8-2.49-8.36-2.22-9.43-.7-.23,14.48-2.49,29.11-1.48,43.61.56,7.96,3.91,15.42,3.04,23.46l10.07.43.94,10.56h-37v-70.01s-12,0-12,0l-.93,58.57-11.06-.56v-14c-3.57-.45-8.36,1.35-11-1.5v-31.5h-11.01s.04-7.32.04-7.32c-.2-.66-2.26-1.68-2.54-1.68h-19.5l-.99,13c3.81-1.5,7.19-.45,11.02.49l.41,9.58,9.56.93v21c-2.93-.11-6.27-.31-8.51,1.99l-.49,10.01h21l1,11h-57l-1.01-29.01h11.01s0-16.99,0-16.99h-11.01s0-4.01,0-4.01l-1.98,1.01c0-.49-.07-1-.03-1.5.36-4.58,1.05-10.53,1.1-14.99.01-1.33-.7-2.33-1.08-3.5h13v-27.01ZM131,162h-20.5c-.28,0-2.33,1.03-2.54,1.69.77,8.51-3.04,16.18,1.13,24.23l19.91-.92.57,12.02h11.43c.65-10.33.66-15.17-11.01-13.01-1.22-1.18,1.39-13.46.78-15.51-.18-.62-1.59-.43-1.75-1.17-.68-2.98.25-5.05,1.98-7.33Z"/>
    <path class="cls-1" d="M175.5,13c2.41.74,1.67,7.43.75,9.54l.69.99,12.05.48c1.13,1.18.58,14.78,1.06,17.44.32,1.76,2.06,2.94,2.06,5.05s-1.82,3.53-2.16,5.95c-.75,5.26.52,12.41.19,17.91l1.5,1.5,5.7.3c4.64,1.49,1.96,17.55,2.66,21.84l7.37.14,1.5,1.5c1.47,10.44,2.9,20.62,2.14,31.36h-63.5c-4.47,0-2.58-7.17-5-9h-23.5l1.01-11-12.01-.99,1.05-19.96c10.14-2.04,10.52.53,9.38,10l11.64,1.42.7.99c-.88,2.9-2.18,7.94,1.77,8.57l27.84-1.16,1.5-1.5.36-8.16c4.5-2.42,9.69-4.67,14.78-3.21v-44l-13.06-1.44c-2.1-1.41-.02-7.74-1.43-10.57-3.11-6.3-27.18-.39-33.52-1.99l-.43,13.07-9.62.47-.9-19.88-10.05-2.66,1-12.99h66.5Z"/>
    <polygon class="cls-1" points="22 266 21.54 257.96 12.02 255.98 12.19 245.19 22 244 22.94 249.57 32 249.99 32 257 47 257 47 266 22 266"/>
    <path class="cls-1" d="M200,258c3.77.02,7.26-2.91,10.87-.86l.56,9.93,13.1,2.9.47,9.04c-6.16.14-12.38-.19-18.55-.05-2.54.06-4.85,2.02-6.46-.45v-20.5Z"/>
    <path class="cls-1" d="M145,73v-11.01s9.07.44,9.07.44c3.32,8.6-.44,11.87-9.07,10.57Z"/>
    <path d="M131,162c-1.73,2.29-2.66,4.35-1.98,7.33.17.73,1.57.55,1.75,1.17.61,2.05-2,14.32-.78,15.51,11.67-2.16,11.65,2.68,11.01,13h-11.43s-.57-12.01-.57-12.01l-19.91.92c-4.17-8.05-.36-15.72-1.13-24.23.21-.66,2.26-1.69,2.54-1.69h20.5Z"/>
  </g>
</svg>