<?xml version="1.0" encoding="UTF-8"?>
<svg id="Layer_2" data-name="Layer 2" xmlns="http://www.w3.org/2000/svg" viewBox="0 0 244.9 290">
  <defs>
    <style>
      .cls-1 {
        fill: #fff;
      }
    </style>
  </defs>
  <g id="Layer_2-2" data-name="Layer 2">
    <path d="M21.9,199c3.69-.13,7.24-1.52,11-1,.21,2.72.14,7.88,1.02,10.24.49,1.32,2.54.82,3,3.23.35,1.85-.46,9.11-.03,9.54h11.01s0-11.01,0-11.01l11-1v-23l9.11.42,1.93-25.87-.79-10.09,1.38-1.32,9.4-1.81-.03-29.34-10.95-1.04-.49-11.01-9.57-.93,1-12-12.06-1.68-.93-56.31,12.56-.95-.56-12.05h13c.84-.85-2.87-9.6-.06-11.57l22.07.57V0s78.49,0,78.49,0l1.51,5.01,1.98-1.01-.99,7,23.06,1.45.93,9.57,8.78,1.22,2.23,11.78c2.14.04,4.64-.08,6.65-.83s.71-2.83,3.34-2.17c2.78,2.57,2.37,25.52,2.05,30.52-.18,2.89-2.48,4.49-1.04,7.47h24v47h-14v10.01s-8.11.58-8.11.58l.11,10.41-11.9.11-1.11,8.89-9.39-.87-3.5,4.5.89,10.37h12s0,81.99,0,81.99h11.01s.46,11.04.46,11.04l9.54,3.46v32.5l-180-1v-21l-14.11-2.58.11-10.41,10.03-1.67c-1.4-9.69,5.25-23.68-10-21.38l-1.04-11.96c-4.04-.16-7.58-.41-10.99,2-.74-7.4-2.55-15.71-3.01-23-2.88.1-5.72-.2-8.5-.78l-1.05.76c.71,4.08-2.51,20.67,1.19,21.89l9.47.72c2.88,7.37.14,14.15,1.88,21.42l-12.98-1.01.99-7.98-12.9-2.1.9-56.9h21c.36,7.94-.5,16.07,0,24ZM172.9,12h-67l2.01,11.99,9.04,1.67-1.04,23.33,9.92-1.08-.92-12.92h34.5c3.07,1.56.65,11.16,1.5,12,3.29.24,9.61-1.37,10.8,2.7.72,2.46.76,29.66.18,32.77-.98,5.22-6.74,4.8-10.98,4.52v8.01s-7-.01-7-.01l-.44,7.06c-1.58,2.26-22.86,2.66-25.92,1.8-2.55-.72.39-5.44-1.79-7.71l-9.85-.14v-10.01s-10.99-1-10.99-1v31l15.01,1v7s1.98-2.99,1.98-2.99l1.65,4.86,27.37,1.14v-10.01s58.49,0,58.49,0c2.15-1.86,1.86-6.78,1.52-9.53-.15-1.18-3.11-11.97-3.48-12.51-1.75-2.53-5.78.36-7.85-.11-5.43-1.24-.84-18.9-3.69-24.11l-7.87-3.37c-.82-4.27.64-9.8-.15-13.85-.45-2.32-2.58-2.66-3.04-5.95-1.06-7.57,3.75-15.52,2.06-23.56l-12.04-1.46-1.97-10.53ZM145.76,64.14l-7.86-1.15v11.01s8,.99,8,.99l-.13-10.85ZM209.89,127l-31.01.5c4.4,1.07-.04,6.87,3.53,9.49l2.47-6.99v10c2.11-.23,4.57.34,6.58.07,1.47-.19,2.55-3.68,6.44-2.07v-5s4.85,1.16,4.85,1.16c-1.46,4.71,3.47,4.69,5.89,2.59,1.81-1.56,1.16-7.36,1.25-9.76ZM58.9,223.5v30.5h10.01s0,11,0,11l-7.57.93-.44,12.06h56l-.94-10.56-21.1-4.11-.96-9.32h11s.94-19.95.94-19.95l-12.95-1.05-1.14-10.86c-16.59,2.4-15.97-8.94-1.3-11.08,1.99-.29,11.39-.42,12.5.37l2.04,10.46,9.9.1.99,33.01,12.95,1.04.99,9.52,9.06.44v-58h10.01c.27,18.15-.37,36.37-.05,54.54.04,2.13,1,4.01,1.05,5.96.08,3.17-2.98,7.66.5,10.5h37.5c.89-3.92,1.32-6.99-.11-10.88l-11.89-1.11-1.99-65.51,1.64-2.36,11.31-.09.5,54.99,11.55,1.95c-4.8-30.5.12-61.59-.93-92.38l-11.07-1.61c2.65-16.89-5.48-15.18-19-15l.5,2-45-1-2.36-1.64-.72-7.48c-8.41-2.31-16.99-.09-25.42.11l-.93,10.57-12.07.43v11s-1.98-3.99-1.98-3.99c-1.62,5.63,1.55,17.54-5.07,18.53-.59,3.84,2.12,6.71,2.83,10.2.66,3.25.21,8.57,1.26,11.56.46,1.31,2.36.05,1.97,1.69l-10.89.12c-1.51,1.29-1.75,19.87-.11,22.88-2.42.34-10.2-1.07-11,1.51ZM199.9,254v24l21.01,1.01v-10.43c-.18-1.31-6.6-.18-8.31-.6-.47-.12-1.48-3.34-4.68-1.98.7-3.43-2-9.12,1.99-10.49-.97-2.46-7.62-1.27-10-1.51Z"/>
    <path d="M35.75,254.86l-11.8-.91.4-8,1.18-.86c4.1,2.08,6.46-2.3,10.4-1.65,1.98,1.45,1.02,9.14-.18,11.42Z"/>
    <path class="cls-1" d="M58.9,223.5c.8-2.58,8.58-1.17,11-1.51-1.65-3.01-1.41-21.59.11-22.88l10.89-.12c.39-1.64-1.51-.39-1.97-1.69-1.05-2.99-.6-8.31-1.26-11.56-.7-3.49-3.41-6.37-2.83-10.2,6.62-.99,3.45-12.9,5.07-18.53l1.98,3.99v-11s12.07-.43,12.07-.43l.93-10.57c8.43-.19,17.02-2.41,25.42-.11l.72,7.48,2.36,1.64,45,1-.5-2c13.52-.18,21.65-1.89,19,15l11.07,1.61c1.05,30.79-3.87,61.88.93,92.38l-11.55-1.95-.5-54.99-11.31.09-1.64,2.36,1.99,65.51,11.89,1.11c1.44,3.89,1,6.97.11,10.88h-37.5c-3.48-2.84-.42-7.33-.5-10.5-.05-1.95-1.01-3.83-1.05-5.96-.31-18.17.32-36.39.05-54.54h-10.01v58.01l-9.06-.44-.99-9.52-12.95-1.04-.99-33.01-9.9-.1-2.04-10.46c-1.12-.79-10.52-.66-12.5-.37-14.68,2.13-15.3,13.48,1.3,11.08l1.14,10.86,12.95,1.05-.94,19.95h-11s.96,9.32.96,9.32l21.1,4.11.94,10.56h-56l.44-12.06,7.57-.93v-11.01s-10.01,0-10.01,0v-30.5ZM125.9,160c-10.73.31-21.18.64-31.93.39-3.22-.08-1.06,2.34-1.05,4.08.02,3.51-.05,7.04-.03,10.53h12c-1.19,4.22-2.12,8.66,1.5,11.99h18l1.5-1.5v-25.5Z"/>
    <path class="cls-1" d="M172.9,12l1.97,10.53,12.04,1.46c1.69,8.05-3.12,15.99-2.06,23.56.46,3.29,2.59,3.64,3.04,5.95.79,4.05-.68,9.59.15,13.85l7.87,3.37c2.84,5.21-1.74,22.87,3.69,24.11,2.07.47,6.1-2.42,7.85.11.37.53,3.33,11.33,3.48,12.51.34,2.75.63,7.67-1.52,9.53h-58.5v10.01s-27.36-1.14-27.36-1.14l-1.65-4.86-1.98,2.99v-7s-15.01-1-15.01-1v-31l11.01,1v10.01s9.84.14,9.84.14c2.18,2.27-.76,6.99,1.79,7.71,3.06.87,24.34.47,25.92-1.8l.44-7.06h7.01s0-8,0-8c4.23.28,10,.7,10.98-4.52.58-3.11.55-30.31-.18-32.77-1.19-4.07-7.52-2.45-10.8-2.7-.85-.85,1.57-10.44-1.5-12h-34.5l.92,12.92-9.92,1.08,1.04-23.33-9.04-1.67-2.01-11.99h67Z"/>
    <path class="cls-1" d="M199.9,254c2.37.24,9.03-.96,10,1.51-3.98,1.37-1.28,7.06-1.99,10.49,3.21-1.36,4.21,1.87,4.68,1.98,1.71.42,8.13-.71,8.32.6v10.43s-21.02-1.01-21.02-1.01v-24Z"/>
    <path class="cls-1" d="M209.89,127c-.09,2.39.56,8.19-1.25,9.76-2.42,2.09-7.34,2.12-5.89-2.59l-4.85-1.16v5c-3.89-1.6-4.97,1.88-6.43,2.07-2.01.27-4.47-.31-6.58-.07v-10s-2.48,6.99-2.48,6.99c-3.56-2.62.87-8.42-3.53-9.49l31.01-.5Z"/>
    <polygon class="cls-1" points="145.76 64.14 145.89 75 137.89 74 137.89 63 145.76 64.14"/>
    <path d="M125.9,160v25.5l-1.5,1.5h-18c-3.62-3.34-2.69-7.77-1.5-11.99h-12c-.02-3.5.05-7.02.03-10.54-.01-1.74-2.17-4.16,1.05-4.08,10.75.25,21.2-.08,31.93-.39Z"/>
  </g>
</svg>