<?xml version="1.0" encoding="UTF-8"?>
<svg id="Layer_2" data-name="Layer 2" xmlns="http://www.w3.org/2000/svg" viewBox="0 0 251 289.01">
  <defs>
    <style>
      .cls-1 {
        fill: #fff;
      }
    </style>
  </defs>
  <g id="Layer_2-2" data-name="Layer 2">
    <path d="M11,233.98c9.8.11,16.02-6.94,13,10l10.57.93.43,10.07h12.01v-19.51c0-3.71-10.24-1.53-11.56-3.44l.5-10.62,25.07,1.56v51.5c3.89,2.88,10.57,1.18,15.54,1.46,2.37.13,4.56,1,6.92,1.08,12.91.45,25.92-.43,38.83-.03,2.85-2.73,4.25-8.11,1.21-11.01h-20.5v-10.01s10,0,10,0v-23h-10c-2.18-5.31,5.06-8.04,1.5-11h-21.5v-11c9.47.39,17.33-3.65,27-.99.16,2.57-.62,7.89,1.24,9.76,2.79,2.8,11.13-.94,12.56,3.94,1.59,5.42-2.13,31.97-.8,33.3l13.37.13,1.47,1.53,1.17,7.34,8-1c2.02-1.97-2.15-48.25-.94-56.44,1.05-7.11,4.83-9.59,11.94-8.57l.98,75.51,1,2.07c.72.6,1.26-.58,1.51-.58h31.5l-1.01-9.99-9.88-.12c-.21-1.5-.82-3-.98-4.5-1.64-15.02-1.23-43.54-.17-58.93.08-1.22.31-5.19,1.72-5.49l7.39-.5c1.71.98,2.79,7.83,2.98,10,1.34,15.65-1.19,33.05.1,48.9,1,3.05,9.15,1.14,11.86,1.63-.15,7.66-1.39,14.35,0,22.01l23.01-1-.44-10.07-12.57-.93-.43-11.07-8.9-.89-1.23-2,.5-75.42c-.85-2.95-10.28-1.59-12.86-1.7l-.09-19.92-1,7.99c-1.7-.58-1.2-6.17-1.06-7.56.33-3.1,1.37-3.8,2.06-6.43l-63-1.01.85-6.3c-1.04-4.48-11.23-2.17-14.85-2.69v-4.02s-4.99,0-4.99,0l.08-2.52c-9.83-3.45-5.06,10.68-6.03,16.48l9.52,1.98.43,8.07,9.86.13,1.15,13.87h-13.01s-.43-12.07-.43-12.07l-10.57-.93v-11.01s-8,0-8,0l-1.1,11.9-7.26.25-1.5,1.5-2.25,17.91,2.11,2.45-11.99,1.01v-22.5c0-.13-1.92-2.35.48-2.47,1.67-.08,6.63,1.88,9.57.48l1.71-49.76-2.33-4.61-7.43.87c-.51-5.18,2.41-12.18-4.6-12.99-1.96-.23-5.96,1.6-6.38-.56-.39-2,2.33-5.99.54-8.51-1.31-1.85-10.11-2.09-12.56-1.95v-47s8.9-.1,8.9-.1l1.1-11.9,10.57-.93.44-12.06c6.84,3.01,13.46-1.87,19.98,1l.02-8.99,1.98,7.99V.97c3.96-.73,7.77.92,11.47,1.05,24.88.87,57.6,1.74,82.09,0,2.35-.17,4.15-.32,5.96-2.03l1.49,1.48-1.92.91.91,9.59,10.9.1,1.1,11.9,9.54-.05,1.61,12.91,10.42,1.08-.57,31.07,25.01-1.01v50l-11.02.44-1.09,11.45-8.44.99c-2.36,2.84-2.64,6.59-2.45,10.13-2.75,1.26-3.06-2-3.61-2.06-1.37-.16-3.79,1.1-5.85,1.11-4.98.02-9.6-1-14.53-.03l1,34.98h10.99v71.01l11.99-1.01c1.79,4.79.95,9.18.02,14h11v30.01c-.73.27-1.2-1-1.5-1H53v-21l-18.01-.99v-10.01s-10.06-.43-10.06-.43l-1.03-8.47-12.47-4.03c-.98-1.38-.38-6.85-.44-9.06-3.02-.03-7.37-1.97-11-1v-57h11v19.5c0,.28,1.03,2.33,1.69,2.54l8.32-.04.13,10.86c4.6,2.82,13.02-3.7,13.91,3.6.32,2.66-.31,5.81-.04,8.56l-12.43.05-1.71-10.92-9.87-1.14c.16,8.31-.21,16.69,0,25ZM191,12.98h-78c-.53,3.87-2.18,7.45.47,11.02,2.62,2.59,7.3-.38,10.53-.02v34c-2.72.5-10.86-1.41-11.86,1.64-1.91,6.2,2.39,9.43,2.9,14.81,1.05,10.98-2.15,21.67-2.5,32.59l-16.55-.04v10.99s29.01.01,29.01.01l-1.01,9.99h12.01s-.5,2.01-.5,2.01h21.5s-.01-11.01-.01-11.01h13.01c.63.63-1.31,7.75,1.5,9.01h53.5v-13.01s13.01.01,13.01.01v-11.01s-21,2-21,2c3.08-7.76-.61-12.63-3.1-19.4-2.5-4.04-8.8-1.87-9.81-2.7l-1.25-11.75-9.75-3.24c.82-7.79-1.47-19.06-.08-26.38,1.05-5.51,7.49-5.15,7.93-5.57s.45-11.13-.92-12.48l-8.57-3.43-.46-8.04Z"/>
    <path d="M61,185.98h9.01c.2,7.15-.27,14.38-.05,21.54.09,2.89,2.66,11.24.1,13.02l-9.06.44v-35Z"/>
    <path d="M80.89,246.08v8.78c-3.82,1.51-6.97.67-10.83.06l.87-9.5,9.96.67Z"/>
    <path class="cls-1" d="M191,12.98l.46,8.04,8.57,3.43c1.37,1.35,1.38,12.04.92,12.48s-6.88.06-7.93,5.57c-1.39,7.32.9,18.6.08,26.38l9.75,3.24,1.25,11.75c1.01.83,7.31-1.34,9.81,2.7,2.48,6.77,6.18,11.64,3.1,19.4l21-2v11.01s-13.01-.01-13.01-.01v13.01s-53.49,0-53.49,0c-2.8-1.26-.86-8.37-1.5-9h-13.01s.01,11.01.01,11.01h-21.5s.5-2,.5-2h-12.01s1.01-10,1.01-10h-29.01s0-11.01,0-11.01l16.55.04c.36-10.93,3.55-21.61,2.5-32.59-.51-5.38-4.81-8.61-2.9-14.81,1-3.04,9.14-1.14,11.86-1.64V23.98c-3.22-.35-7.91,2.61-10.53.02-2.66-3.57-1.01-7.15-.47-11.02h78ZM171,37.99c-12.57-.77-25.3-3.97-37.92-.93,1.17,6.94.6,12.87-.22,19.79l-8.73,2.77-.14,24.37,9.57.93c1.43,2.05-.26,8.61.42,11.36.28,1.15,2.84,1.22,3.54,2.67.92,1.89-.12,5.61,1.41,6.6l21.93,1.29c1.52-1.98.55-6.45,1.57-7.93s4.88-.3,5.42-2.59l1.16-10.35c3.89-.62,8.33,2.6,10.84-1.67l-.83-34.34h-7.99s-.01-11.98-.01-11.98Z"/>
    <path d="M171,37.99v11.98s8,0,8,0l.83,34.34c-2.5,4.27-6.95,1.05-10.84,1.67l-1.16,10.35c-.53,2.29-4.43,1.15-5.42,2.59s-.05,5.95-1.57,7.93l-21.93-1.29c-1.53-.99-.49-4.71-1.41-6.6-.7-1.45-3.26-1.52-3.54-2.67-.68-2.75,1.01-9.31-.42-11.36l-9.57-.93.14-24.37,8.73-2.77c.82-6.92,1.39-12.85.22-19.79,12.62-3.03,25.35.16,37.92.93ZM157.01,56.97h-9.01v13.01h9.01v-13.01Z"/>
    <rect class="cls-1" x="147.99" y="56.97" width="9.01" height="13.01"/>
  </g>
</svg>